<svg xmlns="http://www.w3.org/2000/svg" xmlns:xlink="http://www.w3.org/1999/xlink" viewBox="0 0 183.22 171.85"><defs><style>.cls-1{fill:#ff7e20;}.cls-2{fill:#ff4929;}.cls-3{fill:#ff660d;}.cls-4{fill:#ffab00;}.cls-5{fill:url(#linear-gradient);}.cls-6{fill:url(#linear-gradient-2);}.cls-7{fill:#fc7b00;}.cls-8{fill:#ff821b;}.cls-9{fill:url(#linear-gradient-3);}.cls-10{fill:#ff662a;}.cls-11{fill:url(#linear-gradient-4);}.cls-12{fill:none;}.cls-13{fill:url(#linear-gradient-5);}.cls-14{fill:url(#linear-gradient-6);}.cls-15{fill:url(#linear-gradient-7);}.cls-16{fill:url(#linear-gradient-8);}.cls-17{fill:url(#linear-gradient-9);}.cls-18{fill:url(#linear-gradient-10);}.cls-19{fill:url(#linear-gradient-11);}.cls-20{fill:url(#linear-gradient-12);}.cls-21{fill:url(#linear-gradient-13);}.cls-22{fill:url(#linear-gradient-14);}.cls-23{fill:url(#linear-gradient-15);}.cls-24{fill:url(#linear-gradient-16);}.cls-25{fill:url(#linear-gradient-17);}.cls-26{fill:url(#linear-gradient-18);}</style><linearGradient id="linear-gradient" x1="81.06" y1="163.84" x2="83.73" y2="160.28" gradientUnits="userSpaceOnUse"><stop offset="0" stop-color="#ed6002"/><stop offset="0.47" stop-color="#fc7b00"/></linearGradient><linearGradient id="linear-gradient-2" x1="17.38" y1="-19.55" x2="74.82" y2="83.97" gradientUnits="userSpaceOnUse"><stop offset="0" stop-color="#ffab00"/><stop offset="1" stop-color="#ff8925"/></linearGradient><linearGradient id="linear-gradient-3" x1="91.5" y1="65.36" x2="103.3" y2="86.63" xlink:href="#linear-gradient-2"/><linearGradient id="linear-gradient-4" x1="28.8" y1="31.35" x2="52.29" y2="31.35" gradientUnits="userSpaceOnUse"><stop offset="0" stop-color="#ffab00"/><stop offset="0.75" stop-color="#ff7937"/></linearGradient><linearGradient id="linear-gradient-5" x1="91.17" y1="58.32" x2="178.56" y2="58.32" xlink:href="#linear-gradient-4"/><linearGradient id="linear-gradient-6" x1="61.75" y1="45.91" x2="93.31" y2="102.78" xlink:href="#linear-gradient-2"/><linearGradient id="linear-gradient-7" x1="46.41" y1="54.43" x2="77.97" y2="111.29" xlink:href="#linear-gradient-2"/><linearGradient id="linear-gradient-8" x1="65.41" y1="43.88" x2="96.96" y2="100.75" xlink:href="#linear-gradient-2"/><linearGradient id="linear-gradient-9" x1="57.41" y1="48.32" x2="88.96" y2="105.19" xlink:href="#linear-gradient-2"/><linearGradient id="linear-gradient-10" x1="31.59" y1="62.65" x2="63.14" y2="119.52" xlink:href="#linear-gradient-2"/><linearGradient id="linear-gradient-11" x1="94.92" y1="27.51" x2="126.48" y2="84.38" xlink:href="#linear-gradient-2"/><linearGradient id="linear-gradient-12" x1="92.4" y1="28.91" x2="123.95" y2="85.78" xlink:href="#linear-gradient-2"/><linearGradient id="linear-gradient-13" x1="24.39" y1="-11.13" x2="77.89" y2="85.3" xlink:href="#linear-gradient-2"/><linearGradient id="linear-gradient-14" x1="65.05" y1="153.9" x2="68.25" y2="149.64" xlink:href="#linear-gradient"/><linearGradient id="linear-gradient-15" x1="69.94" y1="157.57" x2="73.14" y2="153.31" xlink:href="#linear-gradient"/><linearGradient id="linear-gradient-16" x1="0" y1="31.1" x2="52.1" y2="31.1" xlink:href="#linear-gradient-4"/><linearGradient id="linear-gradient-17" x1="0" y1="41.89" x2="52.1" y2="41.89" xlink:href="#linear-gradient-4"/><linearGradient id="linear-gradient-18" x1="0" y1="28.58" x2="52.1" y2="28.58" xlink:href="#linear-gradient-4"/></defs><title>ICON</title><g id="ICON"><polygon class="cls-1" points="134.87 53.58 125.62 40.14 127.14 40.14 127.38 40.22 135.26 52.59 134.87 53.58"/><polygon class="cls-2" points="178.6 38.6 178.51 38.14 141.04 11.64 141.04 12.64 141.95 13.62 177.87 38.39 178.6 38.6"/><polygon class="cls-3" points="166.8 104 134.16 53.31 124.99 57.91 124.81 57.78 124.85 57.67 134.45 52.32 135.39 52.22 165.95 101.62 166.8 104"/><polygon class="cls-3" points="116.7 112.07 116.65 112.03 116.82 111.79 124.29 110.11 166.39 103.88 166.8 104 166.76 104.01 164.77 104.36 156.29 105.83 116.7 112.07"/><polygon class="cls-3" points="21.12 111.95 20.9 111.78 20.72 111.44 35.42 93.7 35.27 92.56 35.83 92.56 36.12 93.99 21.12 111.95"/><polygon class="cls-3" points="55.51 137.22 55.77 137.54 56.15 137.64 75.84 130.09 87.85 123.97 87.89 123.75 87.67 123.58 55.51 137.22"/><polygon class="cls-4" points="122.32 148.96 131.29 128.9 164.57 104.97 166.8 104 162.48 107.96 133.61 129.21 123.88 147.31 123.55 147.9 122.32 148.96"/><polygon class="cls-3" points="110.04 159.24 111.39 158.34 111.5 158.25 92.31 128.57 90.22 128.57 91.93 131.4 110.04 159.24"/><polygon class="cls-4" points="73.84 151.09 40.44 133.58 40.36 133.85 40.75 134.2 74.5 151.8 74.58 151.47 74.05 151.15 73.84 151.09"/><polygon class="cls-4" points="56.47 137.22 55.6 137.61 74.58 151.47 74.66 151.28 73.95 150.88 56.47 137.22"/><polygon class="cls-4" points="55.19 137.8 56.01 137.42 21.64 110.88 20.9 111.78 55.19 137.8"/><polygon class="cls-5" points="92.31 171.09 91.17 171.85 73.57 151.57 74.58 151.47 74.74 151.1 92.31 169.52 92.31 171.09"/><polygon class="cls-6" points="115.19 129.72 115.37 127.9 91.48 127.52 88.31 122.28 78.78 117 76.97 117 87.14 124.02 90.2 128.92 115.19 129.72"/><polygon class="cls-7" points="115.21 131.98 116.86 116.06 115.21 120.45 114.56 120.23 114.15 121.28 113.53 129.25 115.21 131.98"/><polygon class="cls-7" points="130.06 134.37 132.8 128.9 135.4 127 114.35 126.87 112.29 126.87 111.95 130.16 130.06 134.37"/><polygon class="cls-3" points="41.88 92.56 61.15 105.73 60.2 104.17 43.56 92.56 41.88 92.56"/><polygon class="cls-8" points="105.14 92.56 98.02 92.56 106.03 100.42 106.03 98.21 105.14 92.56"/><polygon class="cls-9" points="93.67 84.79 86.78 76.61 102.89 68.35 104.16 68.44 104.28 68.8 89.74 76.57 94.93 84.79 93.67 84.79"/><polygon class="cls-2" points="166.8 104 165.6 99.73 160 61.92 161.34 61.92 166.42 90.22 166.8 102.53 166.8 104"/><polygon class="cls-2" points="161.89 62.86 160.64 61.94 160.67 61.92 160.68 61.91 162.64 61.84 182.27 61.84 183.22 61.92 183.07 61.96 161.89 62.86"/><polygon class="cls-3" points="160.67 61.92 160.66 61.92 139.56 12.84 141.04 12.64 141.44 13.1 161.63 61.34 160.67 61.92"/><polygon class="cls-2" points="91.17 19.63 91.38 19.47 95.03 18.93 138.57 12.34 141.04 12.15 141.04 12.64 141 12.75 94.13 20.05 91.17 19.63"/><polygon class="cls-4" points="75.65 54.3 79.09 54.3 100.25 48.24 106.64 46.17 110.83 45.02 115.43 44.11 126.25 41.1 127.32 40.44 127.14 40.14 126.23 39.62 75.65 54.3"/><polygon class="cls-4" points="52.58 60.66 52.06 61.88 67.91 57.46 68.86 56.43 52.58 60.66"/><polygon class="cls-4" points="126.04 40.14 89.9 19.68 91.17 19.63 93.06 20.49 127.84 39.62 127.84 40.14 127.14 40.14 126.04 40.14"/><polygon class="cls-10" points="41.96 84.79 42.65 84.79 75.33 9.38 75.33 6.9 75.25 7.01 59.16 44.14 41.96 84.79"/><polygon class="cls-10" points="35.7 84.79 33.78 84.79 27.78 44.83 28.97 43.64 29.13 43.58 35.7 84.79"/><polygon class="cls-11" points="29.1 43.94 28.97 43.64 28.8 43.58 32.2 39.27 50.25 19.04 51.15 18.76 52.1 18.76 52.29 18.86 30.09 43.94 29.1 43.94"/><polygon class="cls-4" points="51.41 18.3 52.1 18.76 52.35 19.14 74.83 7.42 75.33 6.9 75.25 6.9 65.31 11.81 51.41 18.3"/><polygon class="cls-4" points="51.74 19.14 13.65 13.92 13.9 13.51 13.99 13.47 21.32 14.3 52.1 18.4 52.1 18.76 51.76 18.99 51.74 19.14"/><polygon class="cls-4" points="0 71.91 0 72.71 0.22 73.12 28.11 45.21 29.01 43.94 28.97 43.64 28.7 43.58 27.96 44.28 0 71.91"/><polygon class="cls-4" points="28.55 43.98 28.97 43.48 17.42 40.46 1.39 36.42 0.07 36.53 0 36.64 0 36.75 1.88 37.43 28.55 43.98"/><polygon class="cls-12" points="144.82 120.1 166.8 104 132.8 128.9 144.82 120.1"/><polygon class="cls-12" points="87.69 123.6 87.72 123.62 87.72 123.61 87.69 123.6"/><polygon class="cls-12" points="74.59 151.48 91.17 171.85 74.6 151.49 74.59 151.48"/><polygon class="cls-4" points="132.8 128.9 123.06 148.33 138.03 135.4 142.01 132 166.8 104 144.82 120.1 132.8 128.9"/><polygon class="cls-2" points="166.8 104 183.22 61.92 160.67 61.92 166.8 104"/><polygon class="cls-2" points="178.56 38.39 175.64 24.01 162.03 9.62 141.53 0.97 105.56 7.68 91.17 19.63 141.04 12.64 178.56 38.39"/><polygon class="cls-13" points="160.67 61.92 160.67 61.92 141.04 12.64 178.56 38.39 141.04 12.64 91.17 19.63 127.14 40.14 134.87 52.59 166.8 104 160.67 61.92 160.67 61.92"/><polygon class="cls-3" points="160.67 61.92 160.67 61.92 183.22 61.92 178.56 38.39 141.04 12.64 160.67 61.92"/><polygon class="cls-3" points="114.29 128.57 94.33 128.57 91.17 128.57 91.1 128.47 109.37 155.36 111.39 158.34 123.06 148.33 132.8 128.9 114.29 128.57"/><path class="cls-14" d="M104.16,68.43a12.91,12.91,0,0,1-4.5-6.36H74.23L53.41,84.79H94.49l-6.07-8.23Z"/><polygon class="cls-15" points="42.36 84.79 42.86 84.79 68.58 56.73 52.29 61.34 42.36 84.79"/><circle class="cls-16" cx="103.82" cy="113.11" r="4.87"/><path class="cls-17" d="M62.24,92.56l10.14,16.66H91.53a12.92,12.92,0,0,1,12.29-9,13.45,13.45,0,0,1,2.21.2l-5.8-7.86Z"/><polygon class="cls-18" points="53.14 92.56 42.57 92.56 60.59 104.81 53.14 92.56"/><circle class="cls-19" cx="111.94" cy="58.19" r="4.87"/><path class="cls-20" d="M127.14,40.14l-50,14.16h22.5a12.88,12.88,0,0,1,25.15,3.48l10.06-5.19Z"/><line class="cls-12" x1="127.14" y1="40.14" x2="134.87" y2="52.59"/><path class="cls-3" d="M88.31,124.35l2.79,4.12.07.11h23.12l.06-1.71-8.91-1a12.35,12.35,0,0,1-1.62.12,12.8,12.8,0,0,1-4.35-.77l-8-.89Z"/><path class="cls-21" d="M105.44,125.88a12.35,12.35,0,0,1-1.62.12,12.8,12.8,0,0,1-4.35-.77A13,13,0,0,1,91.53,117H78.2l9.49,6.6h0l.07,0h0l.48.7,2.79,4.12.07.11h23.12l.06-1.71.21-6.64A12.92,12.92,0,0,1,105.44,125.88Z"/><polygon class="cls-7" points="109.37 155.36 91.1 128.47 88.31 124.35 87.89 123.74 87.85 123.71 87.8 123.73 55.74 137.54 74.5 151.41 74.55 151.44 74.58 151.47 74.6 151.49 91.17 171.85 110.91 158.66 111.39 158.34 111.39 158.34 109.37 155.36"/><polygon class="cls-22" points="51.03 139.38 40.44 133.94 70.18 158.24 91.17 171.85 74.59 151.48 51.03 139.38"/><polygon class="cls-7" points="74.55 151.44 74.5 151.41 74.58 151.47 74.55 151.44"/><polygon class="cls-23" points="74.55 151.44 74.5 151.41 74.58 151.47 74.55 151.44"/><line class="cls-12" x1="74.6" y1="151.49" x2="74.58" y2="151.47"/><line class="cls-12" x1="55.74" y1="137.54" x2="74.5" y2="151.41"/><polygon class="cls-4" points="74.59 151.48 74.6 151.49 74.58 151.47 74.5 151.41 55.74 137.54 51.34 134.28 20.9 111.78 40.44 133.94 51.03 139.38 74.59 151.48"/><line class="cls-12" x1="74.5" y1="151.41" x2="74.58" y2="151.47"/><line class="cls-12" x1="51.34" y1="134.28" x2="55.74" y2="137.54"/><polygon class="cls-4" points="14.48 40.14 14.48 40.14 0 36.64 0 72.71 28.97 43.64 14.48 40.14"/><polygon class="cls-4" points="14.48 40.14 0 36.64 0 36.64 14.48 40.14 14.48 40.14"/><line class="cls-12" x1="14.48" y1="40.14" y2="36.64"/><polygon class="cls-4" points="52.1 18.76 75.33 6.9 47.92 0 13.9 13.51 18.02 14.08 52.1 18.76"/><polygon class="cls-24" points="0 36.64 0 36.64 6.71 25.56 0 36.64"/><polygon class="cls-4" points="14.48 40.14 14.48 40.14 28.97 43.64 28.97 43.64 14.53 40.16 14.48 40.14"/><polygon class="cls-25" points="14.48 40.14 14.48 40.14 28.97 43.64 28.97 43.64 14.53 40.16 14.48 40.14"/><polygon class="cls-4" points="14.48 40.14 14.53 40.16 52.1 18.76 6.71 25.56 0 36.64 14.48 40.14 14.48 40.14"/><polygon class="cls-26" points="18.02 14.08 13.9 13.51 6.71 25.56 0 36.64 14.48 40.14 14.48 40.14 14.53 40.16 28.97 43.64 52.1 18.76 18.02 14.08"/><line class="cls-12" x1="14.53" y1="40.15" x2="14.48" y2="40.14"/><polygon class="cls-4" points="52.1 18.76 52.1 18.76 18.02 14.08 52.1 18.76"/><polygon class="cls-4" points="91.17 19.63 75.33 6.9 52.29 61.34 68.58 56.73 70.81 54.3 77.16 54.3 127.14 40.14 91.17 19.63"/><path class="cls-7" d="M116.71,113.11s0,.07,0,.1a12.83,12.83,0,0,1-2.14,7l-.21,6.64-.06,1.71,18.51.32,34-24.9-50.15,8C116.68,112.38,116.71,112.74,116.71,113.11Z"/><polygon class="cls-7" points="0 72.71 6.46 84.79 34.5 84.79 28.97 43.64 0 72.71"/><polygon class="cls-7" points="35.69 93.65 35.54 92.56 10.62 92.56 20.9 111.78 35.7 93.76 35.69 93.65"/><polygon class="cls-10" points="75.33 6.9 52.1 18.76 52.1 18.76 28.97 43.64 28.97 43.64 34.5 84.79 42.36 84.79 52.29 61.34 75.33 6.9"/><polygon class="cls-10" points="87.79 123.67 87.72 123.62 87.69 123.6 78.2 117 68.98 117 68 117 61.99 107.12 60.59 104.81 42.57 92.56 35.54 92.56 35.69 93.65 35.7 93.76 20.9 111.78 51.34 134.28 55.74 137.54 87.8 123.73 87.85 123.71 87.79 123.67"/><path class="cls-3" d="M124.81,57.78c0,.13,0,.27,0,.41a12.86,12.86,0,0,1-20.67,10.24L88.42,76.56l6.07,8.23h26.25a12.89,12.89,0,1,1,0,7.77H100.23l5.8,7.86c.26,0,.52.1.78.17A12.88,12.88,0,0,1,116.65,112l50.15-8L134.87,52.59Z"/><path class="cls-3" d="M137.9,88.67A4.87,4.87,0,1,0,133,93.55,4.88,4.88,0,0,0,137.9,88.67Z"/><line class="cls-12" x1="134.87" y1="52.59" x2="166.8" y2="104"/></g></svg>