<svg xmlns="http://www.w3.org/2000/svg" xmlns:xlink="http://www.w3.org/1999/xlink" viewBox="0 0 413.55 130.17"><defs><style>.cls-1{fill:#ff4929;}.cls-2{fill:#ff7e20;}.cls-3{fill:#ff660d;}.cls-4{fill:#ffab00;}.cls-5{fill:url(#linear-gradient);}.cls-6{fill:url(#linear-gradient-2);}.cls-7{fill:#fc7b00;}.cls-8{fill:#ff821b;}.cls-9{fill:url(#linear-gradient-3);}.cls-10{fill:#ff662a;}.cls-11{fill:url(#linear-gradient-4);}.cls-12{fill:none;}.cls-13{fill:url(#linear-gradient-5);}.cls-14{fill:url(#linear-gradient-6);}.cls-15{fill:url(#linear-gradient-7);}.cls-16{fill:url(#linear-gradient-8);}.cls-17{fill:url(#linear-gradient-9);}.cls-18{fill:url(#linear-gradient-10);}.cls-19{fill:url(#linear-gradient-11);}.cls-20{fill:url(#linear-gradient-12);}.cls-21{fill:url(#linear-gradient-13);}.cls-22{fill:url(#linear-gradient-14);}.cls-23{fill:url(#linear-gradient-15);}.cls-24{fill:url(#linear-gradient-16);}.cls-25{fill:url(#linear-gradient-17);}.cls-26{fill:url(#linear-gradient-18);}</style><linearGradient id="linear-gradient" x1="338.32" y1="123.24" x2="340.28" y2="120.62" gradientUnits="userSpaceOnUse"><stop offset="0" stop-color="#ed6002"/><stop offset="0.47" stop-color="#fc7b00"/></linearGradient><linearGradient id="linear-gradient-2" x1="291.43" y1="-11.81" x2="333.73" y2="64.42" gradientUnits="userSpaceOnUse"><stop offset="0" stop-color="#ffab00"/><stop offset="1" stop-color="#ff8925"/></linearGradient><linearGradient id="linear-gradient-3" x1="346.01" y1="50.72" x2="354.7" y2="66.38" xlink:href="#linear-gradient-2"/><linearGradient id="linear-gradient-4" x1="299.83" y1="25.67" x2="317.13" y2="25.67" gradientUnits="userSpaceOnUse"><stop offset="0" stop-color="#ffab00"/><stop offset="0.75" stop-color="#ff7937"/></linearGradient><linearGradient id="linear-gradient-5" x1="345.77" y1="45.53" x2="410.12" y2="45.53" xlink:href="#linear-gradient-4"/><linearGradient id="linear-gradient-6" x1="324.1" y1="36.4" x2="347.34" y2="78.28" xlink:href="#linear-gradient-2"/><linearGradient id="linear-gradient-7" x1="312.8" y1="42.67" x2="336.04" y2="84.54" xlink:href="#linear-gradient-2"/><linearGradient id="linear-gradient-8" x1="326.79" y1="34.9" x2="350.03" y2="76.78" xlink:href="#linear-gradient-2"/><linearGradient id="linear-gradient-9" x1="320.9" y1="38.17" x2="344.14" y2="80.05" xlink:href="#linear-gradient-2"/><linearGradient id="linear-gradient-10" x1="301.89" y1="48.72" x2="325.12" y2="90.6" xlink:href="#linear-gradient-2"/><linearGradient id="linear-gradient-11" x1="348.53" y1="22.84" x2="371.76" y2="64.72" xlink:href="#linear-gradient-2"/><linearGradient id="linear-gradient-12" x1="346.67" y1="23.87" x2="369.91" y2="65.75" xlink:href="#linear-gradient-2"/><linearGradient id="linear-gradient-13" x1="296.59" y1="-5.61" x2="335.99" y2="65.4" xlink:href="#linear-gradient-2"/><linearGradient id="linear-gradient-14" x1="326.53" y1="115.92" x2="328.88" y2="112.78" xlink:href="#linear-gradient"/><linearGradient id="linear-gradient-15" x1="330.13" y1="118.62" x2="332.48" y2="115.48" xlink:href="#linear-gradient"/><linearGradient id="linear-gradient-16" x1="278.63" y1="25.49" x2="316.99" y2="25.49" xlink:href="#linear-gradient-4"/><linearGradient id="linear-gradient-17" x1="278.63" y1="33.44" x2="316.99" y2="33.44" xlink:href="#linear-gradient-4"/><linearGradient id="linear-gradient-18" x1="278.63" y1="23.63" x2="316.99" y2="23.63" xlink:href="#linear-gradient-4"/></defs><title>CONDENSED</title><g id="CONDENSED"><path class="cls-1" d="M23.5,65V5.24a3.55,3.55,0,0,0-3.43-3.43H3.44A3.44,3.44,0,0,0,0,5.24V65Z"/><path class="cls-1" d="M197.07,65h49.8c-6.65-4.93-14.55-8.53-22-11.52-14.65-6-21.34-11.75-21.34-20.25,0-5.78,5.61-12.65,15.91-12.65,9.95,0,23.69,9,25.13,9.94,2.17,1.45,4.88,0,6.33-2.17l6.87-10.3a4.49,4.49,0,0,0-1.08-6C253.1,9.4,239,0,220.56,0c-28.75,0-40.68,18.62-40.68,34.71C179.88,48.73,187.22,58.22,197.07,65Z"/><path class="cls-1" d="M105,65h26.69l40.22-58A3.35,3.35,0,0,0,169,1.81H150.41a3.58,3.58,0,0,0-2.89,1.63L118.59,45,89.67,3.44a3.58,3.58,0,0,0-2.89-1.63H68.34a3.35,3.35,0,0,0-2.9,5.24Z"/><path class="cls-1" d="M207.05,70.75c2.24,1.09,4.53,2.09,6.82,3,15.19,6.15,23,12.48,23,21.7,0,7.77-7.05,13.92-16.45,13.92-11.75,0-26.4-10.67-27.3-11.21a4.19,4.19,0,0,0-6.15,1.26l-6.51,11.21c-1.62,2.89-.72,3.8.91,5.43,3.61,3.43,17,14.1,39.77,14.1,25.49,0,41.58-17.18,41.58-35.8a33.36,33.36,0,0,0-9.33-23.62Z"/><path class="cls-1" d="M106.66,70.75v54.17a3.44,3.44,0,0,0,3.44,3.44h16.63a3.56,3.56,0,0,0,3.44-3.44V70.75Z"/><path class="cls-1" d="M69.6,106.66H23.5V70.75H0v54.17a3.44,3.44,0,0,0,3.44,3.44H69.6A3.44,3.44,0,0,0,73,124.92V110.1A3.44,3.44,0,0,0,69.6,106.66Z"/><polygon class="cls-2" points="377.94 42.05 371.13 32.15 372.25 32.15 372.43 32.2 378.23 41.31 377.94 42.05"/><polygon class="cls-1" points="410.15 31.01 410.08 30.68 382.49 11.16 382.49 11.89 383.16 12.62 409.61 30.86 410.15 31.01"/><polygon class="cls-3" points="401.46 79.18 377.42 41.85 370.67 45.23 370.54 45.13 370.57 45.05 377.64 41.11 378.33 41.05 400.83 77.42 401.46 79.18"/><polygon class="cls-3" points="364.56 85.12 364.53 85.08 364.65 84.91 370.15 83.67 401.16 79.09 401.46 79.18 401.43 79.18 399.97 79.44 393.72 80.52 364.56 85.12"/><polygon class="cls-3" points="294.18 85.02 294.02 84.9 293.88 84.65 304.71 71.59 304.6 70.75 305.01 70.75 305.23 71.8 294.18 85.02"/><polygon class="cls-3" points="319.5 103.64 319.69 103.87 319.98 103.94 334.47 98.38 343.32 93.88 343.35 93.72 343.19 93.59 319.5 103.64"/><polygon class="cls-4" points="368.7 112.28 375.31 97.51 399.82 79.88 401.46 79.18 398.28 82.09 377.02 97.73 369.85 111.07 369.61 111.5 368.7 112.28"/><polygon class="cls-3" points="359.66 119.86 360.66 119.19 360.74 119.12 346.6 97.27 345.07 97.27 346.33 99.35 359.66 119.86"/><polygon class="cls-4" points="333 113.85 308.4 100.95 308.35 101.16 308.64 101.41 333.49 114.38 333.55 114.13 333.15 113.89 333 113.85"/><polygon class="cls-4" points="320.21 103.64 319.57 103.93 333.55 114.13 333.61 113.99 333.09 113.69 320.21 103.64"/><polygon class="cls-4" points="319.27 104.06 319.87 103.78 294.56 84.24 294.02 84.9 319.27 104.06"/><polygon class="cls-5" points="346.6 128.58 345.77 129.14 332.8 114.21 333.55 114.13 333.67 113.86 346.6 127.42 346.6 128.58"/><polygon class="cls-6" points="363.46 98.11 363.59 96.78 345.99 96.49 343.65 92.64 336.64 88.74 335.31 88.74 342.79 93.91 345.05 97.53 363.46 98.11"/><polygon class="cls-7" points="363.47 99.78 364.68 88.05 363.47 91.29 362.99 91.12 362.69 91.9 362.23 97.77 363.47 99.78"/><polygon class="cls-7" points="374.4 101.53 376.42 97.51 378.33 96.11 362.83 96.01 361.32 96.01 361.07 98.44 374.4 101.53"/><polygon class="cls-3" points="309.47 70.75 323.66 80.45 322.96 79.3 310.7 70.75 309.47 70.75"/><polygon class="cls-8" points="356.06 70.75 350.81 70.75 356.7 76.54 356.7 74.91 356.06 70.75"/><polygon class="cls-9" points="347.6 65.03 342.53 59 354.4 52.92 355.33 52.98 355.42 53.25 344.71 58.97 348.54 65.03 347.6 65.03"/><polygon class="cls-1" points="401.46 79.18 400.57 76.03 396.45 48.18 397.44 48.18 401.18 69.03 401.46 78.09 401.46 79.18"/><polygon class="cls-1" points="397.84 48.88 396.92 48.2 396.95 48.18 396.95 48.17 398.39 48.13 412.85 48.13 413.55 48.18 413.44 48.22 397.84 48.88"/><polygon class="cls-3" points="396.95 48.18 396.94 48.18 381.4 12.04 382.49 11.89 382.78 12.23 397.65 47.76 396.95 48.18"/><polygon class="cls-1" points="345.77 17.05 345.92 16.92 348.6 16.53 380.67 11.67 382.49 11.54 382.49 11.89 382.46 11.97 347.94 17.35 345.77 17.05"/><polygon class="cls-4" points="334.34 42.57 336.87 42.57 352.45 38.11 357.16 36.59 360.24 35.74 363.63 35.07 371.6 32.86 372.39 32.37 372.25 32.15 371.58 31.77 334.34 42.57"/><polygon class="cls-4" points="317.34 47.26 316.96 48.16 328.63 44.9 329.33 44.14 317.34 47.26"/><polygon class="cls-4" points="371.44 32.15 344.83 17.08 345.77 17.05 347.16 17.68 372.77 31.77 372.77 32.15 372.25 32.15 371.44 32.15"/><polygon class="cls-10" points="309.53 65.03 310.04 65.03 334.1 9.49 334.1 7.67 334.04 7.75 322.19 35.09 309.53 65.03"/><polygon class="cls-10" points="304.92 65.03 303.5 65.03 299.09 35.6 299.96 34.73 300.08 34.68 304.92 65.03"/><polygon class="cls-11" points="300.06 34.95 299.96 34.73 299.83 34.68 302.34 31.5 315.63 16.61 316.3 16.4 316.99 16.4 317.13 16.48 300.79 34.95 300.06 34.95"/><polygon class="cls-4" points="316.49 16.06 316.99 16.4 317.18 16.68 333.73 8.05 334.1 7.67 334.04 7.67 326.72 11.29 316.49 16.06"/><polygon class="cls-4" points="316.73 16.68 288.68 12.84 288.86 12.54 288.93 12.51 294.32 13.12 316.99 16.14 316.99 16.4 316.75 16.57 316.73 16.68"/><polygon class="cls-4" points="278.63 55.54 278.63 56.13 278.79 56.43 299.32 35.88 299.99 34.95 299.96 34.73 299.76 34.68 299.22 35.19 278.63 55.54"/><polygon class="cls-4" points="299.65 34.97 299.96 34.61 291.45 32.38 279.65 29.41 278.68 29.49 278.63 29.57 278.63 29.65 280.01 30.15 299.65 34.97"/><polygon class="cls-12" points="385.27 91.03 401.46 79.18 376.42 97.51 385.27 91.03"/><polygon class="cls-12" points="343.2 93.6 343.23 93.62 343.22 93.61 343.2 93.6"/><polygon class="cls-12" points="333.55 114.14 345.77 129.14 333.56 114.14 333.55 114.14"/><polygon class="cls-4" points="376.42 97.51 369.25 111.82 380.27 102.3 383.2 99.79 401.46 79.18 385.27 91.03 376.42 97.51"/><polygon class="cls-1" points="401.46 79.18 413.55 48.18 396.95 48.18 401.46 79.18"/><polygon class="cls-1" points="410.12 30.86 407.97 20.27 397.95 9.67 382.85 3.3 356.36 8.24 345.77 17.05 382.49 11.89 410.12 30.86"/><polygon class="cls-13" points="396.95 48.18 396.95 48.18 382.49 11.89 410.12 30.86 382.49 11.89 345.77 17.05 372.25 32.15 377.94 41.31 401.46 79.18 396.95 48.18 396.95 48.18"/><polygon class="cls-3" points="396.95 48.18 396.95 48.18 413.55 48.18 410.12 30.86 382.49 11.89 396.95 48.18"/><polygon class="cls-3" points="362.79 97.27 348.09 97.27 345.77 97.27 345.71 97.19 359.17 117 360.66 119.19 369.25 111.82 376.42 97.51 362.79 97.27"/><path class="cls-14" d="M355.33,53A9.46,9.46,0,0,1,352,48.3H333.29L318,65h30.26l-4.47-6Z"/><polygon class="cls-15" points="309.82 65.03 310.19 65.03 329.13 44.36 317.13 47.76 309.82 65.03"/><circle class="cls-16" cx="355.08" cy="85.88" r="3.59"/><path class="cls-17" d="M324.46,70.75,331.92,83H346a9.51,9.51,0,0,1,9.05-6.63,9.69,9.69,0,0,1,1.63.15l-4.28-5.79Z"/><polygon class="cls-18" points="317.76 70.75 309.98 70.75 323.25 79.77 317.76 70.75"/><circle class="cls-19" cx="361.06" cy="45.43" r="3.59"/><path class="cls-20" d="M372.25,32.15l-36.8,10.42H352a9.48,9.48,0,0,1,18.52,2.56l7.4-3.82Z"/><line class="cls-12" x1="372.25" y1="32.15" x2="377.94" y2="41.31"/><path class="cls-3" d="M343.65,94.16l2.06,3,.06.08h17l0-1.26-6.56-.72a9.26,9.26,0,0,1-1.19.08,9.45,9.45,0,0,1-3.2-.57L346,94.15Z"/><path class="cls-21" d="M356.27,95.29a9.26,9.26,0,0,1-1.19.08A9.56,9.56,0,0,1,346,88.74h-9.82l7,4.86h0l0,0h0l.35.52,2.06,3,.06.08h17l0-1.26.16-4.89A9.53,9.53,0,0,1,356.27,95.29Z"/><polygon class="cls-7" points="359.17 117 345.71 97.19 343.65 94.16 343.35 93.71 343.32 93.69 343.29 93.7 319.67 103.87 333.49 114.08 333.53 114.11 333.55 114.13 333.56 114.14 345.77 129.14 360.3 119.43 360.66 119.19 360.66 119.19 359.17 117"/><polygon class="cls-22" points="316.21 105.23 308.4 101.22 330.31 119.12 345.77 129.14 333.55 114.14 316.21 105.23"/><polygon class="cls-7" points="333.53 114.11 333.49 114.08 333.55 114.13 333.53 114.11"/><polygon class="cls-23" points="333.53 114.11 333.49 114.08 333.55 114.13 333.53 114.11"/><line class="cls-12" x1="333.56" y1="114.14" x2="333.55" y2="114.13"/><line class="cls-12" x1="319.67" y1="103.87" x2="333.49" y2="114.09"/><polygon class="cls-4" points="333.55 114.14 333.56 114.14 333.55 114.13 333.49 114.08 319.67 103.87 316.43 101.47 294.02 84.9 308.4 101.22 316.21 105.23 333.55 114.14"/><line class="cls-12" x1="333.49" y1="114.09" x2="333.55" y2="114.13"/><line class="cls-12" x1="316.43" y1="101.47" x2="319.67" y2="103.87"/><polygon class="cls-4" points="289.29 32.15 289.29 32.15 278.63 29.57 278.63 56.13 299.96 34.73 289.29 32.15"/><polygon class="cls-4" points="289.29 32.15 278.63 29.57 278.63 29.57 289.29 32.15 289.29 32.15"/><line class="cls-12" x1="289.29" y1="32.15" x2="278.63" y2="29.57"/><polygon class="cls-4" points="316.99 16.4 334.1 7.67 313.92 2.59 288.86 12.54 291.89 12.95 316.99 16.4"/><polygon class="cls-24" points="278.63 29.57 278.63 29.57 283.57 21.41 278.63 29.57"/><polygon class="cls-4" points="289.29 32.15 289.29 32.15 299.96 34.73 299.96 34.73 289.33 32.16 289.29 32.15"/><polygon class="cls-25" points="289.29 32.15 289.29 32.15 299.96 34.73 299.96 34.73 289.33 32.16 289.29 32.15"/><polygon class="cls-4" points="289.29 32.15 289.33 32.16 316.99 16.4 283.57 21.41 278.63 29.57 289.29 32.15 289.29 32.15"/><polygon class="cls-26" points="291.89 12.95 288.86 12.54 283.57 21.41 278.63 29.57 289.29 32.15 289.29 32.15 289.33 32.16 299.96 34.73 316.99 16.4 291.89 12.95"/><line class="cls-12" x1="289.33" y1="32.16" x2="289.29" y2="32.15"/><polygon class="cls-4" points="316.99 16.4 316.99 16.4 291.89 12.95 316.99 16.4"/><polygon class="cls-4" points="345.77 17.05 334.1 7.67 317.13 47.76 329.13 44.36 330.77 42.57 335.45 42.57 372.25 32.15 345.77 17.05"/><path class="cls-7" d="M364.57,85.88V86A9.52,9.52,0,0,1,363,91.12L362.83,96l0,1.26,13.63.24,25-18.33-36.93,5.9C364.55,85.35,364.57,85.61,364.57,85.88Z"/><polygon class="cls-7" points="278.63 56.13 283.39 65.03 304.03 65.03 299.96 34.73 278.63 56.13"/><polygon class="cls-7" points="304.91 71.55 304.8 70.75 286.45 70.75 294.02 84.9 304.92 71.63 304.91 71.55"/><polygon class="cls-10" points="334.1 7.67 316.99 16.4 316.99 16.4 299.96 34.73 299.96 34.73 304.03 65.03 309.82 65.03 317.13 47.76 334.1 7.67"/><polygon class="cls-10" points="343.27 93.65 343.23 93.62 343.2 93.6 336.21 88.74 329.43 88.74 328.7 88.74 324.28 81.47 323.25 79.77 309.98 70.75 304.8 70.75 304.91 71.55 304.92 71.63 294.02 84.9 316.43 101.47 319.67 103.87 343.29 93.7 343.32 93.69 343.27 93.65"/><path class="cls-3" d="M370.54,45.13c0,.1,0,.2,0,.3A9.47,9.47,0,0,1,355.33,53l-11.59,6,4.47,6h19.33a9.5,9.5,0,1,1,0,5.73H352.43l4.28,5.79.58.12a9.49,9.49,0,0,1,7.24,8.42l36.93-5.9L377.94,41.31Z"/><path class="cls-3" d="M380.18,67.89a3.59,3.59,0,1,0-3.59,3.59A3.59,3.59,0,0,0,380.18,67.89Z"/><line class="cls-12" x1="377.94" y1="41.31" x2="401.46" y2="79.18"/></g></svg>