<svg xmlns="http://www.w3.org/2000/svg" xmlns:xlink="http://www.w3.org/1999/xlink" viewBox="0 0 1079.36 154.6"><defs><style>.cls-1{fill:#fff;}.cls-2{fill:#ff660d;}.cls-3{fill:#ff4929;}.cls-4{fill:#ff7e20;}.cls-5{fill:#ffab00;}.cls-6{fill:url(#linear-gradient);}.cls-7{fill:url(#linear-gradient-2);}.cls-8{fill:#fc7b00;}.cls-9{fill:#ff821b;}.cls-10{fill:url(#linear-gradient-3);}.cls-11{fill:#ff662a;}.cls-12{fill:url(#linear-gradient-4);}.cls-13{fill:none;}.cls-14{fill:url(#linear-gradient-5);}.cls-15{fill:url(#linear-gradient-6);}.cls-16{fill:url(#linear-gradient-7);}.cls-17{fill:url(#linear-gradient-8);}.cls-18{fill:url(#linear-gradient-9);}.cls-19{fill:url(#linear-gradient-10);}.cls-20{fill:url(#linear-gradient-11);}.cls-21{fill:url(#linear-gradient-12);}.cls-22{fill:url(#linear-gradient-13);}.cls-23{fill:url(#linear-gradient-14);}.cls-24{fill:url(#linear-gradient-15);}.cls-25{fill:url(#linear-gradient-16);}.cls-26{fill:url(#linear-gradient-17);}.cls-27{fill:url(#linear-gradient-18);}</style><linearGradient id="linear-gradient" x1="1018.92" y1="96.92" x2="1020.51" y2="94.81" gradientUnits="userSpaceOnUse"><stop offset="0" stop-color="#ed6002"/><stop offset="0.47" stop-color="#fc7b00"/></linearGradient><linearGradient id="linear-gradient-2" x1="981.26" y1="-11.56" x2="1015.24" y2="49.67" gradientUnits="userSpaceOnUse"><stop offset="0" stop-color="#ffab00"/><stop offset="1" stop-color="#ff8925"/></linearGradient><linearGradient id="linear-gradient-3" x1="1025.1" y1="38.66" x2="1032.08" y2="51.25" xlink:href="#linear-gradient-2"/><linearGradient id="linear-gradient-4" x1="988.01" y1="18.55" x2="1001.91" y2="18.55" gradientUnits="userSpaceOnUse"><stop offset="0" stop-color="#ffab00"/><stop offset="0.75" stop-color="#ff7937"/></linearGradient><linearGradient id="linear-gradient-5" x1="1024.91" y1="34.5" x2="1076.6" y2="34.5" xlink:href="#linear-gradient-4"/><linearGradient id="linear-gradient-6" x1="1007.5" y1="27.16" x2="1026.17" y2="60.8" xlink:href="#linear-gradient-2"/><linearGradient id="linear-gradient-7" x1="998.43" y1="32.2" x2="1017.1" y2="65.83" xlink:href="#linear-gradient-2"/><linearGradient id="linear-gradient-8" x1="1009.67" y1="25.96" x2="1028.33" y2="59.6" xlink:href="#linear-gradient-2"/><linearGradient id="linear-gradient-9" x1="1004.93" y1="28.59" x2="1023.6" y2="62.23" xlink:href="#linear-gradient-2"/><linearGradient id="linear-gradient-10" x1="989.66" y1="37.06" x2="1008.33" y2="70.7" xlink:href="#linear-gradient-2"/><linearGradient id="linear-gradient-11" x1="1027.13" y1="16.27" x2="1045.79" y2="49.91" xlink:href="#linear-gradient-2"/><linearGradient id="linear-gradient-12" x1="1025.63" y1="17.1" x2="1044.3" y2="50.74" xlink:href="#linear-gradient-2"/><linearGradient id="linear-gradient-13" x1="985.4" y1="-6.58" x2="1017.05" y2="50.46" xlink:href="#linear-gradient-2"/><linearGradient id="linear-gradient-14" x1="1009.46" y1="91.04" x2="1011.35" y2="88.52" xlink:href="#linear-gradient"/><linearGradient id="linear-gradient-15" x1="1012.35" y1="93.21" x2="1014.24" y2="90.69" xlink:href="#linear-gradient"/><linearGradient id="linear-gradient-16" x1="970.98" y1="18.4" x2="1001.8" y2="18.4" xlink:href="#linear-gradient-4"/><linearGradient id="linear-gradient-17" x1="970.98" y1="24.78" x2="1001.8" y2="24.78" xlink:href="#linear-gradient-4"/><linearGradient id="linear-gradient-18" x1="970.98" y1="16.9" x2="1001.8" y2="16.9" xlink:href="#linear-gradient-4"/></defs><title>LONG NON TRANS</title><g id="LONG_NON_TRANS" data-name="LONG NON TRANS"><path class="cls-1" d="M979.57,59.08l-5.32-10L995,48.69,1009.06,29l11.69.94,17.38-6.12,12,6.33-.46,9.34,13.06,13-3.14,10.45L1047.47,71s-15.61,8.33-16.14,8.28-37-12.67-37-12.67Z"/><path class="cls-2" d="M0,58a2.66,2.66,0,0,1,2.66-2.66H19.3A2.75,2.75,0,0,1,22,58v74.66H55.23a2.66,2.66,0,0,1,2.66,2.66v15.24a2.66,2.66,0,0,1-2.66,2.66H2.66A2.66,2.66,0,0,1,0,150.55Z"/><path class="cls-2" d="M114,53.93a50.34,50.34,0,1,1-50.2,50.48A50.25,50.25,0,0,1,114,53.93Zm0,78.3a28,28,0,1,0-27.82-27.82A28,28,0,0,0,114,132.23Z"/><path class="cls-2" d="M167.78,59a2.47,2.47,0,0,1,2.37-3.64h18.6a2.75,2.75,0,0,1,2.38,1.54l23.07,51H215l23.07-51a2.75,2.75,0,0,1,2.38-1.54h18.59A2.47,2.47,0,0,1,261.46,59l-43.91,94.1a2.66,2.66,0,0,1-2.37,1.53h-1.4a2.68,2.68,0,0,1-2.38-1.53Z"/><path class="cls-2" d="M272.92,58a2.66,2.66,0,0,1,2.66-2.66h57.88A2.66,2.66,0,0,1,336.12,58V73.23a2.65,2.65,0,0,1-2.66,2.65H294.73V93.22h31.88a2.75,2.75,0,0,1,2.66,2.66v15.24a2.66,2.66,0,0,1-2.66,2.66H294.73v18.87h38.73a2.66,2.66,0,0,1,2.66,2.66v15.24a2.66,2.66,0,0,1-2.66,2.66H275.58a2.66,2.66,0,0,1-2.66-2.66Z"/><path class="cls-3" d="M0,58a2.66,2.66,0,0,1,2.66-2.66H19.3A2.75,2.75,0,0,1,22,58v74.66H55.23a2.66,2.66,0,0,1,2.66,2.66v15.24a2.66,2.66,0,0,1-2.66,2.66H2.66A2.66,2.66,0,0,1,0,150.55Z"/><path class="cls-3" d="M114,53.93a50.34,50.34,0,1,1-50.2,50.48A50.25,50.25,0,0,1,114,53.93Zm0,78.3a28,28,0,1,0-27.82-27.82A28,28,0,0,0,114,132.23Z"/><path class="cls-3" d="M167.78,59a2.47,2.47,0,0,1,2.37-3.64h18.6a2.75,2.75,0,0,1,2.38,1.54l23.07,51H215l23.07-51a2.75,2.75,0,0,1,2.38-1.54h18.59A2.47,2.47,0,0,1,261.46,59l-43.91,94.1a2.66,2.66,0,0,1-2.37,1.53h-1.4a2.68,2.68,0,0,1-2.38-1.53Z"/><path class="cls-3" d="M272.92,58a2.66,2.66,0,0,1,2.66-2.66h57.88A2.66,2.66,0,0,1,336.12,58V73.23a2.65,2.65,0,0,1-2.66,2.65H294.73V93.22h31.88a2.75,2.75,0,0,1,2.66,2.66v15.24a2.66,2.66,0,0,1-2.66,2.66H294.73v18.87h38.73a2.66,2.66,0,0,1,2.66,2.66v15.24a2.66,2.66,0,0,1-2.66,2.66H275.58a2.66,2.66,0,0,1-2.66-2.66Z"/><path d="M372.3,59.69h12l23.77,41.65,24-41.65h12.16l-31,53.12v40.12H402.78V112.81Z"/><path d="M541.59,106.38c0,26.7-22,48.22-48.93,48.22-13.28,0-26.84-6.15-36.07-16.35a47.74,47.74,0,0,1-12-32.43c0-25.72,22.37-47.67,48.65-47.67A48.54,48.54,0,0,1,541.59,106.38Zm-86.53-.56c0,11.46,4.05,21,11.88,28.37a38.46,38.46,0,1,0-11.88-28.37Z"/><path d="M569.12,116.86c0,9.65.7,13.84,3.08,17.89,3.63,5.88,11.6,10.07,19.71,10.07s15.93-4.19,19.57-10.07c2.37-4.05,3.07-8.24,3.07-17.89V59.69H625v60c0,10.06-1.68,16.35-6.15,22.08a34.36,34.36,0,0,1-27,12.86c-10.77,0-21.11-4.89-27.12-12.86-4.47-5.73-6.15-11.88-6.15-22.08v-60h10.48Z"/><path d="M701.36,152.93H688.64l-28.1-40.82h-2.66v40.82H647.4V59.69h15.1c10.62,0,16.91,1.39,22.36,5,6.43,4.33,10.35,12.3,10.35,21.11,0,14.12-9.23,24.18-23.49,25.44Zm-36.91-50.05c13.15,0,20.55-6.15,20.55-17,0-5.73-2.51-10.77-6.85-13.42-3.35-2.1-7.54-3.08-14.11-3.08h-6.16v33.55Z"/><path d="M785.15,78c-4.75-7.55-8.8-10.07-16.07-10.07-8.67,0-15.38,6.16-15.38,14.4q0,6.09,5.87,10.07c3.36,2.23,3.36,2.23,16.08,7.83,15.1,6.57,21.11,14,21.11,25.72,0,16.07-12.86,28.65-29.64,28.65-14.68,0-25.16-8.8-28.65-24l10.06-2.8c1.12,4.76,2,7,3.77,9.51a18.57,18.57,0,0,0,15.24,7.55,18.38,18.38,0,0,0,18.73-18.31c0-5.74-2.51-10.07-7.69-13.28-3.49-2.24-3.49-2.24-16.49-8.11-13.42-6-18.87-12.72-18.87-22.93,0-13.7,11.18-24,26.14-24,10.48,0,18.45,4.89,24,14.54Z"/><path d="M824.57,152.93H814.09V59.69h10.48Z"/><path d="M869.44,152.93H859V69.33H836.45V59.69h55.64v9.64H869.44Z"/><path d="M914.45,69.33V97.15h36.77v9.65H914.45v36.48H952.2v9.65H904V59.69H952.2v9.64Z"/><polygon class="cls-4" points="1050.76 31.7 1045.29 23.75 1046.18 23.75 1046.33 23.79 1050.99 31.11 1050.76 31.7"/><polygon class="cls-3" points="1076.62 22.83 1076.57 22.56 1054.41 6.89 1054.41 7.47 1054.94 8.06 1076.19 22.71 1076.62 22.83"/><polygon class="cls-2" points="1069.64 61.52 1050.34 31.54 1044.91 34.26 1044.81 34.18 1044.83 34.11 1050.51 30.95 1051.07 30.89 1069.14 60.11 1069.64 61.52"/><polygon class="cls-2" points="1040.01 66.29 1039.98 66.27 1040.08 66.13 1044.5 65.13 1069.4 61.45 1069.64 61.52 1069.62 61.53 1068.45 61.73 1063.43 62.6 1040.01 66.29"/><polygon class="cls-2" points="983.47 66.22 983.34 66.12 983.23 65.92 991.93 55.43 991.84 54.75 992.17 54.75 992.35 55.6 983.47 66.22"/><polygon class="cls-2" points="1003.81 81.17 1003.96 81.36 1004.19 81.42 1015.84 76.95 1022.95 73.33 1022.97 73.21 1022.84 73.11 1003.81 81.17"/><polygon class="cls-5" points="1043.34 88.11 1048.64 76.25 1068.33 62.09 1069.64 61.52 1067.09 63.86 1050.01 76.43 1044.25 87.14 1044.06 87.49 1043.34 88.11"/><polygon class="cls-2" points="1036.07 94.2 1036.87 93.66 1036.93 93.61 1025.58 76.06 1024.35 76.06 1025.36 77.73 1036.07 94.2"/><polygon class="cls-5" points="1014.66 89.38 994.9 79.02 994.85 79.18 995.08 79.39 1015.04 89.8 1015.09 89.6 1014.78 89.41 1014.66 89.38"/><polygon class="cls-5" points="1004.38 81.17 1003.87 81.4 1015.09 89.6 1015.14 89.49 1014.72 89.25 1004.38 81.17"/><polygon class="cls-5" points="1003.63 81.52 1004.11 81.29 983.78 65.59 983.34 66.12 1003.63 81.52"/><polygon class="cls-6" points="1025.58 101.21 1024.91 101.66 1014.5 89.66 1015.09 89.6 1015.19 89.38 1025.58 100.28 1025.58 101.21"/><polygon class="cls-7" points="1039.12 76.73 1039.22 75.66 1025.09 75.43 1023.21 72.33 1017.58 69.21 1016.51 69.21 1022.52 73.36 1024.33 76.26 1039.12 76.73"/><polygon class="cls-8" points="1039.13 78.07 1040.11 68.65 1039.13 71.25 1038.74 71.12 1038.5 71.74 1038.13 76.46 1039.13 78.07"/><polygon class="cls-8" points="1047.91 79.48 1049.53 76.25 1051.07 75.13 1038.62 75.05 1037.4 75.05 1037.2 77 1047.91 79.48"/><polygon class="cls-2" points="995.75 54.75 1007.15 62.54 1006.59 61.62 996.75 54.75 995.75 54.75"/><polygon class="cls-9" points="1033.17 54.75 1028.96 54.75 1033.7 59.41 1033.7 58.09 1033.17 54.75"/><polygon class="cls-10" points="1026.38 50.16 1022.31 45.32 1031.84 40.43 1032.59 40.48 1032.66 40.7 1024.06 45.29 1027.13 50.16 1026.38 50.16"/><polygon class="cls-3" points="1069.64 61.52 1068.93 59 1065.62 36.63 1066.41 36.63 1069.42 53.37 1069.64 60.65 1069.64 61.52"/><polygon class="cls-3" points="1066.74 37.18 1066 36.64 1066.02 36.63 1066.02 36.62 1067.18 36.58 1078.8 36.58 1079.36 36.63 1079.27 36.65 1066.74 37.18"/><polygon class="cls-2" points="1066.02 36.63 1066.02 36.63 1053.53 7.6 1054.41 7.47 1054.64 7.75 1066.59 36.29 1066.02 36.63"/><polygon class="cls-3" points="1024.91 11.62 1025.03 11.52 1027.19 11.2 1052.94 7.3 1054.41 7.19 1054.41 7.47 1054.38 7.54 1026.66 11.86 1024.91 11.62"/><polygon class="cls-5" points="1015.73 32.12 1017.76 32.12 1030.28 28.54 1034.06 27.31 1036.54 26.63 1039.26 26.09 1045.66 24.32 1046.29 23.92 1046.18 23.75 1045.64 23.44 1015.73 32.12"/><polygon class="cls-5" points="1002.08 35.89 1001.77 36.61 1011.15 33.99 1011.71 33.38 1002.08 35.89"/><polygon class="cls-5" points="1045.54 23.75 1024.16 11.64 1024.91 11.62 1026.03 12.12 1046.6 23.44 1046.6 23.75 1046.18 23.75 1045.54 23.75"/><polygon class="cls-11" points="995.8 50.16 996.21 50.16 1015.54 5.55 1015.54 4.08 1015.49 4.15 1005.97 26.11 995.8 50.16"/><polygon class="cls-11" points="992.1 50.16 990.96 50.16 987.41 26.52 988.11 25.82 988.21 25.78 992.1 50.16"/><polygon class="cls-12" points="988.19 25.99 988.11 25.82 988.01 25.78 990.03 23.23 1000.7 11.26 1001.24 11.1 1001.8 11.1 1001.91 11.16 988.78 25.99 988.19 25.99"/><polygon class="cls-5" points="1001.39 10.82 1001.8 11.1 1001.94 11.32 1015.24 4.39 1015.54 4.08 1015.49 4.08 1009.61 6.99 1001.39 10.82"/><polygon class="cls-5" points="1001.59 11.32 979.05 8.24 979.2 7.99 979.25 7.97 983.59 8.46 1001.8 10.88 1001.8 11.1 1001.6 11.24 1001.59 11.32"/><polygon class="cls-5" points="970.98 42.54 970.98 43.01 971.11 43.25 987.6 26.74 988.14 25.99 988.11 25.82 987.95 25.78 987.52 26.19 970.98 42.54"/><polygon class="cls-5" points="987.86 26.02 988.11 25.72 981.28 23.93 971.8 21.55 971.02 21.61 970.98 21.68 970.98 21.74 972.09 22.14 987.86 26.02"/><polygon class="cls-13" points="1056.64 71.04 1069.64 61.52 1049.53 76.25 1056.64 71.04"/><polygon class="cls-13" points="1022.85 73.11 1022.87 73.13 1022.86 73.12 1022.85 73.11"/><polygon class="cls-13" points="1015.1 89.61 1024.91 101.66 1015.11 89.61 1015.1 89.61"/><polygon class="cls-5" points="1049.53 76.25 1043.77 87.74 1052.62 80.09 1054.98 78.08 1069.64 61.52 1056.64 71.04 1049.53 76.25"/><polygon class="cls-3" points="1069.64 61.52 1079.36 36.63 1066.02 36.63 1069.64 61.52"/><polygon class="cls-3" points="1076.6 22.71 1074.88 14.2 1066.83 5.69 1054.69 0.57 1033.42 4.54 1024.91 11.62 1054.41 7.47 1076.6 22.71"/><polygon class="cls-14" points="1066.02 36.63 1066.02 36.63 1054.41 7.47 1076.6 22.71 1054.41 7.47 1024.91 11.62 1046.18 23.75 1050.76 31.11 1069.64 61.52 1066.02 36.63 1066.02 36.63"/><polygon class="cls-2" points="1066.02 36.63 1066.02 36.63 1079.36 36.63 1076.6 22.71 1054.41 7.47 1066.02 36.63"/><polygon class="cls-2" points="1038.59 76.06 1026.78 76.06 1024.91 76.06 1024.87 76 1035.67 91.9 1036.87 93.66 1043.77 87.74 1049.53 76.25 1038.59 76.06"/><path class="cls-15" d="M1032.59,40.48a7.69,7.69,0,0,1-2.66-3.76h-15l-12.32,13.44h24.3l-3.59-4.87Z"/><polygon class="cls-16" points="996.04 50.16 996.33 50.16 1011.54 33.56 1001.91 36.29 996.04 50.16"/><circle class="cls-17" cx="1032.39" cy="66.91" r="2.88"/><path class="cls-18" d="M1007.79,54.75l6,9.86h11.33a7.65,7.65,0,0,1,7.27-5.33,8.08,8.08,0,0,1,1.31.12l-3.44-4.65Z"/><polygon class="cls-19" points="1002.41 54.75 996.16 54.75 1006.82 62 1002.41 54.75"/><circle class="cls-20" cx="1037.2" cy="34.42" r="2.88"/><path class="cls-21" d="M1046.18,23.75l-29.56,8.37h13.31a7.62,7.62,0,0,1,14.88,2.06l6-3.07Z"/><line class="cls-13" x1="1046.18" y1="23.75" x2="1050.76" y2="31.11"/><path class="cls-2" d="M1023.21,73.56l1.66,2.44,0,.06h13.67l0-1-5.27-.59a7.29,7.29,0,0,1-3.53-.38l-4.75-.53Z"/><path class="cls-22" d="M1033.35,74.46a7.61,7.61,0,0,1-8.23-5.25h-7.88l5.61,3.9h0l0,0h0l.28.42,1.66,2.44,0,.06h13.67l0-1,.12-3.93A7.61,7.61,0,0,1,1033.35,74.46Z"/><polygon class="cls-8" points="1035.67 91.9 1024.87 76 1023.21 73.56 1022.97 73.19 1022.95 73.18 1022.92 73.19 1003.95 81.36 1015.04 89.56 1015.08 89.58 1015.09 89.6 1015.11 89.61 1024.91 101.66 1036.58 93.86 1036.87 93.66 1036.87 93.66 1035.67 91.9"/><polygon class="cls-23" points="1001.16 82.45 994.9 79.23 1012.49 93.61 1024.91 101.66 1015.1 89.61 1001.16 82.45"/><polygon class="cls-8" points="1015.08 89.58 1015.04 89.56 1015.09 89.6 1015.08 89.58"/><polygon class="cls-24" points="1015.08 89.58 1015.04 89.56 1015.09 89.6 1015.08 89.58"/><line class="cls-13" x1="1015.11" y1="89.61" x2="1015.09" y2="89.6"/><line class="cls-13" x1="1003.95" y1="81.36" x2="1015.05" y2="89.56"/><polygon class="cls-5" points="1015.1 89.61 1015.11 89.61 1015.09 89.6 1015.04 89.56 1003.95 81.36 1001.34 79.43 983.34 66.12 994.9 79.23 1001.16 82.45 1015.1 89.61"/><line class="cls-13" x1="1015.05" y1="89.56" x2="1015.09" y2="89.6"/><line class="cls-13" x1="1001.34" y1="79.43" x2="1003.95" y2="81.36"/><polygon class="cls-5" points="979.54 23.75 979.54 23.75 970.98 21.68 970.98 43.01 988.11 25.82 979.54 23.75"/><polygon class="cls-5" points="979.54 23.75 970.98 21.68 970.98 21.68 979.54 23.75 979.54 23.75"/><line class="cls-13" x1="979.54" y1="23.75" x2="970.98" y2="21.68"/><polygon class="cls-5" points="1001.8 11.1 1015.54 4.08 999.32 0 979.2 7.99 981.63 8.33 1001.8 11.1"/><polygon class="cls-25" points="970.98 21.68 970.98 21.68 974.95 15.12 970.98 21.68"/><polygon class="cls-5" points="979.54 23.75 979.54 23.75 988.11 25.82 988.11 25.82 979.57 23.75 979.54 23.75"/><polygon class="cls-26" points="979.54 23.75 979.54 23.75 988.11 25.82 988.11 25.82 979.57 23.75 979.54 23.75"/><polygon class="cls-5" points="979.54 23.75 979.57 23.75 1001.8 11.1 974.95 15.12 970.98 21.68 979.54 23.75 979.54 23.75"/><polygon class="cls-27" points="981.63 8.33 979.2 7.99 974.95 15.12 970.98 21.68 979.54 23.75 979.54 23.75 979.57 23.75 988.11 25.82 1001.8 11.1 981.63 8.33"/><line class="cls-13" x1="979.57" y1="23.75" x2="979.54" y2="23.75"/><polygon class="cls-5" points="1001.8 11.1 1001.8 11.1 981.63 8.33 1001.8 11.1"/><polygon class="cls-5" points="1024.91 11.62 1015.54 4.08 1001.91 36.29 1011.54 33.56 1012.86 32.12 1016.62 32.12 1046.18 23.75 1024.91 11.62"/><path class="cls-8" d="M1040,66.91V67a7.58,7.58,0,0,1-1.27,4.15l-.12,3.93,0,1,11,.19,20.11-14.73L1040,66.27C1040,66.48,1040,66.69,1040,66.91Z"/><polygon class="cls-8" points="970.98 43.01 974.8 50.16 991.38 50.16 988.11 25.82 970.98 43.01"/><polygon class="cls-8" points="992.09 55.4 992 54.75 977.26 54.75 983.34 66.12 992.1 55.46 992.09 55.4"/><polygon class="cls-11" points="1015.54 4.08 1001.8 11.1 1001.8 11.1 988.11 25.82 988.11 25.82 991.38 50.16 996.04 50.16 1001.91 36.29 1015.54 4.08"/><polygon class="cls-11" points="1022.91 73.15 1022.87 73.13 1022.85 73.11 1017.24 69.21 1011.78 69.21 1011.2 69.21 1007.65 63.37 1006.82 62 996.16 54.75 992 54.75 992.09 55.4 992.1 55.46 983.34 66.12 1001.34 79.43 1003.95 81.36 1022.92 73.19 1022.95 73.18 1022.91 73.15"/><path class="cls-2" d="M1044.81,34.18c0,.08,0,.16,0,.24a7.61,7.61,0,0,1-12.23,6.06l-9.31,4.81,3.59,4.87h15.53a7.63,7.63,0,1,1,0,4.59h-12.14l3.44,4.65.46.1a7.62,7.62,0,0,1,5.82,6.77l29.66-4.75-18.88-30.41Z"/><path class="cls-2" d="M1052.55,52.45a2.88,2.88,0,1,0-2.88,2.89A2.89,2.89,0,0,0,1052.55,52.45Z"/><line class="cls-13" x1="1050.76" y1="31.11" x2="1069.64" y2="61.52"/></g></svg>