<svg xmlns="http://www.w3.org/2000/svg" xmlns:xlink="http://www.w3.org/1999/xlink" viewBox="0 0 413.55 182.79"><defs><style>.cls-1{fill:#ff7e20;}.cls-2{fill:#ff4929;}.cls-3{fill:#ff660d;}.cls-4{fill:#ffab00;}.cls-5{fill:url(#linear-gradient);}.cls-6{fill:url(#linear-gradient-2);}.cls-7{fill:#fc7b00;}.cls-8{fill:#ff821b;}.cls-9{fill:url(#linear-gradient-3);}.cls-10{fill:#ff662a;}.cls-11{fill:url(#linear-gradient-4);}.cls-12{fill:none;}.cls-13{fill:url(#linear-gradient-5);}.cls-14{fill:url(#linear-gradient-6);}.cls-15{fill:url(#linear-gradient-7);}.cls-16{fill:url(#linear-gradient-8);}.cls-17{fill:url(#linear-gradient-9);}.cls-18{fill:url(#linear-gradient-10);}.cls-19{fill:url(#linear-gradient-11);}.cls-20{fill:url(#linear-gradient-12);}.cls-21{fill:url(#linear-gradient-13);}.cls-22{fill:url(#linear-gradient-14);}.cls-23{fill:url(#linear-gradient-15);}.cls-24{fill:url(#linear-gradient-16);}.cls-25{fill:url(#linear-gradient-17);}.cls-26{fill:url(#linear-gradient-18);}.cls-27{font-size:29.25px;font-family:Futura-Boo, Futura;letter-spacing:0em;}.cls-28{letter-spacing:0.02em;}.cls-29{letter-spacing:0.04em;}.cls-30{letter-spacing:0.06em;}.cls-31{letter-spacing:0em;}.cls-32{letter-spacing:0.04em;}.cls-33{letter-spacing:0.04em;}.cls-34{letter-spacing:0.04em;}</style><linearGradient id="linear-gradient" x1="338.32" y1="124.59" x2="340.28" y2="121.97" gradientUnits="userSpaceOnUse"><stop offset="0" stop-color="#ed6002"/><stop offset="0.47" stop-color="#fc7b00"/></linearGradient><linearGradient id="linear-gradient-2" x1="291.43" y1="-10.46" x2="333.73" y2="65.78" gradientUnits="userSpaceOnUse"><stop offset="0" stop-color="#ffab00"/><stop offset="1" stop-color="#ff8925"/></linearGradient><linearGradient id="linear-gradient-3" x1="346.01" y1="52.07" x2="354.7" y2="67.73" xlink:href="#linear-gradient-2"/><linearGradient id="linear-gradient-4" x1="299.83" y1="27.03" x2="317.13" y2="27.03" gradientUnits="userSpaceOnUse"><stop offset="0" stop-color="#ffab00"/><stop offset="0.75" stop-color="#ff7937"/></linearGradient><linearGradient id="linear-gradient-5" x1="345.77" y1="46.89" x2="410.12" y2="46.89" xlink:href="#linear-gradient-4"/><linearGradient id="linear-gradient-6" x1="324.1" y1="37.75" x2="347.34" y2="79.63" xlink:href="#linear-gradient-2"/><linearGradient id="linear-gradient-7" x1="312.8" y1="44.02" x2="336.04" y2="85.9" xlink:href="#linear-gradient-2"/><linearGradient id="linear-gradient-8" x1="326.79" y1="36.26" x2="350.03" y2="78.13" xlink:href="#linear-gradient-2"/><linearGradient id="linear-gradient-9" x1="320.9" y1="39.53" x2="344.14" y2="81.4" xlink:href="#linear-gradient-2"/><linearGradient id="linear-gradient-10" x1="301.89" y1="50.08" x2="325.12" y2="91.95" xlink:href="#linear-gradient-2"/><linearGradient id="linear-gradient-11" x1="348.53" y1="24.2" x2="371.76" y2="66.07" xlink:href="#linear-gradient-2"/><linearGradient id="linear-gradient-12" x1="346.67" y1="25.23" x2="369.91" y2="67.11" xlink:href="#linear-gradient-2"/><linearGradient id="linear-gradient-13" x1="296.59" y1="-4.25" x2="335.99" y2="66.75" xlink:href="#linear-gradient-2"/><linearGradient id="linear-gradient-14" x1="326.53" y1="117.27" x2="328.88" y2="114.14" xlink:href="#linear-gradient"/><linearGradient id="linear-gradient-15" x1="330.13" y1="119.97" x2="332.48" y2="116.84" xlink:href="#linear-gradient"/><linearGradient id="linear-gradient-16" x1="278.63" y1="26.84" x2="316.99" y2="26.84" xlink:href="#linear-gradient-4"/><linearGradient id="linear-gradient-17" x1="278.63" y1="34.79" x2="316.99" y2="34.79" xlink:href="#linear-gradient-4"/><linearGradient id="linear-gradient-18" x1="278.63" y1="24.98" x2="316.99" y2="24.98" xlink:href="#linear-gradient-4"/></defs><title>ADDRESS</title><g id="ICON"><polygon class="cls-1" points="377.94 43.4 371.13 33.5 372.25 33.5 372.43 33.55 378.23 42.66 377.94 43.4"/><polygon class="cls-2" points="410.15 32.36 410.08 32.03 382.49 12.51 382.49 13.24 383.16 13.97 409.61 32.21 410.15 32.36"/><polygon class="cls-3" points="401.46 80.53 377.42 43.2 370.67 46.58 370.54 46.49 370.57 46.41 377.64 42.47 378.33 42.4 400.83 78.78 401.46 80.53"/><polygon class="cls-3" points="364.56 86.47 364.53 86.44 364.65 86.26 370.15 85.02 401.16 80.44 401.46 80.53 401.43 80.54 399.97 80.79 393.72 81.88 364.56 86.47"/><polygon class="cls-3" points="294.18 86.38 294.02 86.25 293.88 86.01 304.71 72.94 304.6 72.1 305.01 72.1 305.23 73.16 294.18 86.38"/><polygon class="cls-3" points="319.5 104.99 319.69 105.22 319.98 105.3 334.47 99.74 343.32 95.23 343.35 95.07 343.19 94.95 319.5 104.99"/><polygon class="cls-4" points="368.7 113.63 375.31 98.86 399.82 81.24 401.46 80.53 398.28 83.44 377.02 99.09 369.85 112.42 369.61 112.86 368.7 113.63"/><polygon class="cls-3" points="359.66 121.21 360.66 120.54 360.74 120.47 346.6 98.62 345.07 98.62 346.33 100.7 359.66 121.21"/><polygon class="cls-4" points="333 115.21 308.4 102.31 308.35 102.51 308.64 102.77 333.49 115.73 333.55 115.48 333.15 115.25 333 115.21"/><polygon class="cls-4" points="320.21 104.99 319.57 105.28 333.55 115.48 333.61 115.34 333.09 115.05 320.21 104.99"/><polygon class="cls-4" points="319.27 105.42 319.87 105.14 294.56 85.59 294.02 86.25 319.27 105.42"/><polygon class="cls-5" points="346.6 129.93 345.77 130.49 332.8 115.56 333.55 115.48 333.67 115.21 346.6 128.77 346.6 129.93"/><polygon class="cls-6" points="363.46 99.47 363.59 98.13 345.99 97.84 343.65 93.99 336.64 90.1 335.31 90.1 342.79 95.27 345.05 98.88 363.46 99.47"/><polygon class="cls-7" points="363.47 101.13 364.68 89.41 363.47 92.64 362.99 92.47 362.69 93.25 362.23 99.12 363.47 101.13"/><polygon class="cls-7" points="374.4 102.89 376.42 98.86 378.33 97.46 362.83 97.36 361.32 97.36 361.07 99.79 374.4 102.89"/><polygon class="cls-3" points="309.47 72.1 323.66 81.8 322.96 80.65 310.7 72.1 309.47 72.1"/><polygon class="cls-8" points="356.06 72.1 350.81 72.1 356.7 77.89 356.7 76.26 356.06 72.1"/><polygon class="cls-9" points="347.6 66.38 342.53 60.36 354.4 54.27 355.33 54.34 355.42 54.61 344.71 60.33 348.54 66.38 347.6 66.38"/><polygon class="cls-2" points="401.46 80.53 400.57 77.38 396.45 49.53 397.44 49.53 401.18 70.38 401.46 79.44 401.46 80.53"/><polygon class="cls-2" points="397.84 50.23 396.92 49.55 396.95 49.54 396.95 49.53 398.39 49.48 412.85 49.48 413.55 49.53 413.44 49.57 397.84 50.23"/><polygon class="cls-3" points="396.95 49.54 396.94 49.54 381.4 13.4 382.49 13.24 382.78 13.58 397.65 49.11 396.95 49.54"/><polygon class="cls-2" points="345.77 18.4 345.92 18.27 348.6 17.88 380.67 13.03 382.49 12.89 382.49 13.24 382.46 13.33 347.94 18.7 345.77 18.4"/><polygon class="cls-4" points="334.34 43.92 336.87 43.92 352.45 39.46 357.16 37.94 360.24 37.09 363.63 36.42 371.6 34.21 372.39 33.72 372.25 33.5 371.58 33.12 334.34 43.92"/><polygon class="cls-4" points="317.34 48.61 316.96 49.51 328.63 46.26 329.33 45.49 317.34 48.61"/><polygon class="cls-4" points="371.44 33.5 344.83 18.43 345.77 18.4 347.16 19.03 372.77 33.12 372.77 33.5 372.25 33.5 371.44 33.5"/><polygon class="cls-10" points="309.53 66.38 310.04 66.38 334.1 10.85 334.1 9.02 334.04 9.1 322.19 36.45 309.53 66.38"/><polygon class="cls-10" points="304.92 66.38 303.5 66.38 299.09 36.95 299.96 36.08 300.08 36.03 304.92 66.38"/><polygon class="cls-11" points="300.06 36.3 299.96 36.08 299.83 36.03 302.34 32.86 315.63 17.96 316.3 17.75 316.99 17.75 317.13 17.83 300.79 36.3 300.06 36.3"/><polygon class="cls-4" points="316.49 17.41 316.99 17.75 317.18 18.04 333.73 9.4 334.1 9.02 334.04 9.02 326.72 12.64 316.49 17.41"/><polygon class="cls-4" points="316.73 18.04 288.68 14.19 288.86 13.89 288.93 13.86 294.32 14.47 316.99 17.49 316.99 17.75 316.75 17.93 316.73 18.04"/><polygon class="cls-4" points="278.63 56.9 278.63 57.48 278.79 57.78 299.32 37.23 299.99 36.3 299.96 36.08 299.76 36.03 299.22 36.55 278.63 56.9"/><polygon class="cls-4" points="299.65 36.33 299.96 35.96 291.45 33.73 279.65 30.76 278.68 30.84 278.63 30.92 278.63 31 280.01 31.5 299.65 36.33"/><polygon class="cls-12" points="385.27 92.38 401.46 80.53 376.42 98.86 385.27 92.38"/><polygon class="cls-12" points="343.2 94.96 343.23 94.97 343.22 94.97 343.2 94.96"/><polygon class="cls-12" points="333.55 115.49 345.77 130.49 333.56 115.5 333.55 115.49"/><polygon class="cls-4" points="376.42 98.86 369.25 113.17 380.27 103.65 383.2 101.14 401.46 80.53 385.27 92.38 376.42 98.86"/><polygon class="cls-2" points="401.46 80.53 413.55 49.53 396.95 49.53 401.46 80.53"/><polygon class="cls-2" points="410.12 32.21 407.97 21.62 397.95 11.03 382.85 4.66 356.36 9.59 345.77 18.4 382.49 13.24 410.12 32.21"/><polygon class="cls-13" points="396.95 49.53 396.95 49.53 382.49 13.24 410.12 32.21 382.49 13.24 345.77 18.4 372.25 33.5 377.94 42.66 401.46 80.53 396.95 49.53 396.95 49.53"/><polygon class="cls-3" points="396.95 49.53 396.95 49.53 413.55 49.53 410.12 32.21 382.49 13.24 396.95 49.53"/><polygon class="cls-3" points="362.79 98.62 348.09 98.62 345.77 98.62 345.71 98.55 359.17 118.35 360.66 120.54 369.25 113.17 376.42 98.86 362.79 98.62"/><path class="cls-14" d="M355.33,54.34A9.49,9.49,0,0,1,352,49.65H333.29L318,66.38h30.26l-4.47-6.06Z"/><polygon class="cls-15" points="309.82 66.38 310.19 66.38 329.13 45.71 317.13 49.11 309.82 66.38"/><circle class="cls-16" cx="355.08" cy="87.23" r="3.59"/><path class="cls-17" d="M324.46,72.1l7.46,12.27H346a9.51,9.51,0,0,1,9.05-6.63,9.69,9.69,0,0,1,1.63.15l-4.28-5.79Z"/><polygon class="cls-18" points="317.76 72.1 309.98 72.1 323.25 81.13 317.76 72.1"/><circle class="cls-19" cx="361.06" cy="46.79" r="3.59"/><path class="cls-20" d="M372.25,33.5l-36.8,10.43H352a9.48,9.48,0,0,1,18.52,2.56l7.4-3.83Z"/><line class="cls-12" x1="372.25" y1="33.5" x2="377.94" y2="42.66"/><path class="cls-3" d="M343.65,95.51l2.06,3,.06.07h17l0-1.26-6.56-.72a9.26,9.26,0,0,1-1.19.08,9.44,9.44,0,0,1-3.2-.56L346,95.5Z"/><path class="cls-21" d="M356.27,96.64a9.26,9.26,0,0,1-1.19.08,9.44,9.44,0,0,1-3.2-.56A9.57,9.57,0,0,1,346,90.1h-9.82l7,4.86h0l0,0,0,0,.35.52,2.06,3,.06.07h17l0-1.26.16-4.89A9.5,9.5,0,0,1,356.27,96.64Z"/><polygon class="cls-7" points="359.17 118.35 345.71 98.55 343.65 95.51 343.35 95.06 343.32 95.04 343.29 95.06 319.67 105.22 333.49 115.44 333.53 115.46 333.55 115.48 333.56 115.5 345.77 130.49 360.3 120.78 360.66 120.54 360.66 120.54 359.17 118.35"/><polygon class="cls-22" points="316.21 106.58 308.4 102.58 330.31 120.47 345.77 130.49 333.55 115.49 316.21 106.58"/><polygon class="cls-7" points="333.53 115.46 333.49 115.44 333.55 115.48 333.53 115.46"/><polygon class="cls-23" points="333.53 115.46 333.49 115.44 333.55 115.48 333.53 115.46"/><line class="cls-12" x1="333.56" y1="115.49" x2="333.55" y2="115.48"/><line class="cls-12" x1="319.67" y1="105.22" x2="333.49" y2="115.44"/><polygon class="cls-4" points="333.55 115.49 333.56 115.5 333.55 115.48 333.49 115.44 319.67 105.22 316.43 102.83 294.02 86.25 308.4 102.58 316.21 106.58 333.55 115.49"/><line class="cls-12" x1="333.49" y1="115.44" x2="333.55" y2="115.48"/><line class="cls-12" x1="316.43" y1="102.83" x2="319.67" y2="105.22"/><polygon class="cls-4" points="289.29 33.5 289.29 33.5 278.63 30.93 278.63 57.48 299.96 36.08 289.29 33.5"/><polygon class="cls-4" points="289.29 33.5 278.63 30.92 278.63 30.93 289.29 33.5 289.29 33.5"/><line class="cls-12" x1="289.29" y1="33.5" x2="278.63" y2="30.92"/><polygon class="cls-4" points="316.99 17.75 334.1 9.02 313.92 3.94 288.86 13.89 291.89 14.3 316.99 17.75"/><polygon class="cls-24" points="278.63 30.92 278.63 30.92 283.57 22.77 278.63 30.92"/><polygon class="cls-4" points="289.29 33.5 289.29 33.5 299.96 36.08 299.96 36.08 289.33 33.51 289.29 33.5"/><polygon class="cls-25" points="289.29 33.5 289.29 33.5 299.96 36.08 299.96 36.08 289.33 33.51 289.29 33.5"/><polygon class="cls-4" points="289.29 33.5 289.33 33.51 316.99 17.75 283.57 22.77 278.63 30.92 289.29 33.5 289.29 33.5"/><polygon class="cls-26" points="291.89 14.3 288.86 13.89 283.57 22.77 278.63 30.92 289.29 33.5 289.29 33.5 289.33 33.51 299.96 36.08 316.99 17.75 291.89 14.3"/><line class="cls-12" x1="289.33" y1="33.51" x2="289.29" y2="33.5"/><polygon class="cls-4" points="316.99 17.75 316.99 17.75 291.89 14.3 316.99 17.75"/><polygon class="cls-4" points="345.77 18.4 334.1 9.02 317.13 49.11 329.13 45.71 330.77 43.92 335.45 43.92 372.25 33.5 345.77 18.4"/><path class="cls-7" d="M364.57,87.23v.08A9.49,9.49,0,0,1,363,92.47l-.16,4.89,0,1.26,13.63.24,25-18.33-36.93,5.91C364.55,86.7,364.57,87,364.57,87.23Z"/><polygon class="cls-7" points="278.63 57.48 283.39 66.38 304.03 66.38 299.96 36.08 278.63 57.48"/><polygon class="cls-7" points="304.91 72.91 304.8 72.1 286.45 72.1 294.02 86.25 304.92 72.98 304.91 72.91"/><polygon class="cls-10" points="334.1 9.02 316.99 17.75 316.99 17.75 299.96 36.08 299.96 36.08 304.03 66.38 309.82 66.38 317.13 49.11 334.1 9.02"/><polygon class="cls-10" points="343.27 95.01 343.23 94.97 343.2 94.96 336.21 90.1 329.43 90.1 328.7 90.1 324.28 82.82 323.25 81.13 309.98 72.1 304.8 72.1 304.91 72.91 304.92 72.98 294.02 86.25 316.43 102.83 319.67 105.22 343.29 95.06 343.32 95.04 343.27 95.01"/><path class="cls-3" d="M370.54,46.49c0,.1,0,.2,0,.3a9.48,9.48,0,0,1-15.22,7.55l-11.59,6,4.47,6.06h19.33a9.49,9.49,0,1,1,0,5.72H352.43l4.28,5.79.58.12a9.49,9.49,0,0,1,7.24,8.43l36.93-5.91L377.94,42.66Z"/><path class="cls-3" d="M380.18,69.24a3.59,3.59,0,1,0-3.59,3.59A3.59,3.59,0,0,0,380.18,69.24Z"/><line class="cls-12" x1="377.94" y1="42.66" x2="401.46" y2="80.53"/></g><g id="ADDRESS_N_TRANS" data-name="ADDRESS N/TRANS"><text class="cls-27" transform="translate(106.89 176.01)">L<tspan class="cls-28" x="10.09" y="0">O</tspan><tspan class="cls-29" x="33.37" y="0">V</tspan><tspan class="cls-30" x="50.39" y="0">E</tspan><tspan class="cls-31" x="65.81" y="0">Y</tspan><tspan class="cls-32" x="80.87" y="0">OUR.S</tspan><tspan class="cls-33" x="163.73" y="0">I</tspan><tspan class="cls-34" x="171.71" y="0">T</tspan><tspan class="cls-32" x="184.88" y="0">E</tspan></text><path class="cls-2" d="M23.5,66.38V6.6a3.55,3.55,0,0,0-3.43-3.44H3.44A3.44,3.44,0,0,0,0,6.6V66.38Z"/><path class="cls-2" d="M197.07,66.38h49.8c-6.65-4.93-14.55-8.53-22-11.51-14.65-6-21.34-11.76-21.34-20.25,0-5.79,5.61-12.66,15.91-12.66,9.95,0,23.69,9,25.13,10,2.17,1.44,4.88,0,6.33-2.17l6.87-10.31a4.47,4.47,0,0,0-1.08-6C253.1,10.75,239,1.35,220.56,1.35c-28.75,0-40.68,18.62-40.68,34.71C179.88,50.08,187.22,59.57,197.07,66.38Z"/><path class="cls-2" d="M105,66.38h26.69l40.22-58A3.35,3.35,0,0,0,169,3.16H150.41a3.58,3.58,0,0,0-2.89,1.63L118.59,46.37,89.67,4.79a3.58,3.58,0,0,0-2.89-1.63H68.34a3.35,3.35,0,0,0-2.9,5.24Z"/><path class="cls-2" d="M207.05,72.1c2.24,1.09,4.53,2.09,6.82,3,15.19,6.15,23,12.48,23,21.7,0,7.77-7.05,13.92-16.45,13.92-11.75,0-26.4-10.67-27.3-11.21a4.18,4.18,0,0,0-6.15,1.27L180.42,112c-1.62,2.9-.72,3.8.91,5.43,3.61,3.43,17,14.1,39.77,14.1,25.49,0,41.58-17.18,41.58-35.8a33.36,33.36,0,0,0-9.33-23.62Z"/><path class="cls-2" d="M106.66,72.1v54.18a3.44,3.44,0,0,0,3.44,3.43h16.63a3.56,3.56,0,0,0,3.44-3.43V72.1Z"/><path class="cls-2" d="M69.6,108H23.5V72.1H0v54.18a3.44,3.44,0,0,0,3.44,3.43H69.6A3.44,3.44,0,0,0,73,126.28V111.45A3.43,3.43,0,0,0,69.6,108Z"/></g></svg>