<svg xmlns="http://www.w3.org/2000/svg" xmlns:xlink="http://www.w3.org/1999/xlink" viewBox="0 0 336.12 169.93"><defs><style>.cls-1{fill:#ff660d;}.cls-2{fill:#ff4929;}.cls-3{fill:#ff7e20;}.cls-4{fill:#ffab00;}.cls-5{fill:url(#linear-gradient);}.cls-6{fill:url(#linear-gradient-2);}.cls-7{fill:#fc7b00;}.cls-8{fill:#ff821b;}.cls-9{fill:url(#linear-gradient-3);}.cls-10{fill:#ff662a;}.cls-11{fill:url(#linear-gradient-4);}.cls-12{fill:none;}.cls-13{fill:url(#linear-gradient-5);}.cls-14{fill:url(#linear-gradient-6);}.cls-15{fill:url(#linear-gradient-7);}.cls-16{fill:url(#linear-gradient-8);}.cls-17{fill:url(#linear-gradient-9);}.cls-18{fill:url(#linear-gradient-10);}.cls-19{fill:url(#linear-gradient-11);}.cls-20{fill:url(#linear-gradient-12);}.cls-21{fill:url(#linear-gradient-13);}.cls-22{fill:url(#linear-gradient-14);}.cls-23{fill:url(#linear-gradient-15);}.cls-24{fill:url(#linear-gradient-16);}.cls-25{fill:url(#linear-gradient-17);}.cls-26{fill:url(#linear-gradient-18);}</style><linearGradient id="linear-gradient" x1="105.5" y1="93.48" x2="106.97" y2="91.52" gradientUnits="userSpaceOnUse"><stop offset="0" stop-color="#ed6002"/><stop offset="0.47" stop-color="#fc7b00"/></linearGradient><linearGradient id="linear-gradient-2" x1="70.51" y1="-7.28" x2="102.07" y2="49.59" gradientUnits="userSpaceOnUse"><stop offset="0" stop-color="#ffab00"/><stop offset="1" stop-color="#ff8925"/></linearGradient><linearGradient id="linear-gradient-3" x1="111.24" y1="39.37" x2="117.72" y2="51.05" xlink:href="#linear-gradient-2"/><linearGradient id="linear-gradient-4" x1="76.79" y1="20.68" x2="89.69" y2="20.68" gradientUnits="userSpaceOnUse"><stop offset="0" stop-color="#ffab00"/><stop offset="0.75" stop-color="#ff7937"/></linearGradient><linearGradient id="linear-gradient-5" x1="111.06" y1="35.5" x2="159.07" y2="35.5" xlink:href="#linear-gradient-4"/><linearGradient id="linear-gradient-6" x1="94.89" y1="28.68" x2="112.23" y2="59.93" xlink:href="#linear-gradient-2"/><linearGradient id="linear-gradient-7" x1="86.46" y1="33.36" x2="103.8" y2="64.6" xlink:href="#linear-gradient-2"/><linearGradient id="linear-gradient-8" x1="96.9" y1="27.57" x2="114.24" y2="58.81" xlink:href="#linear-gradient-2"/><linearGradient id="linear-gradient-9" x1="92.5" y1="30.01" x2="109.84" y2="61.25" xlink:href="#linear-gradient-2"/><linearGradient id="linear-gradient-10" x1="78.32" y1="37.88" x2="95.66" y2="69.12" xlink:href="#linear-gradient-2"/><linearGradient id="linear-gradient-11" x1="113.12" y1="18.57" x2="130.45" y2="49.82" xlink:href="#linear-gradient-2"/><linearGradient id="linear-gradient-12" x1="111.73" y1="19.34" x2="129.07" y2="50.59" xlink:href="#linear-gradient-2"/><linearGradient id="linear-gradient-13" x1="74.36" y1="-2.65" x2="103.76" y2="50.32" xlink:href="#linear-gradient-2"/><linearGradient id="linear-gradient-14" x1="96.71" y1="88.01" x2="98.46" y2="85.67" xlink:href="#linear-gradient"/><linearGradient id="linear-gradient-15" x1="99.39" y1="90.03" x2="101.15" y2="87.69" xlink:href="#linear-gradient"/><linearGradient id="linear-gradient-16" x1="60.97" y1="20.55" x2="89.59" y2="20.55" xlink:href="#linear-gradient-4"/><linearGradient id="linear-gradient-17" x1="60.97" y1="26.48" x2="89.59" y2="26.48" xlink:href="#linear-gradient-4"/><linearGradient id="linear-gradient-18" x1="60.97" y1="19.16" x2="89.59" y2="19.16" xlink:href="#linear-gradient-4"/></defs><title>SHORT</title><g id="SHORT"><path class="cls-1" d="M0,2.66A2.66,2.66,0,0,1,2.66,0H19.3A2.75,2.75,0,0,1,22,2.66V77.32H55.23A2.66,2.66,0,0,1,57.89,80V95.22a2.66,2.66,0,0,1-2.66,2.66H2.66A2.66,2.66,0,0,1,0,95.22Z"/><path class="cls-1" d="M167.78,3.64A2.47,2.47,0,0,1,170.15,0h18.6a2.75,2.75,0,0,1,2.38,1.54l23.07,51H215l23.07-51A2.75,2.75,0,0,1,240.49,0h18.59a2.47,2.47,0,0,1,2.38,3.64l-43.91,94.1a2.66,2.66,0,0,1-2.37,1.53h-1.4a2.68,2.68,0,0,1-2.38-1.53Z"/><path class="cls-1" d="M272.92,2.66A2.66,2.66,0,0,1,275.58,0h57.88a2.66,2.66,0,0,1,2.66,2.66V17.9a2.65,2.65,0,0,1-2.66,2.65H294.73V37.89h31.88a2.75,2.75,0,0,1,2.66,2.66V55.79a2.66,2.66,0,0,1-2.66,2.66H294.73V77.32h38.73A2.66,2.66,0,0,1,336.12,80V95.22a2.66,2.66,0,0,1-2.66,2.66H275.58a2.66,2.66,0,0,1-2.66-2.66Z"/><path class="cls-2" d="M0,2.66A2.66,2.66,0,0,1,2.66,0H19.3A2.75,2.75,0,0,1,22,2.66V77.32H55.23A2.66,2.66,0,0,1,57.89,80V95.22a2.66,2.66,0,0,1-2.66,2.66H2.66A2.66,2.66,0,0,1,0,95.22Z"/><path class="cls-2" d="M167.78,3.64A2.47,2.47,0,0,1,170.15,0h18.6a2.75,2.75,0,0,1,2.38,1.54l23.07,51H215l23.07-51A2.75,2.75,0,0,1,240.49,0h18.59a2.47,2.47,0,0,1,2.38,3.64l-43.91,94.1a2.66,2.66,0,0,1-2.37,1.53h-1.4a2.68,2.68,0,0,1-2.38-1.53Z"/><path class="cls-2" d="M272.92,2.66A2.66,2.66,0,0,1,275.58,0h57.88a2.66,2.66,0,0,1,2.66,2.66V17.9a2.65,2.65,0,0,1-2.66,2.65H294.73V37.89h31.88a2.75,2.75,0,0,1,2.66,2.66V55.79a2.66,2.66,0,0,1-2.66,2.66H294.73V77.32h38.73A2.66,2.66,0,0,1,336.12,80V95.22a2.66,2.66,0,0,1-2.66,2.66H275.58a2.66,2.66,0,0,1-2.66-2.66Z"/><path d="M1.54,115.16H8.48l13.71,24,13.87-24h7L25.17,145.81V169H19.12V145.81Z"/><path d="M99.21,142.1A28,28,0,0,1,71,169.93a28.66,28.66,0,0,1-20.8-9.44,27.5,27.5,0,0,1-6.94-18.71c0-14.84,12.9-27.5,28.07-27.5A28,28,0,0,1,99.21,142.1Zm-49.92-.32a21.67,21.67,0,0,0,6.85,16.37,21.85,21.85,0,0,0,37-16.05,21.94,21.94,0,1,0-43.87-.32Z"/><path d="M115.1,148.15c0,5.57.4,8,1.77,10.32,2.1,3.39,6.7,5.81,11.38,5.81s9.19-2.42,11.29-5.81c1.37-2.33,1.77-4.75,1.77-10.32v-33h6.05v34.6c0,5.81-1,9.44-3.55,12.75a20.12,20.12,0,0,1-31.21,0c-2.58-3.31-3.55-6.86-3.55-12.75v-34.6h6Z"/><path d="M191.4,169h-7.34l-16.22-23.55h-1.53V169h-6.05v-53.8H169c6.13,0,9.76.81,12.91,2.91a14.54,14.54,0,0,1,6,12.18c0,8.14-5.33,13.95-13.55,14.67Zm-21.3-28.87c7.58,0,11.86-3.55,11.86-9.84a8.88,8.88,0,0,0-4-7.75c-1.94-1.21-4.36-1.77-8.15-1.77h-3.55v19.36Z"/><path d="M239.74,125.73c-2.74-4.36-5.08-5.81-9.27-5.81-5,0-8.87,3.55-8.87,8.31A6.82,6.82,0,0,0,225,134c1.94,1.29,1.94,1.29,9.28,4.51,8.71,3.79,12.18,8.07,12.18,14.84,0,9.28-7.42,16.54-17.1,16.54-8.47,0-14.52-5.08-16.54-13.88l5.81-1.61a13.7,13.7,0,0,0,2.18,5.49,10.89,10.89,0,0,0,19.6-6.21,8.52,8.52,0,0,0-4.44-7.67c-2-1.29-2-1.29-9.52-4.67-7.74-3.47-10.88-7.34-10.88-13.23,0-7.91,6.45-13.87,15.08-13.87,6.05,0,10.64,2.82,13.87,8.38Z"/><path d="M262.49,169h-6.05v-53.8h6.05Z"/><path d="M288.37,169h-6.05V120.73h-13v-5.57h32.1v5.57H288.37Z"/><path d="M314.34,120.73v16h21.21v5.56H314.34v21h21.78V169H308.29v-53.8h27.83v5.57Z"/><polygon class="cls-3" points="135.06 32.9 129.98 25.51 130.82 25.51 130.95 25.55 135.28 32.35 135.06 32.9"/><polygon class="cls-2" points="159.09 24.66 159.04 24.41 138.45 9.85 138.45 10.4 138.95 10.94 158.69 24.55 159.09 24.66"/><polygon class="cls-1" points="152.6 60.6 134.67 32.75 129.63 35.27 129.54 35.2 129.56 35.14 134.84 32.2 135.35 32.15 152.14 59.29 152.6 60.6"/><polygon class="cls-1" points="125.08 65.03 125.06 65.01 125.15 64.88 129.25 63.95 152.38 60.53 152.6 60.6 152.58 60.6 151.49 60.79 146.84 61.6 125.08 65.03"/><polygon class="cls-1" points="72.57 64.96 72.45 64.87 72.35 64.69 80.43 54.94 80.34 54.31 80.65 54.31 80.81 55.1 72.57 64.96"/><polygon class="cls-1" points="91.46 78.85 91.6 79.02 91.81 79.08 102.63 74.93 109.23 71.57 109.25 71.45 109.13 71.36 91.46 78.85"/><polygon class="cls-4" points="128.17 85.3 133.1 74.28 151.38 61.13 152.6 60.6 150.23 62.77 134.37 74.45 129.02 84.39 128.84 84.72 128.17 85.3"/><polygon class="cls-1" points="121.42 90.95 122.17 90.45 122.22 90.4 111.68 74.1 110.53 74.1 111.47 75.65 121.42 90.95"/><polygon class="cls-4" points="101.54 86.47 83.18 76.85 83.14 77 83.36 77.19 101.89 86.86 101.94 86.68 101.65 86.5 101.54 86.47"/><polygon class="cls-4" points="91.99 78.85 91.51 79.06 101.94 86.68 101.99 86.58 101.6 86.35 91.99 78.85"/><polygon class="cls-4" points="91.29 79.17 91.74 78.96 72.85 64.38 72.45 64.87 91.29 79.17"/><polygon class="cls-5" points="111.68 97.46 111.06 97.88 101.38 86.74 101.94 86.68 102.03 86.47 111.68 96.59 111.68 97.46"/><polygon class="cls-6" points="124.25 74.73 124.35 73.73 111.22 73.52 109.48 70.64 104.25 67.74 103.26 67.74 108.84 71.6 110.52 74.29 124.25 74.73"/><polygon class="cls-7" points="124.26 75.97 125.17 67.22 124.26 69.64 123.9 69.51 123.68 70.09 123.34 74.47 124.26 75.97"/><polygon class="cls-7" points="132.42 77.28 133.93 74.28 135.35 73.23 123.79 73.16 122.66 73.16 122.47 74.97 132.42 77.28"/><polygon class="cls-1" points="83.97 54.31 94.56 61.55 94.04 60.69 84.9 54.31 83.97 54.31"/><polygon class="cls-8" points="118.73 54.31 114.82 54.31 119.22 58.63 119.22 57.42 118.73 54.31"/><polygon class="cls-9" points="112.43 50.04 108.64 45.55 117.5 41.01 118.19 41.06 118.26 41.26 110.27 45.53 113.12 50.04 112.43 50.04"/><polygon class="cls-2" points="152.6 60.6 151.95 58.25 148.87 37.48 149.61 37.48 152.4 53.03 152.6 59.79 152.6 60.6"/><polygon class="cls-2" points="149.91 37.99 149.22 37.49 149.24 37.48 149.24 37.47 150.32 37.44 161.11 37.44 161.63 37.48 161.55 37.5 149.91 37.99"/><polygon class="cls-1" points="149.24 37.48 149.24 37.48 137.64 10.52 138.45 10.4 138.67 10.65 149.77 37.16 149.24 37.48"/><polygon class="cls-2" points="111.06 14.25 111.17 14.15 113.17 13.86 137.1 10.24 138.45 10.14 138.45 10.4 138.43 10.46 112.68 14.47 111.06 14.25"/><polygon class="cls-4" points="102.53 33.29 104.42 33.29 116.04 29.96 119.56 28.83 121.86 28.19 124.38 27.69 130.33 26.04 130.92 25.68 130.82 25.51 130.32 25.23 102.53 33.29"/><polygon class="cls-4" points="89.85 36.79 89.57 37.46 98.27 35.03 98.8 34.46 89.85 36.79"/><polygon class="cls-4" points="130.22 25.51 110.36 14.27 111.06 14.25 112.09 14.72 131.2 25.23 131.2 25.51 130.82 25.51 130.22 25.51"/><polygon class="cls-10" points="84.02 50.04 84.4 50.04 102.35 8.61 102.35 7.25 102.31 7.31 93.47 27.71 84.02 50.04"/><polygon class="cls-10" points="80.58 50.04 79.53 50.04 76.23 28.09 76.88 27.44 76.97 27.4 80.58 50.04"/><polygon class="cls-11" points="76.95 27.6 76.88 27.44 76.79 27.4 78.66 25.03 88.58 13.92 89.07 13.77 89.59 13.77 89.69 13.82 77.5 27.6 76.95 27.6"/><polygon class="cls-4" points="89.21 13.51 89.59 13.77 89.73 13.98 102.08 7.53 102.35 7.25 102.31 7.25 96.85 9.95 89.21 13.51"/><polygon class="cls-4" points="89.39 13.98 68.47 11.11 68.6 10.88 68.65 10.86 72.68 11.32 89.59 13.57 89.59 13.77 89.41 13.89 89.39 13.98"/><polygon class="cls-4" points="60.97 42.97 60.97 43.4 61.09 43.63 76.41 28.3 76.9 27.6 76.88 27.44 76.73 27.4 76.33 27.79 60.97 42.97"/><polygon class="cls-4" points="76.65 27.62 76.88 27.35 70.54 25.69 61.73 23.47 61 23.53 60.97 23.59 60.97 23.65 62 24.02 76.65 27.62"/><polygon class="cls-12" points="140.53 69.44 152.6 60.6 133.93 74.28 140.53 69.44"/><polygon class="cls-12" points="109.14 71.36 109.16 71.38 109.16 71.37 109.14 71.36"/><polygon class="cls-12" points="101.94 86.68 111.06 97.88 101.95 86.69 101.94 86.68"/><polygon class="cls-4" points="133.93 74.28 128.57 84.95 136.8 77.85 138.99 75.98 152.6 60.6 140.53 69.44 133.93 74.28"/><polygon class="cls-2" points="152.6 60.6 161.63 37.48 149.24 37.48 152.6 60.6"/><polygon class="cls-2" points="159.07 24.55 157.47 16.65 149.99 8.75 138.72 3.99 118.96 7.68 111.06 14.25 138.45 10.4 159.07 24.55"/><polygon class="cls-13" points="149.24 37.48 149.24 37.48 138.45 10.4 159.07 24.55 138.45 10.4 111.06 14.25 130.82 25.51 135.06 32.35 152.6 60.6 149.24 37.48 149.24 37.48"/><polygon class="cls-1" points="149.24 37.48 149.24 37.48 161.63 37.48 159.07 24.55 138.45 10.4 149.24 37.48"/><polygon class="cls-1" points="123.76 74.1 112.79 74.1 111.06 74.1 111.02 74.04 121.06 88.82 122.17 90.45 128.57 84.95 133.93 74.28 123.76 74.1"/><path class="cls-14" d="M118.19,41.06a7.14,7.14,0,0,1-2.47-3.5h-14L90.31,50h22.57l-3.34-4.52Z"/><polygon class="cls-15" points="84.24 50.04 84.51 50.04 98.64 34.63 89.69 37.16 84.24 50.04"/><circle class="cls-16" cx="118.01" cy="65.6" r="2.68"/><path class="cls-17" d="M95.16,54.31l5.57,9.16h10.53A7.08,7.08,0,0,1,118,58.52a7,7,0,0,1,1.21.11L116,54.31Z"/><polygon class="cls-18" points="90.16 54.31 84.35 54.31 94.26 61.05 90.16 54.31"/><circle class="cls-19" cx="122.47" cy="35.43" r="2.68"/><path class="cls-20" d="M130.82,25.51l-27.46,7.78h12.36a7.08,7.08,0,0,1,13.82,1.91l5.52-2.85Z"/><line class="cls-12" x1="130.82" y1="25.51" x2="135.06" y2="32.35"/><path class="cls-1" d="M109.48,71.78,111,74l0,.06h12.7l0-.94-4.89-.54a6.65,6.65,0,0,1-.89.06,7,7,0,0,1-2.39-.42l-4.41-.49Z"/><path class="cls-21" d="M118.9,72.62a6.65,6.65,0,0,1-.89.06,7,7,0,0,1-2.39-.42,7.1,7.1,0,0,1-4.36-4.52h-7.33l5.21,3.62h0l0,0h0l.26.39L111,74l0,.06h12.7l0-.94.11-3.65A7,7,0,0,1,118.9,72.62Z"/><polygon class="cls-7" points="121.06 88.82 111.02 74.04 109.48 71.78 109.25 71.44 109.23 71.43 109.2 71.44 91.59 79.02 101.89 86.64 101.93 86.66 101.94 86.68 101.95 86.69 111.06 97.88 121.9 90.63 122.17 90.45 122.17 90.45 121.06 88.82"/><polygon class="cls-22" points="89 80.04 83.18 77.05 99.52 90.4 111.06 97.88 101.94 86.68 89 80.04"/><polygon class="cls-7" points="101.93 86.66 101.89 86.64 101.94 86.68 101.93 86.66"/><polygon class="cls-23" points="101.93 86.66 101.89 86.64 101.94 86.68 101.93 86.66"/><line class="cls-12" x1="101.95" y1="86.69" x2="101.94" y2="86.68"/><line class="cls-12" x1="91.59" y1="79.02" x2="101.9" y2="86.65"/><polygon class="cls-4" points="101.94 86.68 101.95 86.69 101.94 86.68 101.89 86.64 91.59 79.02 89.17 77.24 72.45 64.87 83.18 77.05 89 80.04 101.94 86.68"/><line class="cls-12" x1="101.9" y1="86.65" x2="101.94" y2="86.68"/><line class="cls-12" x1="89.17" y1="77.24" x2="91.59" y2="79.02"/><polygon class="cls-4" points="68.92 25.51 68.92 25.51 60.97 23.59 60.97 43.4 76.88 27.44 68.92 25.51"/><polygon class="cls-4" points="68.92 25.51 60.97 23.59 60.97 23.59 68.92 25.51 68.92 25.51"/><line class="cls-12" x1="68.92" y1="25.51" x2="60.97" y2="23.59"/><polygon class="cls-4" points="89.59 13.77 102.35 7.25 87.29 3.46 68.6 10.88 70.86 11.19 89.59 13.77"/><polygon class="cls-24" points="60.97 23.59 60.97 23.59 64.65 17.5 60.97 23.59"/><polygon class="cls-4" points="68.92 25.51 68.92 25.51 76.88 27.44 76.88 27.44 68.95 25.52 68.92 25.51"/><polygon class="cls-25" points="68.92 25.51 68.92 25.51 76.88 27.44 76.88 27.44 68.95 25.52 68.92 25.51"/><polygon class="cls-4" points="68.92 25.51 68.95 25.52 89.59 13.77 64.65 17.5 60.97 23.59 68.92 25.51 68.92 25.51"/><polygon class="cls-26" points="70.86 11.19 68.6 10.88 64.65 17.5 60.97 23.59 68.92 25.51 68.92 25.51 68.95 25.52 76.88 27.44 89.59 13.77 70.86 11.19"/><line class="cls-12" x1="68.95" y1="25.52" x2="68.92" y2="25.51"/><polygon class="cls-4" points="89.59 13.77 89.59 13.77 70.86 11.19 89.59 13.77"/><polygon class="cls-4" points="111.06 14.25 102.35 7.25 89.69 37.16 98.64 34.63 99.87 33.29 103.36 33.29 130.82 25.51 111.06 14.25"/><path class="cls-7" d="M125.09,65.6s0,0,0,.06a7,7,0,0,1-1.18,3.85l-.11,3.65,0,.94,10.17.18L152.61,60.6,125.06,65C125.07,65.2,125.09,65.4,125.09,65.6Z"/><polygon class="cls-7" points="60.97 43.4 64.52 50.04 79.92 50.04 76.88 27.44 60.97 43.4"/><polygon class="cls-7" points="80.57 54.91 80.49 54.31 66.8 54.31 72.45 64.87 80.58 54.97 80.57 54.91"/><polygon class="cls-10" points="102.35 7.25 89.59 13.77 89.59 13.77 76.88 27.44 76.88 27.44 79.92 50.04 84.24 50.04 89.69 37.16 102.35 7.25"/><polygon class="cls-10" points="109.2 71.4 109.16 71.38 109.14 71.36 103.93 67.74 98.87 67.74 98.33 67.74 95.03 62.31 94.26 61.05 84.35 54.31 80.49 54.31 80.57 54.91 80.58 54.97 72.45 64.87 89.17 77.24 91.59 79.02 109.2 71.44 109.23 71.43 109.2 71.4"/><path class="cls-1" d="M129.54,35.2c0,.08,0,.15,0,.23a7.07,7.07,0,0,1-11.36,5.63l-8.65,4.46L112.88,50H127.3a7.09,7.09,0,1,1,0,4.27H116l3.19,4.32.43.09A7.1,7.1,0,0,1,125.06,65l27.55-4.41L135.06,32.35Z"/><path class="cls-1" d="M136.73,52.18a2.68,2.68,0,1,0-2.68,2.67A2.68,2.68,0,0,0,136.73,52.18Z"/><line class="cls-12" x1="135.06" y1="32.35" x2="152.61" y2="60.6"/></g></svg>