<svg xmlns="http://www.w3.org/2000/svg" xmlns:xlink="http://www.w3.org/1999/xlink" viewBox="0 0 413.55 182.79"><defs><style>.cls-1{font-size:29.25px;font-family:Futura-Boo, Futura;letter-spacing:0em;}.cls-2{letter-spacing:0.02em;}.cls-3{letter-spacing:0.04em;}.cls-4{letter-spacing:0.06em;}.cls-5{letter-spacing:0em;}.cls-6{letter-spacing:0.04em;}.cls-7{letter-spacing:0.04em;}.cls-8{letter-spacing:0.04em;}.cls-9{fill:#fff;}.cls-10{fill:#ff4929;}.cls-11{fill:#ff7e20;}.cls-12{fill:#ff660d;}.cls-13{fill:#ffab00;}.cls-14{fill:url(#linear-gradient);}.cls-15{fill:url(#linear-gradient-2);}.cls-16{fill:#fc7b00;}.cls-17{fill:#ff821b;}.cls-18{fill:url(#linear-gradient-3);}.cls-19{fill:#ff662a;}.cls-20{fill:url(#linear-gradient-4);}.cls-21{fill:none;}.cls-22{fill:url(#linear-gradient-5);}.cls-23{fill:url(#linear-gradient-6);}.cls-24{fill:url(#linear-gradient-7);}.cls-25{fill:url(#linear-gradient-8);}.cls-26{fill:url(#linear-gradient-9);}.cls-27{fill:url(#linear-gradient-10);}.cls-28{fill:url(#linear-gradient-11);}.cls-29{fill:url(#linear-gradient-12);}.cls-30{fill:url(#linear-gradient-13);}.cls-31{fill:url(#linear-gradient-14);}.cls-32{fill:url(#linear-gradient-15);}.cls-33{fill:url(#linear-gradient-16);}.cls-34{fill:url(#linear-gradient-17);}.cls-35{fill:url(#linear-gradient-18);}</style><linearGradient id="linear-gradient" x1="338.32" y1="124.43" x2="340.28" y2="121.81" gradientUnits="userSpaceOnUse"><stop offset="0" stop-color="#ed6002"/><stop offset="0.47" stop-color="#fc7b00"/></linearGradient><linearGradient id="linear-gradient-2" x1="291.43" y1="-10.62" x2="333.73" y2="65.61" gradientUnits="userSpaceOnUse"><stop offset="0" stop-color="#ffab00"/><stop offset="1" stop-color="#ff8925"/></linearGradient><linearGradient id="linear-gradient-3" x1="346.01" y1="51.91" x2="354.7" y2="67.57" xlink:href="#linear-gradient-2"/><linearGradient id="linear-gradient-4" x1="299.83" y1="26.86" x2="317.13" y2="26.86" gradientUnits="userSpaceOnUse"><stop offset="0" stop-color="#ffab00"/><stop offset="0.75" stop-color="#ff7937"/></linearGradient><linearGradient id="linear-gradient-5" x1="345.77" y1="46.72" x2="410.12" y2="46.72" xlink:href="#linear-gradient-4"/><linearGradient id="linear-gradient-6" x1="324.1" y1="37.59" x2="347.34" y2="79.47" xlink:href="#linear-gradient-2"/><linearGradient id="linear-gradient-7" x1="312.8" y1="43.86" x2="336.04" y2="85.73" xlink:href="#linear-gradient-2"/><linearGradient id="linear-gradient-8" x1="326.79" y1="36.09" x2="350.03" y2="77.97" xlink:href="#linear-gradient-2"/><linearGradient id="linear-gradient-9" x1="320.9" y1="39.36" x2="344.14" y2="81.24" xlink:href="#linear-gradient-2"/><linearGradient id="linear-gradient-10" x1="301.89" y1="49.91" x2="325.12" y2="91.79" xlink:href="#linear-gradient-2"/><linearGradient id="linear-gradient-11" x1="348.53" y1="24.03" x2="371.76" y2="65.91" xlink:href="#linear-gradient-2"/><linearGradient id="linear-gradient-12" x1="346.67" y1="25.06" x2="369.91" y2="66.94" xlink:href="#linear-gradient-2"/><linearGradient id="linear-gradient-13" x1="296.59" y1="-4.42" x2="335.99" y2="66.59" xlink:href="#linear-gradient-2"/><linearGradient id="linear-gradient-14" x1="326.53" y1="117.11" x2="328.88" y2="113.97" xlink:href="#linear-gradient"/><linearGradient id="linear-gradient-15" x1="330.13" y1="119.81" x2="332.48" y2="116.67" xlink:href="#linear-gradient"/><linearGradient id="linear-gradient-16" x1="278.63" y1="26.68" x2="316.99" y2="26.68" xlink:href="#linear-gradient-4"/><linearGradient id="linear-gradient-17" x1="278.63" y1="34.63" x2="316.99" y2="34.63" xlink:href="#linear-gradient-4"/><linearGradient id="linear-gradient-18" x1="278.63" y1="24.82" x2="316.99" y2="24.82" xlink:href="#linear-gradient-4"/></defs><title>ADDRESS N-TRANS</title><g id="ADDRESS_N_TRANS-2" data-name="ADDRESS N/TRANS"><text class="cls-1" transform="translate(106.89 176.01)">L<tspan class="cls-2" x="10.09" y="0">O</tspan><tspan class="cls-3" x="33.37" y="0">V</tspan><tspan class="cls-4" x="50.39" y="0">E</tspan><tspan class="cls-5" x="65.81" y="0">Y</tspan><tspan class="cls-6" x="80.87" y="0">OUR.S</tspan><tspan class="cls-7" x="163.73" y="0">I</tspan><tspan class="cls-8" x="171.71" y="0">T</tspan><tspan class="cls-6" x="184.88" y="0">E</tspan></text><path class="cls-9" d="M287.68,73.92l-5.27-9.85H310l21.45-28.52,15.27,4,12-5.2L374,35.84l3.28,13.53,10.83,13.86L386.8,76.47l-12.23,7.42-4,6.45s-9,13.71-9.48,13.2-29.63-6.94-29.63-6.94-27.9-20.21-28.59-20.47-15.16-2.21-15.16-2.21"/><path class="cls-9" d="M288,74.83l-6-11.21,27.53-1.19,21.9-26.29s14.83.1,15.17,0,25.82-6.66,26-4.93,8.8,18.83,8.8,18.83l13.05,19L383,85.43,363.47,101s-32.88-5.55-34.14-6.35-30.24-16.55-30.24-16.55Z"/><text class="cls-1" transform="translate(106.89 175.84)">L<tspan class="cls-2" x="10.09" y="0">O</tspan><tspan class="cls-3" x="33.37" y="0">V</tspan><tspan class="cls-4" x="50.39" y="0">E</tspan><tspan class="cls-5" x="65.81" y="0">Y</tspan><tspan class="cls-6" x="80.87" y="0">OUR.S</tspan><tspan class="cls-7" x="163.73" y="0">I</tspan><tspan class="cls-8" x="171.71" y="0">T</tspan><tspan class="cls-6" x="184.88" y="0">E</tspan></text><path class="cls-10" d="M68.34,2.68H86.78a3.11,3.11,0,0,1,1.78.54,3.11,3.11,0,0,0-1.78-.54H68.34a3.35,3.35,0,0,0-2.9,5.24L99.15,57.3,105,65.89h0l-39.57-58A3.34,3.34,0,0,1,68.34,2.68Z"/><path class="cls-10" d="M147.52,4.31a3.58,3.58,0,0,1,2.89-1.63H169a3.32,3.32,0,0,1,3.38,2.55A3.32,3.32,0,0,0,169,2.68H150.41a3.58,3.58,0,0,0-2.89,1.63L118.6,45.88h0Z"/><path class="cls-10" d="M207.05,71.62l0,0,0,0Z"/><path class="cls-10" d="M262,88.05l.12.58Z"/><path class="cls-10" d="M218.37,76.57l-2-.9Z"/><path class="cls-10" d="M210.49,73.21l-.13-.06Z"/><path class="cls-10" d="M222.81,78.76a47,47,0,0,1,6,3.77,56.4,56.4,0,0,0-10.2-5.84Q220.86,77.71,222.81,78.76Z"/><path class="cls-10" d="M261.51,86.06l.13.49Z"/><path class="cls-10" d="M260.94,84.16l.12.35Z"/><path class="cls-10" d="M260.27,82.32l.07.19Z"/><path class="cls-10" d="M254.8,73.26l0,0Z"/><path class="cls-10" d="M236.13,91.83c-.06-.17-.11-.35-.17-.53C236,91.48,236.07,91.66,236.13,91.83Z"/><path class="cls-10" d="M230.08,83.5c-.37-.3-.74-.6-1.14-.89C229.34,82.9,229.71,83.2,230.08,83.5Z"/><path class="cls-10" d="M236.75,94.8c0-.17-.05-.35-.07-.52C236.7,94.45,236.73,94.63,236.75,94.8Z"/><path class="cls-10" d="M236.52,93.31c0-.19-.08-.38-.13-.57C236.44,92.93,236.48,93.12,236.52,93.31Z"/><path class="cls-10" d="M233.91,87.51q-.27-.37-.57-.75Q233.64,87.14,233.91,87.51Z"/><path class="cls-10" d="M234.73,88.75c-.14-.24-.29-.48-.45-.71C234.44,88.27,234.59,88.51,234.73,88.75Z"/><path class="cls-10" d="M235.43,90c-.1-.21-.22-.42-.33-.63C235.21,89.62,235.33,89.83,235.43,90Z"/><path class="cls-10" d="M230.31,83.7a23.67,23.67,0,0,1,2.75,2.73A22.91,22.91,0,0,0,230.31,83.7Z"/><path class="cls-10" d="M181.33,116.93c-1.63-1.62-2.53-2.53-.9-5.42l6.5-11.21a4.25,4.25,0,0,1,1.34-1.44,4.16,4.16,0,0,0-1.34,1.44l-6.51,11.21c-1.62,2.89-.72,3.8.91,5.42,3.61,3.44,17,14.11,39.77,14.11,13.54,0,24.43-4.85,31.66-12.19C245.53,126.19,234.64,131,221.1,131,198.32,131,184.94,120.37,181.33,116.93Z"/><path class="cls-10" d="M262.56,92.38c0,.2,0,.39.05.59C262.6,92.77,262.58,92.58,262.56,92.38Z"/><path class="cls-10" d="M236.83,96.32v0a12.72,12.72,0,0,1-3.66,8.9A12.72,12.72,0,0,0,236.83,96.32Z"/><path class="cls-10" d="M213.76,74.58l.11,0,1.11.46-1.11-.46Z"/><path class="cls-10" d="M254,117.53c-.15.17-.31.34-.47.5C253.69,117.87,253.85,117.7,254,117.53Z"/><path class="cls-10" d="M262.33,90.13c0,.21.06.42.09.64C262.39,90.55,262.35,90.34,262.33,90.13Z"/><path class="cls-10" d="M72.07,108.57a3.48,3.48,0,0,1,1,2.4v14.82a3.44,3.44,0,0,1-3.44,3.44H3.43A3.44,3.44,0,0,1,0,125.79V71.62H0v54.17a3.44,3.44,0,0,0,3.44,3.44H69.6A3.44,3.44,0,0,0,73,125.79V111A3.48,3.48,0,0,0,72.07,108.57Z"/><polygon class="cls-10" points="23.5 107.53 23.5 78.76 23.5 71.62 23.5 71.62 23.5 107.53 23.5 107.53"/><path class="cls-10" d="M3.43,2.68H20.07A3.56,3.56,0,0,1,23.5,6.11V65.89h0V6.11a3.55,3.55,0,0,0-3.43-3.43H3.44A3.44,3.44,0,0,0,0,6.11V65.89H0V6.11A3.43,3.43,0,0,1,3.43,2.68Z"/><path class="cls-10" d="M183.23,50.6c-.08-.17-.17-.34-.25-.52C183.06,50.26,183.15,50.43,183.23,50.6Z"/><path class="cls-10" d="M182.62,49.27c-.1-.22-.19-.44-.28-.66C182.43,48.83,182.52,49.05,182.62,49.27Z"/><path class="cls-10" d="M186.74,56.28l-.11-.15Z"/><path class="cls-10" d="M183.8,51.71l-.12-.22Z"/><path class="cls-10" d="M185.89,55.12l-.07-.11Z"/><path class="cls-10" d="M187.55,57.3h0l0,0Z"/><path class="cls-10" d="M197.07,65.89Z"/><path class="cls-10" d="M189.67,59.68h0Z"/><path class="cls-10" d="M220.56.87c13.2,0,24.17,4.82,30.67,8.55C244.73,5.69,233.76.87,220.56.87c-28.75,0-40.68,18.62-40.68,34.71,0,.64,0,1.26.05,1.88,0-.62-.05-1.24-.05-1.88C179.88,19.49,191.82.87,220.56.87Z"/><path class="cls-10" d="M192,61.93l-.07,0Z"/><path class="cls-10" d="M194.55,64l-.14-.1Z"/><path class="cls-10" d="M182,47.85l-.29-.81Z"/><path class="cls-10" d="M181,44.62q-.18-.67-.33-1.38Q180.83,43.95,181,44.62Z"/><path class="cls-10" d="M180.28,41c-.06-.41-.12-.82-.16-1.23C180.16,40.18,180.22,40.59,180.28,41Z"/><path class="cls-10" d="M180.58,42.73c-.08-.39-.15-.79-.22-1.19C180.43,41.94,180.5,42.34,180.58,42.73Z"/><path class="cls-10" d="M242.2,29.93c-4.3-2.6-13.3-7.58-20.82-8.35C228.9,22.35,237.9,27.33,242.2,29.93Z"/><path class="cls-10" d="M180.06,39.25c0-.47-.08-.94-.11-1.42C180,38.31,180,38.78,180.06,39.25Z"/><path class="cls-10" d="M181.52,46.37c-.16-.49-.31-1-.44-1.48C181.21,45.39,181.36,45.88,181.52,46.37Z"/><path class="cls-10" d="M126.73,129.23H110.1a3.44,3.44,0,0,1-3.44-3.44V71.62h0v54.17a3.44,3.44,0,0,0,3.44,3.44h16.63a3.54,3.54,0,0,0,2.83-1.56A3.54,3.54,0,0,1,126.73,129.23Z"/><path class="cls-10" d="M218.65,76.69l-.28-.12Z"/><path class="cls-10" d="M234.28,88l-.37-.53Z"/><path class="cls-10" d="M230.31,83.7l-.23-.2Z"/><path class="cls-10" d="M257.8,19l-6.87,10.3c-1.45,2.17-4.16,3.62-6.33,2.17-.3-.19-1.16-.74-2.4-1.49,1.24.75,2.1,1.3,2.4,1.49,2.17,1.45,4.88,0,6.33-2.17L257.8,19a4.49,4.49,0,0,0-1.08-6,55.53,55.53,0,0,0-5.49-3.56A55.53,55.53,0,0,1,256.72,13,4.49,4.49,0,0,1,257.8,19Z"/><path class="cls-10" d="M228.94,82.61l-.09-.08Z"/><path class="cls-10" d="M69.6,107.53a3.4,3.4,0,0,1,2.47,1,3.4,3.4,0,0,0-2.47-1h0Z"/><path class="cls-10" d="M233.34,86.76l-.28-.33Z"/><path class="cls-9" d="M246.86,65.89H197.07a74.24,74.24,0,0,0,10,5.73h46.3A48.71,48.71,0,0,0,246.86,65.89Z"/><path class="cls-10" d="M253.35,71.62h0c.5.53,1,1.08,1.45,1.64C254.33,72.7,253.85,72.15,253.35,71.62Z"/><path class="cls-10" d="M246.78,65.83l.08.06h0Z"/><path class="cls-10" d="M193.08,99c.9.54,15.55,11.21,27.3,11.21a17.58,17.58,0,0,0,12.79-5,17.57,17.57,0,0,1-12.79,5c-11.75,0-26.4-10.66-27.3-11.2a4.28,4.28,0,0,0-4.81-.18A4.28,4.28,0,0,1,193.08,99Z"/><path class="cls-10" d="M236.39,92.74a9.46,9.46,0,0,0-.26-.91A9.46,9.46,0,0,1,236.39,92.74Z"/><path class="cls-10" d="M236.83,96.24c0-.49,0-1-.08-1.44C236.79,95.27,236.82,95.75,236.83,96.24Z"/><polygon class="cls-9" points="130.16 71.62 106.66 71.62 106.66 68.3 105.02 65.89 131.71 65.89 130.17 68.12 130.16 71.62"/><path class="cls-10" d="M236.68,94.28c0-.33-.1-.65-.16-1C236.58,93.63,236.64,94,236.68,94.28Z"/><path class="cls-10" d="M235.1,89.41c-.12-.22-.24-.45-.37-.66C234.86,89,235,89.19,235.1,89.41Z"/><path class="cls-10" d="M89.67,4.31l28.92,41.58h0L89.67,4.31a4.43,4.43,0,0,0-1.11-1.09A4.43,4.43,0,0,1,89.67,4.31Z"/><path class="cls-10" d="M253.53,118c-.25.28-.5.55-.77.82C253,118.58,253.28,118.31,253.53,118Z"/><path class="cls-10" d="M261.64,86.55q.18.74.33,1.5Q261.82,87.29,261.64,86.55Z"/><rect class="cls-9" y="65.89" width="23.5" height="5.72"/><path class="cls-10" d="M236,91.3a11.58,11.58,0,0,0-.53-1.26A11.58,11.58,0,0,1,236,91.3Z"/><path class="cls-10" d="M181.08,44.89a2.68,2.68,0,0,0-.07-.27A2.68,2.68,0,0,1,181.08,44.89Z"/><path class="cls-10" d="M181.75,47c-.08-.22-.16-.45-.23-.67C181.59,46.59,181.67,46.82,181.75,47Z"/><path class="cls-10" d="M180.36,41.54c0-.18-.06-.36-.08-.54C180.3,41.18,180.33,41.36,180.36,41.54Z"/><path class="cls-10" d="M180.68,43.24c0-.17-.07-.34-.1-.51C180.61,42.9,180.64,43.07,180.68,43.24Z"/><path class="cls-10" d="M182.34,48.61l-.3-.76Z"/><path class="cls-10" d="M183,50.08q-.19-.4-.36-.81Q182.78,49.68,183,50.08Z"/><path class="cls-10" d="M180.12,39.77l-.06-.52Z"/><path class="cls-10" d="M260.34,82.51c.22.54.41,1.09.6,1.65Q260.65,83.32,260.34,82.51Z"/><path class="cls-10" d="M261.06,84.51c.16.51.31,1,.45,1.55C261.37,85.54,261.22,85,261.06,84.51Z"/><path class="cls-10" d="M262.09,88.63c.09.49.17,1,.24,1.5C262.26,89.63,262.18,89.12,262.09,88.63Z"/><path class="cls-10" d="M180,37.83c0-.12,0-.25,0-.37C179.94,37.58,180,37.71,180,37.83Z"/><path class="cls-10" d="M262.42,90.77c.06.53.1,1.07.14,1.61C262.52,91.84,262.48,91.3,262.42,90.77Z"/><path class="cls-10" d="M183.68,51.49c-.16-.29-.3-.59-.45-.89C183.38,50.9,183.52,51.2,183.68,51.49Z"/><path class="cls-10" d="M192,61.88c-.78-.71-1.55-1.44-2.28-2.2C190.4,60.44,191.16,61.17,192,61.88Z"/><path class="cls-10" d="M213.76,74.58c-1.09-.44-2.18-.9-3.27-1.37C211.58,73.68,212.67,74.14,213.76,74.58Z"/><path class="cls-10" d="M194.41,63.94c-.82-.65-1.62-1.32-2.39-2C192.79,62.62,193.59,63.29,194.41,63.94Z"/><path class="cls-10" d="M197,65.88c-.85-.59-1.68-1.21-2.49-1.84C195.36,64.67,196.19,65.29,197,65.88Z"/><path class="cls-10" d="M210.36,73.15c-1.09-.49-2.19-1-3.27-1.51C208.17,72.16,209.27,72.67,210.36,73.15Z"/><path class="cls-10" d="M185.82,55a34.65,34.65,0,0,1-2-3.3A34.65,34.65,0,0,0,185.82,55Z"/><path class="cls-10" d="M254,117.53a33.43,33.43,0,0,0,8.68-22.29c0-.77,0-1.53-.07-2.27.05.74.07,1.5.07,2.27A33.43,33.43,0,0,1,254,117.53Z"/><path class="cls-10" d="M189.67,59.67c-.74-.76-1.44-1.54-2.11-2.36C188.23,58.13,188.93,58.91,189.67,59.67Z"/><path class="cls-10" d="M187.54,57.28c-.27-.33-.54-.66-.8-1C187,56.62,187.27,57,187.54,57.28Z"/><path class="cls-10" d="M186.63,56.13c-.25-.33-.5-.67-.74-1C186.13,55.46,186.38,55.8,186.63,56.13Z"/><path class="cls-10" d="M260.27,82.32a33.82,33.82,0,0,0-5.45-9,35.53,35.53,0,0,1,3.75,5.47A33.26,33.26,0,0,1,260.27,82.32Z"/><path class="cls-10" d="M216.36,75.67,215,75.09Z"/><path class="cls-10" d="M137.67,57.3,171.93,7.92a3.62,3.62,0,0,0,.48-2.69A3.32,3.32,0,0,0,169,2.68H150.41a3.58,3.58,0,0,0-2.89,1.63L118.6,45.89h0L89.67,4.31a4.43,4.43,0,0,0-1.11-1.09,3.11,3.11,0,0,0-1.78-.54H68.34a3.34,3.34,0,0,0-2.89,5.24l39.57,58h26.69Z"/><path class="cls-10" d="M254,117.53a33.43,33.43,0,0,0,8.68-22.29c0-.77,0-1.53-.07-2.27,0-.2,0-.39-.05-.59,0-.54-.08-1.08-.14-1.61,0-.22-.07-.43-.09-.64-.07-.5-.15-1-.24-1.5l-.12-.58q-.15-.76-.33-1.5l-.13-.49c-.14-.52-.29-1-.45-1.55l-.12-.35c-.19-.56-.38-1.11-.6-1.65l-.07-.19a33.26,33.26,0,0,0-1.7-3.56,35.53,35.53,0,0,0-3.75-5.47l0,0c-.47-.56-1-1.11-1.45-1.64h-46.3l0,0c1.08.52,2.18,1,3.27,1.51l.13.06c1.09.47,2.18.93,3.27,1.37l.11,0,1.11.46,1.38.58,2,.9.28.12a56.4,56.4,0,0,1,10.2,5.84l.09.08c.4.29.77.59,1.14.89l.23.2a22.91,22.91,0,0,1,2.75,2.73l.28.33q.3.38.57.75l.37.53c.16.23.31.47.45.71s.25.44.37.66.23.42.33.63A11.58,11.58,0,0,1,236,91.3c.06.18.11.36.17.53a9.46,9.46,0,0,1,.26.91c.05.19.09.38.13.57s.12.64.16,1c0,.17,0,.35.07.52,0,.47.07,1,.08,1.44v.08a12.72,12.72,0,0,1-3.66,8.9,17.58,17.58,0,0,1-12.79,5c-11.75,0-26.4-10.67-27.3-11.21a4.15,4.15,0,0,0-6.15,1.26l-6.5,11.21c-1.63,2.89-.73,3.8.9,5.42,3.61,3.44,17,14.1,39.77,14.1,13.54,0,24.43-4.84,31.66-12.18.27-.27.52-.54.77-.82S253.85,117.7,254,117.53Z"/><path class="cls-10" d="M3.43,129.23H69.6A3.44,3.44,0,0,0,73,125.79V111a3.48,3.48,0,0,0-1-2.4,3.4,3.4,0,0,0-2.47-1H23.5V71.62H0v54.17A3.44,3.44,0,0,0,3.43,129.23Z"/><path class="cls-10" d="M23.5,6.11a3.56,3.56,0,0,0-3.43-3.43H3.43A3.43,3.43,0,0,0,0,6.11V65.89H23.5Z"/><path class="cls-10" d="M231.74,57.3c-2.29-1-4.59-2-6.84-2.92-14.65-6-21.34-11.75-21.34-20.25,0-5.78,5.61-12.65,15.91-12.65.63,0,1.26,0,1.91.1,7.52.77,16.52,5.75,20.82,8.35,1.24.75,2.1,1.3,2.4,1.49,2.17,1.45,4.88,0,6.33-2.17L257.8,19a4.49,4.49,0,0,0-1.08-6,55.53,55.53,0,0,0-5.49-3.56C244.73,5.69,233.76.87,220.56.87c-28.74,0-40.68,18.62-40.68,34.71,0,.64,0,1.26.05,1.88,0,.12,0,.25,0,.37,0,.48.07,1,.11,1.42l.06.52c0,.41.1.82.16,1.23,0,.18.05.36.08.54.07.4.14.8.22,1.19,0,.17.06.34.1.51q.15.7.33,1.38a2.68,2.68,0,0,1,.07.27c.13.5.28,1,.44,1.48.07.22.15.45.23.67l.29.81.3.76c.09.22.18.44.28.66s.23.54.36.81.17.35.25.52.29.6.45.89l.12.22a34.65,34.65,0,0,0,2,3.3l.07.11c.24.34.49.68.74,1l.11.15c.26.34.53.67.8,1l0,0c.67.82,1.37,1.6,2.11,2.36h0c.73.76,1.5,1.49,2.28,2.2l.07,0c.77.69,1.57,1.36,2.39,2l.14.1c.81.63,1.64,1.25,2.49,1.84h49.83A83.24,83.24,0,0,0,231.74,57.3Z"/><path class="cls-10" d="M130.16,78.76V71.62h-23.5v54.17a3.44,3.44,0,0,0,3.44,3.44h16.63a3.54,3.54,0,0,0,2.83-1.56,3.31,3.31,0,0,0,.6-1.88Z"/><polygon class="cls-11" points="377.94 43.24 371.13 33.34 372.25 33.34 372.43 33.39 378.23 42.5 377.94 43.24"/><polygon class="cls-10" points="410.15 32.2 410.08 31.86 382.49 12.35 382.49 13.08 383.16 13.81 409.61 32.05 410.15 32.2"/><polygon class="cls-12" points="401.46 80.37 377.42 43.04 370.67 46.42 370.54 46.32 370.57 46.24 377.64 42.3 378.33 42.23 400.83 78.61 401.46 80.37"/><polygon class="cls-12" points="364.56 86.31 364.53 86.27 364.65 86.1 370.15 84.86 401.16 80.28 401.46 80.37 401.43 80.37 399.97 80.63 393.72 81.71 364.56 86.31"/><polygon class="cls-12" points="294.18 86.21 294.02 86.09 293.88 85.84 304.71 72.78 304.6 71.94 305.01 71.94 305.23 72.99 294.18 86.21"/><polygon class="cls-12" points="319.5 104.83 319.69 105.06 319.98 105.13 334.47 99.57 343.32 95.07 343.35 94.91 343.19 94.78 319.5 104.83"/><polygon class="cls-13" points="368.7 113.47 375.31 98.7 399.82 81.07 401.46 80.37 398.28 83.28 377.02 98.92 369.85 112.26 369.61 112.69 368.7 113.47"/><polygon class="cls-12" points="359.66 121.05 360.66 120.38 360.74 120.31 346.6 98.46 345.07 98.46 346.33 100.54 359.66 121.05"/><polygon class="cls-13" points="333 115.04 308.4 102.14 308.35 102.35 308.64 102.6 333.49 115.56 333.55 115.32 333.15 115.08 333 115.04"/><polygon class="cls-13" points="320.21 104.83 319.57 105.12 333.55 115.32 333.61 115.18 333.09 114.88 320.21 104.83"/><polygon class="cls-13" points="319.27 105.25 319.87 104.97 294.56 85.43 294.02 86.09 319.27 105.25"/><polygon class="cls-14" points="346.6 129.77 345.77 130.33 332.8 115.4 333.55 115.32 333.67 115.05 346.6 128.61 346.6 129.77"/><polygon class="cls-15" points="363.46 99.3 363.59 97.97 345.99 97.68 343.65 93.83 336.64 89.93 335.31 89.93 342.79 95.1 345.05 98.72 363.46 99.3"/><polygon class="cls-16" points="363.47 100.97 364.68 89.24 363.47 92.48 362.99 92.31 362.69 93.09 362.23 98.96 363.47 100.97"/><polygon class="cls-16" points="374.4 102.72 376.42 98.7 378.33 97.3 362.83 97.2 361.32 97.2 361.07 99.63 374.4 102.72"/><polygon class="cls-12" points="309.47 71.94 323.66 81.64 322.96 80.49 310.7 71.94 309.47 71.94"/><polygon class="cls-17" points="356.06 71.94 350.81 71.94 356.7 77.73 356.7 76.1 356.06 71.94"/><polygon class="cls-18" points="347.6 66.22 342.53 60.19 354.4 54.11 355.33 54.17 355.42 54.44 344.71 60.16 348.54 66.22 347.6 66.22"/><polygon class="cls-10" points="401.46 80.37 400.57 77.22 396.45 49.37 397.44 49.37 401.18 70.22 401.46 79.28 401.46 80.37"/><polygon class="cls-10" points="397.84 50.06 396.92 49.39 396.95 49.37 396.95 49.37 398.39 49.32 412.85 49.32 413.55 49.37 413.44 49.41 397.84 50.06"/><polygon class="cls-12" points="396.95 49.37 396.94 49.37 381.4 13.23 382.49 13.08 382.78 13.42 397.65 48.95 396.95 49.37"/><polygon class="cls-10" points="345.77 18.23 345.92 18.11 348.6 17.72 380.67 12.86 382.49 12.73 382.49 13.08 382.46 13.16 347.94 18.54 345.77 18.23"/><polygon class="cls-13" points="334.34 43.76 336.87 43.76 352.45 39.3 357.16 37.78 360.24 36.93 363.63 36.26 371.6 34.05 372.39 33.55 372.25 33.34 371.58 32.96 334.34 43.76"/><polygon class="cls-13" points="317.34 48.45 316.96 49.35 328.63 46.09 329.33 45.33 317.34 48.45"/><polygon class="cls-13" points="371.44 33.34 344.83 18.27 345.77 18.23 347.16 18.87 372.77 32.96 372.77 33.34 372.25 33.34 371.44 33.34"/><polygon class="cls-19" points="309.53 66.22 310.04 66.22 334.1 10.68 334.1 8.86 334.04 8.94 322.19 36.28 309.53 66.22"/><polygon class="cls-19" points="304.92 66.22 303.5 66.22 299.09 36.79 299.96 35.91 300.08 35.87 304.92 66.22"/><polygon class="cls-20" points="300.06 36.14 299.96 35.91 299.83 35.87 302.34 32.69 315.63 17.8 316.3 17.59 316.99 17.59 317.13 17.67 300.79 36.14 300.06 36.14"/><polygon class="cls-13" points="316.49 17.25 316.99 17.59 317.18 17.87 333.73 9.24 334.1 8.86 334.04 8.86 326.72 12.48 316.49 17.25"/><polygon class="cls-13" points="316.73 17.87 288.68 14.03 288.86 13.73 288.93 13.7 294.32 14.31 316.99 17.32 316.99 17.59 316.75 17.76 316.73 17.87"/><polygon class="cls-13" points="278.63 56.73 278.63 57.32 278.79 57.62 299.32 37.07 299.99 36.14 299.96 35.91 299.76 35.87 299.22 36.38 278.63 56.73"/><polygon class="cls-13" points="299.65 36.16 299.96 35.8 291.45 33.57 279.65 30.6 278.68 30.68 278.63 30.76 278.63 30.84 280.01 31.34 299.65 36.16"/><polygon class="cls-21" points="385.27 92.22 401.46 80.37 376.42 98.7 385.27 92.22"/><polygon class="cls-21" points="343.2 94.79 343.23 94.81 343.22 94.8 343.2 94.79"/><polygon class="cls-21" points="333.55 115.33 345.77 130.33 333.56 115.33 333.55 115.33"/><polygon class="cls-13" points="376.42 98.7 369.25 113.01 380.27 103.49 383.2 100.98 401.46 80.37 385.27 92.22 376.42 98.7"/><polygon class="cls-10" points="401.46 80.37 413.55 49.37 396.95 49.37 401.46 80.37"/><polygon class="cls-10" points="410.12 32.05 407.97 21.46 397.95 10.86 382.85 4.49 356.36 9.43 345.77 18.23 382.49 13.08 410.12 32.05"/><polygon class="cls-22" points="396.95 49.37 396.95 49.37 382.49 13.08 410.12 32.05 382.49 13.08 345.77 18.23 372.25 33.34 377.94 42.5 401.46 80.37 396.95 49.37 396.95 49.37"/><polygon class="cls-12" points="396.95 49.37 396.95 49.37 413.55 49.37 410.12 32.05 382.49 13.08 396.95 49.37"/><polygon class="cls-12" points="362.79 98.46 348.09 98.46 345.77 98.46 345.71 98.38 359.17 118.19 360.66 120.38 369.25 113.01 376.42 98.7 362.79 98.46"/><path class="cls-23" d="M355.33,54.17A9.46,9.46,0,0,1,352,49.49H333.29L318,66.21h30.26l-4.47-6Z"/><polygon class="cls-24" points="309.82 66.22 310.19 66.22 329.13 45.55 317.13 48.95 309.82 66.22"/><circle class="cls-25" cx="355.08" cy="87.07" r="3.59"/><path class="cls-26" d="M324.46,71.94l7.46,12.27H346a9.51,9.51,0,0,1,9.05-6.63,9.69,9.69,0,0,1,1.63.15l-4.28-5.79Z"/><polygon class="cls-27" points="317.76 71.94 309.98 71.94 323.25 80.96 317.76 71.94"/><circle class="cls-28" cx="361.06" cy="46.62" r="3.59"/><path class="cls-29" d="M372.25,33.34l-36.8,10.42H352a9.48,9.48,0,0,1,18.52,2.56l7.4-3.82Z"/><line class="cls-21" x1="372.25" y1="33.34" x2="377.94" y2="42.5"/><path class="cls-12" d="M343.65,95.35l2.06,3,.06.08h17l0-1.26-6.56-.72a9.26,9.26,0,0,1-1.19.08,9.45,9.45,0,0,1-3.2-.57L346,95.34Z"/><path class="cls-30" d="M356.27,96.48a9.26,9.26,0,0,1-1.19.08A9.56,9.56,0,0,1,346,89.93h-9.82l7,4.86h0l0,0h0l.35.52,2.06,3,.06.08h17l0-1.26.16-4.89A9.53,9.53,0,0,1,356.27,96.48Z"/><polygon class="cls-16" points="359.17 118.19 345.71 98.38 343.65 95.35 343.35 94.9 343.32 94.88 343.29 94.89 319.67 105.06 333.49 115.28 333.53 115.3 333.55 115.32 333.56 115.33 345.77 130.33 360.3 120.62 360.66 120.38 360.66 120.38 359.17 118.19"/><polygon class="cls-31" points="316.21 106.42 308.4 102.41 330.31 120.31 345.77 130.33 333.55 115.33 316.21 106.42"/><polygon class="cls-16" points="333.53 115.3 333.49 115.28 333.55 115.32 333.53 115.3"/><polygon class="cls-32" points="333.53 115.3 333.49 115.28 333.55 115.32 333.53 115.3"/><line class="cls-21" x1="333.56" y1="115.33" x2="333.55" y2="115.32"/><line class="cls-21" x1="319.67" y1="105.06" x2="333.49" y2="115.28"/><polygon class="cls-13" points="333.55 115.33 333.56 115.33 333.55 115.32 333.49 115.28 319.67 105.06 316.43 102.66 294.02 86.09 308.4 102.41 316.21 106.42 333.55 115.33"/><line class="cls-21" x1="333.49" y1="115.28" x2="333.55" y2="115.32"/><line class="cls-21" x1="316.43" y1="102.66" x2="319.67" y2="105.06"/><polygon class="cls-13" points="289.29 33.34 289.29 33.34 278.63 30.76 278.63 57.32 299.96 35.91 289.29 33.34"/><polygon class="cls-13" points="289.29 33.34 278.63 30.76 278.63 30.76 289.29 33.34 289.29 33.34"/><line class="cls-21" x1="289.29" y1="33.34" x2="278.63" y2="30.76"/><polygon class="cls-13" points="316.99 17.59 334.1 8.86 313.92 3.78 288.86 13.73 291.89 14.14 316.99 17.59"/><polygon class="cls-33" points="278.63 30.76 278.63 30.76 283.57 22.6 278.63 30.76"/><polygon class="cls-13" points="289.29 33.34 289.29 33.34 299.96 35.91 299.96 35.91 289.33 33.35 289.29 33.34"/><polygon class="cls-34" points="289.29 33.34 289.29 33.34 299.96 35.91 299.96 35.91 289.33 33.35 289.29 33.34"/><polygon class="cls-13" points="289.29 33.34 289.33 33.35 316.99 17.59 283.57 22.6 278.63 30.76 289.29 33.34 289.29 33.34"/><polygon class="cls-35" points="291.89 14.14 288.86 13.73 283.57 22.6 278.63 30.76 289.29 33.34 289.29 33.34 289.33 33.35 299.96 35.91 316.99 17.59 291.89 14.14"/><line class="cls-21" x1="289.33" y1="33.35" x2="289.29" y2="33.34"/><polygon class="cls-13" points="316.99 17.59 316.99 17.59 291.89 14.14 316.99 17.59"/><polygon class="cls-13" points="345.77 18.23 334.1 8.86 317.13 48.95 329.13 45.55 330.77 43.76 335.45 43.76 372.25 33.34 345.77 18.23"/><path class="cls-16" d="M364.57,87.07v.08A9.52,9.52,0,0,1,363,92.31l-.16,4.89,0,1.26,13.63.24,25-18.33-36.93,5.9C364.55,86.54,364.57,86.8,364.57,87.07Z"/><polygon class="cls-16" points="278.63 57.32 283.39 66.22 304.03 66.22 299.96 35.91 278.63 57.32"/><polygon class="cls-16" points="304.91 72.74 304.8 71.94 286.45 71.94 294.02 86.09 304.92 72.82 304.91 72.74"/><polygon class="cls-19" points="334.1 8.86 316.99 17.59 316.99 17.59 299.96 35.91 299.96 35.91 304.03 66.22 309.82 66.22 317.13 48.95 334.1 8.86"/><polygon class="cls-19" points="343.27 94.84 343.23 94.81 343.2 94.79 336.21 89.93 329.43 89.93 328.7 89.93 324.28 82.66 323.25 80.96 309.98 71.94 304.8 71.94 304.91 72.74 304.92 72.82 294.02 86.09 316.43 102.66 319.67 105.06 343.29 94.89 343.32 94.88 343.27 94.84"/><path class="cls-12" d="M370.54,46.32c0,.1,0,.2,0,.3a9.47,9.47,0,0,1-15.22,7.55l-11.59,6,4.47,6h19.33a9.5,9.5,0,1,1,0,5.73H352.43l4.28,5.79.58.12a9.49,9.49,0,0,1,7.24,8.42l36.93-5.9L377.94,42.5Z"/><path class="cls-12" d="M380.18,69.08a3.59,3.59,0,1,0-3.59,3.59A3.59,3.59,0,0,0,380.18,69.08Z"/><line class="cls-21" x1="377.94" y1="42.5" x2="401.46" y2="80.37"/></g></svg>