<?xml version="1.0" standalone="no"?>
<!DOCTYPE svg PUBLIC "-//W3C//DTD SVG 20010904//EN"
 "http://www.w3.org/TR/2001/REC-SVG-20010904/DTD/svg10.dtd">
<svg version="1.0" xmlns="http://www.w3.org/2000/svg"
 width="732.000000pt" height="732.000000pt" viewBox="0 0 732.000000 732.000000"
 preserveAspectRatio="xMidYMid meet">
<metadata>
Created by potrace 1.11, written by Peter Selinger 2001-2013
</metadata>
<g transform="translate(0.000000,732.000000) scale(0.100000,-0.100000)"
fill="#000000" stroke="none">
<path d="M1900 7084 c-22 -8 -112 -44 -135 -54 -11 -5 -85 -34 -165 -65 -80
-31 -163 -63 -185 -73 -21 -9 -42 -17 -45 -18 -3 0 -18 -6 -35 -13 -16 -7 -82
-33 -145 -58 -63 -24 -124 -49 -135 -54 -11 -4 -112 -45 -225 -89 -113 -44
-221 -88 -242 -96 -31 -14 -50 -39 -140 -190 -56 -96 -113 -191 -126 -212 -12
-20 -28 -48 -35 -62 -6 -14 -14 -27 -17 -30 -11 -10 -150 -241 -150 -250 0 -4
-3 -10 -8 -12 -4 -1 -31 -43 -60 -91 l-52 -89 0 -720 0 -720 46 -86 c26 -48
59 -109 73 -137 15 -27 51 -95 81 -150 29 -55 55 -102 57 -105 2 -2 329 -5
726 -5 l722 -1 45 46 c45 47 76 80 250 269 52 57 109 118 125 136 17 18 64 71
106 117 42 45 94 102 115 124 22 23 64 70 94 103 30 34 78 86 105 115 28 29
87 93 131 142 45 49 98 107 118 128 l35 39 174 0 c95 0 179 -3 185 -7 7 -4 12
-4 12 1 0 4 175 8 389 7 l389 -1 18 41 c10 23 31 61 48 86 31 46 122 140 136
140 5 0 15 6 22 13 52 51 247 93 338 73 14 -3 41 -9 60 -12 119 -22 271 -145
329 -268 18 -36 34 -74 36 -84 2 -9 8 -35 13 -57 10 -47 9 -144 -3 -195 -5
-19 -10 -38 -11 -42 -1 -5 -3 -10 -4 -13 -1 -3 -3 -8 -4 -12 -5 -32 -68 -132
-110 -176 -64 -67 -120 -104 -201 -134 -101 -36 -273 -35 -346 2 -16 9 -31 16
-34 16 -23 3 -45 13 -45 20 0 5 -7 9 -14 9 -26 0 -153 133 -185 193 -17 31
-31 64 -31 72 0 9 -10 15 -22 16 -13 0 -243 0 -513 1 l-489 0 -56 -60 c-59
-64 -210 -228 -248 -271 -13 -14 -63 -69 -112 -121 -48 -52 -100 -108 -115
-125 -15 -16 -61 -68 -104 -114 -42 -46 -101 -111 -133 -145 -31 -33 -55 -63
-53 -66 2 -3 604 -5 1339 -5 l1335 0 36 72 c64 129 201 243 321 268 13 3 36 8
51 11 47 9 127 11 163 3 19 -4 47 -10 61 -13 31 -5 134 -54 163 -76 52 -40
126 -125 154 -177 44 -84 61 -161 58 -262 -3 -93 -21 -156 -67 -237 -31 -56
-120 -154 -138 -154 -6 0 -11 -4 -11 -8 0 -11 -99 -60 -159 -78 -81 -24 -215
-21 -288 7 -13 5 -23 7 -23 5 0 -4 -57 25 -110 55 -51 30 -137 128 -171 195
-19 38 -37 71 -41 74 -5 4 -2318 5 -2325 1 -3 -1 14 -31 162 -272 72 -116 137
-224 145 -238 8 -14 32 -54 53 -89 l38 -62 382 0 382 0 33 71 c64 135 206 246
357 277 56 12 183 9 235 -6 84 -23 190 -86 237 -141 12 -14 32 -37 44 -51 25
-28 78 -136 84 -172 3 -12 7 -34 10 -48 8 -36 7 -129 0 -175 -9 -54 -53 -162
-79 -194 -38 -47 -147 -151 -158 -151 -6 0 -19 -6 -27 -13 -15 -12 -95 -46
-131 -55 -8 -2 -58 -4 -110 -4 -150 -2 -267 45 -365 147 -66 68 -80 88 -107
152 l-22 53 -470 0 -471 0 -27 48 c-49 83 -63 107 -68 112 -3 3 -10 14 -17 25
-6 11 -40 66 -75 123 -35 57 -69 116 -77 130 -12 24 -26 47 -97 157 -10 17
-23 38 -29 47 -37 63 -112 187 -126 208 -36 55 -53 85 -52 92 2 3 -5 12 -14
20 -13 11 -168 13 -859 13 -840 0 -844 0 -838 -20 4 -11 10 -24 14 -30 4 -5
29 -50 55 -100 26 -49 60 -112 75 -140 15 -27 51 -95 80 -150 85 -162 95 -180
100 -185 3 -3 20 -36 39 -74 19 -38 50 -86 70 -107 20 -20 59 -63 86 -95 43
-50 129 -148 259 -294 62 -70 313 -356 337 -384 46 -54 99 -106 108 -106 5 0
11 -4 13 -8 3 -7 69 -62 274 -228 34 -28 82 -67 106 -87 24 -19 97 -80 164
-134 67 -54 227 -185 358 -291 130 -106 280 -221 334 -255 53 -34 102 -66 108
-72 6 -5 27 -19 47 -30 20 -11 37 -23 37 -27 0 -5 5 -8 10 -8 6 0 63 -35 128
-77 64 -43 122 -80 127 -83 30 -15 130 -84 133 -91 2 -5 8 -9 13 -9 6 0 37
-18 71 -40 l61 -41 131 88 c72 48 136 92 142 98 6 5 27 19 47 30 20 11 37 23
37 27 0 5 4 8 9 8 11 0 165 102 169 113 2 4 8 7 12 7 8 0 101 61 135 87 6 5
35 24 65 43 45 28 179 136 200 160 3 3 34 30 70 60 36 31 78 66 94 80 17 14
39 34 51 45 12 11 37 32 56 46 19 15 50 41 69 59 19 18 55 48 80 69 25 20 50
41 55 47 6 7 44 40 85 75 41 35 80 68 86 74 49 45 155 135 209 180 21 17 49
41 64 55 14 14 46 41 70 60 63 51 133 122 241 246 52 60 101 116 110 125 8 9
26 29 40 45 22 25 144 162 244 274 17 19 81 91 141 160 60 69 126 143 147 165
20 22 46 52 58 67 12 15 33 40 48 56 39 40 72 81 71 87 -2 9 10 43 33 95 8 19
21 53 28 75 7 22 16 45 19 50 4 6 20 44 35 85 15 41 32 84 36 95 31 69 58 145
52 145 -4 0 -2 4 3 8 9 6 22 37 62 147 8 22 20 54 28 70 12 28 33 82 160 410
25 66 50 129 54 140 44 102 59 144 54 149 -4 3 -1 6 5 6 7 0 11 3 10 8 -3 8
31 101 42 117 17 24 19 68 6 127 -8 35 -17 79 -20 98 -3 19 -8 46 -11 60 -3
14 -8 39 -10 55 -3 17 -8 37 -10 45 -2 8 -6 26 -9 40 -3 14 -7 36 -10 50 -3
13 -8 41 -11 61 -3 20 -10 50 -15 68 -5 17 -9 34 -9 36 0 11 -14 84 -27 150
-14 67 -39 193 -49 245 -2 14 -7 36 -10 50 -13 60 -16 78 -25 120 -4 25 -10
55 -13 66 -3 12 -8 38 -11 58 -3 19 -11 57 -17 83 -6 27 -12 57 -14 68 -9 65
-28 100 -87 161 -35 37 -88 92 -118 124 -30 31 -109 114 -175 185 -66 70 -135
143 -153 161 -30 29 -86 62 -116 69 -6 1 -33 12 -59 23 -27 12 -51 22 -53 22
-3 0 -29 11 -57 24 -29 13 -135 58 -237 100 -102 43 -198 84 -215 91 -94 41
-111 46 -145 39 -19 -4 -42 -8 -50 -9 -14 -1 -53 -9 -110 -20 -14 -3 -38 -7
-55 -9 -16 -3 -55 -10 -85 -16 -30 -6 -73 -13 -95 -17 -22 -3 -47 -9 -56 -14
-9 -4 -18 -6 -20 -4 -3 2 -22 0 -44 -5 -22 -5 -60 -12 -85 -16 -25 -3 -48 -8
-51 -10 -4 -2 -24 -6 -45 -9 -22 -3 -59 -10 -84 -15 -66 -13 -321 -61 -350
-66 -14 -2 -36 -6 -50 -9 -14 -3 -40 -8 -59 -11 -18 -3 -43 -8 -55 -10 -11 -2
-37 -7 -56 -10 -44 -8 -77 -25 -116 -62 -18 -16 -54 -46 -80 -68 -27 -21 -54
-43 -60 -49 -6 -5 -30 -26 -54 -45 -24 -19 -48 -39 -54 -45 -6 -5 -45 -37 -86
-70 -41 -33 -81 -67 -90 -75 -9 -9 -32 -28 -53 -44 l-36 -28 -303 243 c-167
133 -306 247 -309 251 -3 5 -12 11 -20 12 -8 2 -21 6 -29 9 -8 3 -98 26 -200
51 -102 24 -230 56 -285 70 -55 15 -109 28 -120 31 -52 11 -65 14 -113 29 -29
8 -52 13 -52 10 0 -3 -8 0 -17 5 -10 5 -31 12 -48 15 -16 3 -57 12 -90 21 -33
8 -69 17 -80 20 -11 2 -29 6 -40 9 -11 3 -27 3 -35 0z"/>
<path d="M4397 4945 c-150 -62 -157 -273 -11 -349 44 -23 155 -28 162 -8 2 7
9 12 15 12 7 0 24 11 40 25 100 94 76 248 -50 318 -37 20 -110 21 -156 2z"/>
<path d="M5298 3744 c-2 -1 -16 -5 -31 -8 -84 -15 -148 -105 -143 -200 3 -58
17 -87 61 -128 68 -65 186 -67 257 -4 127 113 59 320 -112 340 -16 2 -31 2
-32 0z"/>
<path d="M4084 2760 c-17 -6 -45 -23 -62 -40 -102 -97 -87 -238 33 -316 40
-25 155 -26 183 -1 10 9 23 17 28 17 15 1 65 78 68 105 2 14 5 27 8 30 10 10
-14 99 -36 131 -42 65 -142 98 -222 74z"/>
</g>
</svg>
