<?xml version="1.0" encoding="utf-8"?>
<!-- Generator: Adobe Illustrator 23.0.3, SVG Export Plug-In . SVG Version: 6.00 Build 0)  -->
<svg version="1.1" id="Layer_1" xmlns="http://www.w3.org/2000/svg" xmlns:xlink="http://www.w3.org/1999/xlink" x="0px" y="0px"
	 viewBox="0 0 768 768" style="enable-background:new 0 0 768 768;" xml:space="preserve">
<style type="text/css">
	.st0{fill:#A5A5A5;}
	.st1{fill:#7C7C7C;}
	.st2{fill:none;stroke:#FFFFFF;stroke-width:7.438;stroke-miterlimit:10;}
</style>
<path class="st0" d="M571.06,310.22l0.44-1.68l-1.08-1.36c-4.29-5.38-9.64-9.57-15.9-12.44l-1.32-0.6l0.96-1.23l-3.43-4.76
	c-6.4-8.88-15.73-18.51-28.53-29.43c-29.24-30.59-89.63-38.65-109.07-35.34c-3.61,0.61-6.3,3.42-6.69,6.98
	c-0.38,3.42,1.19,5.69,3.21,7.27c1.57,1.22,3.41,2.04,4.83,2.67c2.31,1.03,5.53,2.34,9.25,3.87c10.01,4.1,39.81,16.3,44.69,22.87
	l1.17,9.56l-0.01-0.01l-63.19,80.76l-2.48-1.94l-19.37,17.08l-121.2,150.34l48.34,37.83l116.79-153.79l11.92-22.9l-2.48-1.94
	l63.26-80.84c3.19,1.51,7.46,4.03,11.1,6.67l0.16,0.11c4.68,3.23,9.75,6.56,15.03,9.1l5.66,2.72l0.36-0.45l0.85,1.1
	c1.9,2.49,4.4,4.84,7.01,6.89c3.03,2.37,6.24,4.33,8.89,5.59l1.6,0.76l1.55-0.85C562.52,327.82,568.47,320.22,571.06,310.22z"/>
<g id="XMLID_8_">
	<g>
		<polygon class="st1" points="431.27,401.51 422.62,429.89 417.57,454.62 403.17,477.19 393.81,491.01 332.56,500.47 
			300.13,460.45 247.54,471.36 242.5,472.09 242.5,385.5 328.96,385.5 381.56,358.57 397.4,364.39 383.49,385.5 417.32,390.26 		"/>
	</g>
	<g>
		<polygon class="st2" points="242.5,385.5 328.96,385.5 381.56,358.57 397.4,364.39 383.49,385.5 417.32,390.26 431.27,401.51 
			422.62,429.89 417.57,454.62 403.17,477.19 393.81,491.01 332.56,500.47 300.13,460.45 247.54,471.36 242.5,472.09 		"/>
	</g>
</g>
</svg>
