<svg xmlns="http://www.w3.org/2000/svg" viewBox="0 0 600 600"><defs><style>.cls-1{fill:#fff;}.cls-2{fill:#42d4f7;}.cls-3{fill:#12b1f7;}</style></defs><title>Built By Hand</title><g id="Built_By_Hand" data-name="Built By Hand"><circle class="cls-1" cx="300" cy="300" r="150"/><path class="cls-2" d="M427.76,244.21l.31-1.2-.77-1a30.84,30.84,0,0,0-11.36-8.89l-.94-.43.68-.88-2.45-3.4c-4.57-6.34-11.24-13.22-20.38-21-20.9-21.85-64-27.61-77.93-25.25a5.7,5.7,0,0,0-4.78,5,5.46,5.46,0,0,0,2.29,5.2,16.26,16.26,0,0,0,3.45,1.91c1.65.73,3.95,1.67,6.61,2.76,7.15,2.93,28.44,11.65,31.93,16.34l.84,6.83h0l-45.15,57.7-1.77-1.39-13.84,12.2-86.6,107.42,34.54,27,83.45-109.88,8.51-16.37-1.76-1.38,45.2-57.76a55.17,55.17,0,0,1,7.93,4.76l.11.08a82,82,0,0,0,10.74,6.51l4,1.94.25-.32.61.79a28.51,28.51,0,0,0,5,4.92,35.64,35.64,0,0,0,6.35,4L414,261l1.11-.61A24.94,24.94,0,0,0,427.76,244.21Z"/><polygon class="cls-3" points="235.65 347.45 196.72 355.53 196.72 301.72 255.67 301.72 292.6 282.81 297.99 284.79 287.4 300.86 316.38 304.94 323.59 310.76 318.09 328.8 314.59 345.97 304.69 361.47 298.94 369.96 258.89 376.15 235.65 347.45"/><path class="cls-1" d="M291.83,287.39l-4.3,6.52-6.47,9.82,11.64,1.64,22.14,3.11,4.46,3.6-4.72,15.47-.1.33-.07.35-3.33,16.32-9.5,14.87-4.81,7.11-36.33,5.62L240,346.87l-2.85-3.52-4.44.92L200.44,351V305.44h56.13l1.59-.82,33.67-17.23m.53-8.63L254.78,298H193v61.87l3.6-.52,37.58-7.8,23.17,28.6,43.76-6.76,6.69-9.88,10.29-16.12,3.61-17.67,6.18-20.28-10-8L293.74,298l9.94-15.08-11.32-4.16Z"/></g></svg>