<?xml version="1.0" encoding="utf-8"?>
<!-- Generator: Adobe Illustrator 23.0.3, SVG Export Plug-In . SVG Version: 6.00 Build 0)  -->
<svg version="1.1" id="Layer_1" xmlns="http://www.w3.org/2000/svg" xmlns:xlink="http://www.w3.org/1999/xlink" x="0px" y="0px"
	 viewBox="0 0 768 768" style="enable-background:new 0 0 768 768;" xml:space="preserve">
<style type="text/css">
	.st0{fill:none;stroke:#A5A5A5;stroke-width:4.5183;stroke-linejoin:round;stroke-miterlimit:10;}
	.st1{fill:#7C7C7C;}
	.st2{fill:#FFFFFF;stroke:#7C7C7C;stroke-width:4.5183;stroke-miterlimit:10;}
	.st3{fill:#FFFFFF;stroke:#7C7C7C;stroke-width:2.3085;stroke-miterlimit:10;}
	.st4{fill:#FFFFFF;}
	.st5{font-family:'AcuminPro-Bold';}
	.st6{font-size:60.8593px;}
	.st7{font-size:60.1022px;}
</style>
<polyline class="st0" points="244.93,322.97 256.82,281.8 268.7,240.63 280.59,281.8 292.47,322.97 "/>
<polyline class="st0" points="457.28,364.14 469.16,322.97 481.05,281.8 492.93,322.97 504.82,364.14 "/>
<g>
	<path class="st1" d="M482.9,289.8c-0.37,0-0.73-0.04-1.09-0.11L267.3,247.83c-1.49-0.29-2.78-1.15-3.63-2.41
		c-0.85-1.26-1.16-2.78-0.87-4.27l0.3-1.53c0.52-2.67,2.87-4.6,5.59-4.6c0.37,0,0.73,0.04,1.09,0.11l214.5,41.86
		c3.08,0.6,5.1,3.6,4.5,6.68l-0.3,1.53C487.97,287.86,485.62,289.8,482.9,289.8z"/>
	<g>
		<path class="st1" d="M268.69,237.27c0.22,0,0.44,0.02,0.66,0.06l214.51,41.86c1.86,0.36,3.08,2.17,2.71,4.03l-0.3,1.53
			c-0.32,1.64-1.76,2.78-3.37,2.78c-0.22,0-0.44-0.02-0.66-0.06l-214.51-41.86c-1.86-0.36-3.08-2.17-2.71-4.03l0.3-1.53
			C265.64,238.41,267.08,237.27,268.69,237.27 M268.69,232.76c-3.79,0-7.08,2.7-7.8,6.43l-0.3,1.53c-0.41,2.08,0.02,4.2,1.21,5.97
			c1.19,1.76,2.99,2.96,5.07,3.36l214.51,41.86c0.5,0.1,1.02,0.15,1.53,0.15c3.79,0,7.08-2.7,7.8-6.43l0.3-1.53
			c0.41-2.08-0.02-4.2-1.21-5.97c-1.19-1.76-2.99-2.96-5.07-3.36L270.22,232.9C269.71,232.81,269.2,232.76,268.69,232.76
			L268.69,232.76z"/>
	</g>
</g>
<path class="st1" d="M465.98,462.51h-34.22v-12.63c0-1.81-1.47-3.28-3.28-3.28h-33.04v-31.14h-37.97v31.14h-33.04
	c-1.81,0-3.28,1.47-3.28,3.28v12.63h-34.22c-2.36,0-4.27,1.91-4.27,4.27v27.54h187.59v-27.54
	C470.25,464.42,468.34,462.51,465.98,462.51z"/>
<g id="XMLID_1_">
	<g>
		<rect x="368.43" y="272.34" class="st1" width="16.06" height="167.95"/>
	</g>
	<g>
	</g>
</g>
<circle class="st2" cx="376.46" cy="263.22" r="12.47"/>
<circle class="st3" cx="482.61" cy="283.59" r="6.37"/>
<circle class="st3" cx="269.7" cy="241.8" r="6.37"/>
<g>
	<circle class="st1" cx="268.14" cy="335.59" r="32.13"/>
	<g>
		<text transform="matrix(0.9844 -0.1762 0.1762 0.9844 253.1741 361.2199)" class="st4 st5 st6">S</text>
		
			<rect x="265.59" y="309.32" transform="matrix(0.9844 -0.1762 0.1762 0.9844 -54.9477 52.436)" class="st4" width="4.45" height="52.65"/>
	</g>
</g>
<g>
	<circle class="st1" cx="481.05" cy="374.31" r="31.73"/>
	<g>
		<text transform="matrix(0.9484 0.317 -0.317 0.9484 455.855 389.2885)" class="st4 st5 st7">S</text>
		
			<rect x="478.54" y="348.21" transform="matrix(0.9484 0.317 -0.317 0.9484 143.4063 -133.0881)" class="st4" width="4.39" height="52"/>
	</g>
</g>
</svg>
