<svg xmlns="http://www.w3.org/2000/svg" viewBox="0 0 600 600"><defs><style>.cls-1,.cls-4,.cls-5,.cls-6,.cls-7{fill:#fff;}.cls-2{fill:none;stroke:#42d4f7;stroke-linejoin:round;}.cls-2,.cls-4{stroke-width:4.52px;}.cls-3{fill:#12b1f7;}.cls-4,.cls-5{stroke:#12b1f7;stroke-miterlimit:10;}.cls-5{stroke-width:2.31px;}.cls-6{font-size:49.6px;}.cls-6,.cls-7{font-family:AcuminPro-Bold, Acumin Pro;font-weight:700;}.cls-7{font-size:48.98px;}</style></defs><title>100% custom pricing</title><g id="_100_Custom_Pricing" data-name="100% Custom Pricing"><circle class="cls-1" cx="293.5" cy="292.45" r="150"/><polyline class="cls-2" points="194.49 260.67 204.18 227.12 213.86 193.56 223.55 227.12 233.24 260.67"/><polyline class="cls-2" points="367.55 294.23 377.23 260.67 386.92 227.12 396.61 260.67 406.29 294.23"/><path class="cls-3" d="M387.93,234a5.76,5.76,0,0,1-1.09-.11L213.27,200a5.7,5.7,0,0,1,1.08-11.29,5.78,5.78,0,0,1,1.1.11L389,222.66A5.7,5.7,0,0,1,387.93,234Z"/><path class="cls-3" d="M214.35,190.94a3.11,3.11,0,0,1,.67.07l173.57,33.87a3.44,3.44,0,0,1-.66,6.81,3,3,0,0,1-.66-.07L213.7,197.75a3.44,3.44,0,0,1,.65-6.81m0-4.52h0a8,8,0,0,0-1.52,15.76L386.4,236.06a8,8,0,1,0,3.05-15.61L215.88,186.57a7.86,7.86,0,0,0-1.53-.15Z"/><path class="cls-3" d="M229.51,374.39H373.85a4.27,4.27,0,0,1,4.27,4.27v21.65a0,0,0,0,1,0,0H225.24a0,0,0,0,1,0,0V378.67A4.27,4.27,0,0,1,229.51,374.39Z"/><path class="cls-3" d="M259.89,361.43h83.58a3.28,3.28,0,0,1,3.28,3.28v22.65a0,0,0,0,1,0,0H256.61a0,0,0,0,1,0,0V364.71A3.28,3.28,0,0,1,259.89,361.43Z"/><rect class="cls-3" x="286.21" y="336.05" width="30.95" height="34.52"/><rect class="cls-3" x="295.14" y="219.41" width="13.09" height="136.87"/><circle class="cls-4" cx="301.68" cy="211.98" r="10.16"/><circle class="cls-5" cx="388.19" cy="227.76" r="5.19"/><circle class="cls-5" cx="213.86" cy="193.7" r="5.19"/><circle class="cls-3" cx="213.4" cy="270.96" r="26.19"/><text class="cls-6" transform="matrix(0.98, -0.18, 0.18, 0.98, 201.14, 291.79)">S</text><rect class="cls-1" x="211.33" y="249.55" width="3.63" height="42.91" transform="translate(-44.41 41.79) rotate(-10.15)"/><circle class="cls-3" cx="386.92" cy="302.51" r="25.86"/><text class="cls-7" transform="translate(366.42 314.75) rotate(18.48)">S</text><rect class="cls-1" x="384.88" y="281.24" width="3.58" height="42.38" transform="translate(115.8 -106.97) rotate(18.48)"/></g></svg>