<?xml version="1.0" encoding="utf-8"?>
<!-- Generator: Adobe Illustrator 23.0.3, SVG Export Plug-In . SVG Version: 6.00 Build 0)  -->
<svg version="1.1" id="Layer_1" xmlns="http://www.w3.org/2000/svg" xmlns:xlink="http://www.w3.org/1999/xlink" x="0px" y="0px"
	 viewBox="0 0 768 768" style="enable-background:new 0 0 768 768;" xml:space="preserve">
<style type="text/css">
	.st0{fill:#FBAD5B;}
	.st1{fill:#F87637;}
</style>
<g id="XMLID_2_">
	<g>
		<path class="st0" d="M522.64,486.52l41.65,60.53l-3.47,4.64c-0.57,0.78-1.27,1.48-2.05,2.05l-4.64,3.47l-60.51-41.67l-84.41-84.39
			l14.51-14.51l14.51-14.53L522.64,486.52z"/>
		<polygon class="st1" points="559.87,219.96 545.12,251.43 530.34,282.9 513.63,266.21 496.94,249.5 528.41,234.72 		"/>
		
			<rect x="213.24" y="371.58" transform="matrix(0.7071 -0.7071 0.7071 0.7071 -167.8077 387.3074)" class="st1" width="340.75" height="49.26"/>
		<polygon class="st0" points="379.24,339.47 344.4,374.3 308.66,338.56 310.9,336.33 278.8,298.54 303.47,273.86 341.26,305.97 
			343.5,303.73 		"/>
		<path class="st0" d="M284.73,257.24c1.05,7.33-1.77,13.26-6.22,17.14c-5.21,4.52-11.35,6.08-17.57,5.6
			c-19.67-1.54-40.29-23.59-35.96-37.98c3.61-11.95-24.28-22.31-20.65-23.01c4.68-0.9,52.9,2.16,67.84,16.71
			C280.11,243.65,283.82,250.98,284.73,257.24z"/>
		<path class="st1" d="M271.82,543.28l-21.84,21.84c-1.56,1.56-4.08,1.56-5.67,0l-29.37-29.37c-1.56-1.56-1.56-4.11,0-5.67
			l21.84-21.84L271.82,543.28z"/>
	</g>
	<g>
	</g>
</g>
</svg>
