<?xml version="1.0" encoding="utf-8"?>
<!-- Generator: Adobe Illustrator 23.0.3, SVG Export Plug-In . SVG Version: 6.00 Build 0)  -->
<svg version="1.1" xmlns="http://www.w3.org/2000/svg" xmlns:xlink="http://www.w3.org/1999/xlink" x="0px" y="0px"
	 viewBox="0 0 768 768" style="enable-background:new 0 0 768 768;" xml:space="preserve">
<style type="text/css">
	.st0{fill:#7C7C7C;}
	.st1{fill:#A5A5A5;}
</style>
<g id="Layer_1">
	<g id="XMLID_1_">
		<g>
			<path class="st0" d="M554.86,254.52v281.07H187V254.52H554.86z M536.5,519.5v-215h-330v215H536.5z M536.32,291.89V271.1H267.41
				v20.79H536.32z M253.13,289.66c4.48,0,8.11-3.5,8.11-7.83c0-4.33-3.63-7.83-8.11-7.83c-4.48,0-8.11,3.5-8.11,7.83
				C245.02,286.16,248.65,289.66,253.13,289.66z M234.58,289.66c4.48,0,8.11-3.5,8.11-7.83c0-4.33-3.63-7.83-8.11-7.83
				s-8.11,3.5-8.11,7.83C226.47,286.16,230.1,289.66,234.58,289.66z M215.19,289.66c4.48,0,8.11-3.5,8.11-7.83
				c0-4.33-3.63-7.83-8.11-7.83s-8.11,3.5-8.11,7.83C207.08,286.16,210.71,289.66,215.19,289.66z"/>
			<rect x="225.37" y="481.78" class="st0" width="283.41" height="4.85"/>
			<rect x="225.37" y="446.28" class="st0" width="283.41" height="4.83"/>
			<rect x="413.45" y="410.76" class="st0" width="95.33" height="4.83"/>
			<rect x="413.45" y="375.25" class="st0" width="95.33" height="4.83"/>
			<rect x="413.45" y="339.73" class="st0" width="95.33" height="4.85"/>
		</g>
		<g>
		</g>
	</g>
</g>
<g id="Layer_2">
	<polygon class="st1" points="231.66,421.25 256.44,377.8 267.6,397.35 307.84,324.4 351.97,404.4 366.55,369.68 388.23,421.25 	"/>
</g>
</svg>
