<?xml version="1.0" encoding="utf-8"?>
<!-- Generator: Adobe Illustrator 23.0.3, SVG Export Plug-In . SVG Version: 6.00 Build 0)  -->
<svg version="1.1" xmlns="http://www.w3.org/2000/svg" xmlns:xlink="http://www.w3.org/1999/xlink" x="0px" y="0px"
	 viewBox="0 0 768 768" style="enable-background:new 0 0 768 768;" xml:space="preserve">
<style type="text/css">
	.st0{fill:#F87637;}
	.st1{fill:#FBAC5B;}
</style>
<g id="Layer_1">
	<rect x="225.37" y="481.78" class="st0" width="283.41" height="4.85"/>
	<rect x="225.37" y="446.28" class="st0" width="283.41" height="4.83"/>
	<rect x="413.45" y="410.76" class="st0" width="95.33" height="4.83"/>
	<rect x="413.45" y="375.25" class="st0" width="95.33" height="4.83"/>
	<rect x="413.45" y="339.73" class="st0" width="95.33" height="4.85"/>
	<path class="st0" d="M226.47,281.83c0,4.33,3.63,7.83,8.11,7.83s8.11-3.5,8.11-7.83s-3.63-7.83-8.11-7.83
		S226.47,277.5,226.47,281.83z M223.3,281.83c0-4.33-3.63-7.83-8.11-7.83s-8.11,3.5-8.11,7.83s3.63,7.83,8.11,7.83
		S223.3,286.16,223.3,281.83z M253.13,274c-4.48,0-8.11,3.5-8.11,7.83s3.63,7.83,8.11,7.83c4.48,0,8.11-3.5,8.11-7.83
		S257.61,274,253.13,274z M554.86,254.52v281.07H187V254.52H554.86z M536.32,291.89V271.1H267.41v20.79H536.32z M536.27,519.23
		V304.34H206.71v214.89H536.27z"/>
</g>
<g id="Layer_2">
	<polygon class="st1" points="231.66,421.25 256.44,377.8 267.6,397.35 307.84,324.4 351.97,404.4 366.55,369.68 388.23,421.25 	"/>
</g>
</svg>
