<?xml version="1.0" encoding="utf-8"?>
<!-- Generator: Adobe Illustrator 23.0.3, SVG Export Plug-In . SVG Version: 6.00 Build 0)  -->
<svg version="1.1" id="Layer_1" xmlns="http://www.w3.org/2000/svg" xmlns:xlink="http://www.w3.org/1999/xlink" x="0px" y="0px"
	 viewBox="0 0 768 768" style="enable-background:new 0 0 768 768;" xml:space="preserve">
<style type="text/css">
	.st0{fill:#7C7C7C;}
	.st1{fill:#FFFFFF;}
	.st2{fill:#A5A5A5;stroke:#FFFFFF;stroke-width:2.5419;stroke-miterlimit:10;}
	.st3{fill:#A5A5A5;}
	.st4{fill:none;stroke:#FFFFFF;stroke-width:2.395;stroke-linecap:round;stroke-miterlimit:10;}
</style>
<path class="st0" d="M496.52,485.37H253.5c-5.62,0-10.17-4.55-10.17-10.17V268.14c0-5.62,4.55-10.17,10.17-10.17h243.02
	c5.62,0,10.17,4.55,10.17,10.17V475.2C506.69,480.81,502.14,485.37,496.52,485.37z"/>
<path class="st1" d="M488.14,474.87H261.88c-5.01,0-9.07-4.06-9.07-9.07V289.04c0-5.01,4.06-9.07,9.07-9.07h226.26
	c5.01,0,9.07,4.06,9.07,9.07V465.8C497.2,470.81,493.14,474.87,488.14,474.87z"/>
<rect x="248.36" y="263.17" class="st0" width="253.22" height="46.08"/>
<g>
	<path class="st2" d="M297.42,274.13h-11.86c-2.81,0-5.08-2.28-5.08-5.08v-31.96c0-2.81,2.28-5.08,5.08-5.08h11.86
		c2.81,0,5.08,2.28,5.08,5.08v31.96C302.51,271.86,300.23,274.13,297.42,274.13z"/>
	<path class="st2" d="M464.46,274.13h-11.86c-2.81,0-5.08-2.28-5.08-5.08v-31.96c0-2.81,2.28-5.08,5.08-5.08h11.86
		c2.81,0,5.08,2.28,5.08,5.08v31.96C469.54,271.86,467.26,274.13,464.46,274.13z"/>
</g>
<g>
	<path class="st0" d="M383.99,363.64h-17.97c-1.67,0-3.02-1.35-3.02-3.02v-17.97c0-1.67,1.35-3.02,3.02-3.02h17.97
		c1.67,0,3.02,1.35,3.02,3.02v17.97C387.01,362.29,385.66,363.64,383.99,363.64z"/>
	<path class="st0" d="M342.23,363.64h-17.97c-1.67,0-3.02-1.35-3.02-3.02v-17.97c0-1.67,1.35-3.02,3.02-3.02h17.97
		c1.67,0,3.02,1.35,3.02,3.02v17.97C345.26,362.29,343.9,363.64,342.23,363.64z"/>
	<path class="st0" d="M425.75,363.64h-17.97c-1.67,0-3.02-1.35-3.02-3.02v-17.97c0-1.67,1.35-3.02,3.02-3.02h17.97
		c1.67,0,3.02,1.35,3.02,3.02v17.97C428.77,362.29,427.42,363.64,425.75,363.64z"/>
	<path class="st0" d="M467.51,363.64h-17.97c-1.67,0-3.02-1.35-3.02-3.02v-17.97c0-1.67,1.35-3.02,3.02-3.02h17.97
		c1.67,0,3.02,1.35,3.02,3.02v17.97C470.53,362.29,469.18,363.64,467.51,363.64z"/>
</g>
<path class="st0" d="M300.48,404.56h-17.97c-1.67,0-3.02-1.35-3.02-3.02v-17.97c0-1.67,1.35-3.02,3.02-3.02h17.97
	c1.67,0,3.02,1.35,3.02,3.02v17.97C303.5,403.2,302.14,404.56,300.48,404.56z"/>
<path class="st0" d="M342.23,404.56h-17.97c-1.67,0-3.02-1.35-3.02-3.02v-17.97c0-1.67,1.35-3.02,3.02-3.02h17.97
	c1.67,0,3.02,1.35,3.02,3.02v17.97C345.26,403.2,343.9,404.56,342.23,404.56z"/>
<path class="st0" d="M383.99,404.56h-17.97c-1.67,0-3.02-1.35-3.02-3.02v-17.97c0-1.67,1.35-3.02,3.02-3.02h17.97
	c1.67,0,3.02,1.35,3.02,3.02v17.97C387.01,403.2,385.66,404.56,383.99,404.56z"/>
<path class="st3" d="M425.75,404.56h-17.97c-1.67,0-3.02-1.35-3.02-3.02v-17.97c0-1.67,1.35-3.02,3.02-3.02h17.97
	c1.67,0,3.02,1.35,3.02,3.02v17.97C428.77,403.2,427.42,404.56,425.75,404.56z"/>
<path class="st0" d="M467.51,404.56h-17.97c-1.67,0-3.02-1.35-3.02-3.02v-17.97c0-1.67,1.35-3.02,3.02-3.02h17.97
	c1.67,0,3.02,1.35,3.02,3.02v17.97C470.53,403.2,469.18,404.56,467.51,404.56z"/>
<g>
	<path class="st0" d="M300.48,445.47h-17.97c-1.67,0-3.02-1.35-3.02-3.02v-17.97c0-1.67,1.35-3.02,3.02-3.02h17.97
		c1.67,0,3.02,1.35,3.02,3.02v17.97C303.5,444.12,302.14,445.47,300.48,445.47z"/>
	<path class="st0" d="M342.23,445.47h-17.97c-1.67,0-3.02-1.35-3.02-3.02v-17.97c0-1.67,1.35-3.02,3.02-3.02h17.97
		c1.67,0,3.02,1.35,3.02,3.02v17.97C345.26,444.12,343.9,445.47,342.23,445.47z"/>
	<path class="st0" d="M383.99,445.47h-17.97c-1.67,0-3.02-1.35-3.02-3.02v-17.97c0-1.67,1.35-3.02,3.02-3.02h17.97
		c1.67,0,3.02,1.35,3.02,3.02v17.97C387.01,444.12,385.66,445.47,383.99,445.47z"/>
	<path class="st0" d="M425.75,445.47h-17.97c-1.67,0-3.02-1.35-3.02-3.02v-17.97c0-1.67,1.35-3.02,3.02-3.02h17.97
		c1.67,0,3.02,1.35,3.02,3.02v17.97C428.77,444.12,427.42,445.47,425.75,445.47z"/>
	<path class="st0" d="M467.51,445.47h-17.97c-1.67,0-3.02-1.35-3.02-3.02v-17.97c0-1.67,1.35-3.02,3.02-3.02h17.97
		c1.67,0,3.02,1.35,3.02,3.02v17.97C470.53,444.12,469.18,445.47,467.51,445.47z"/>
</g>
<polyline class="st4" points="426.58,386.63 414.77,400 407.7,394.65 "/>
</svg>
