<?xml version="1.0" encoding="utf-8"?>
<!-- Generator: Adobe Illustrator 23.0.3, SVG Export Plug-In . SVG Version: 6.00 Build 0)  -->
<svg version="1.1" id="Layer_1" xmlns="http://www.w3.org/2000/svg" xmlns:xlink="http://www.w3.org/1999/xlink" x="0px" y="0px"
	 viewBox="0 0 768 768" style="enable-background:new 0 0 768 768;" xml:space="preserve">
<style type="text/css">
	.st0{fill:#F87637;}
	.st1{fill:#FBAD5B;}
	.st2{fill:#FFFFFF;}
	.st3{fill:none;stroke:#FFFFFF;stroke-width:3;stroke-miterlimit:10;}
	.st4{fill:none;stroke:#F87637;stroke-width:3;stroke-miterlimit:10;}
	.st5{clip-path:url(#SVGID_2_);}
	.st6{clip-path:url(#SVGID_4_);fill:#F87637;}
	.st7{clip-path:url(#SVGID_4_);}
	.st8{clip-path:url(#SVGID_6_);}
	.st9{clip-path:url(#SVGID_8_);fill:#F87637;}
	.st10{clip-path:url(#SVGID_8_);fill:#FBAD5B;}
	.st11{clip-path:url(#SVGID_10_);}
	.st12{clip-path:url(#SVGID_12_);fill:#F87637;}
	.st13{clip-path:url(#SVGID_12_);fill:#FFFFFF;}
	.st14{clip-path:url(#SVGID_4_);fill:none;stroke:#FFFFFF;stroke-width:3;stroke-miterlimit:10;}
	.st15{clip-path:url(#SVGID_4_);fill:none;stroke:#F87637;stroke-width:3;stroke-miterlimit:10;}
</style>
<g>
	<path class="st0" d="M239,235.23v240.11h314.26V235.23H239z M295.49,251.87c3.82,0,6.93,3,6.93,6.69c0,3.7-3.1,6.69-6.93,6.69
		c-3.83,0-6.93-3-6.93-6.69C288.57,254.87,291.67,251.87,295.49,251.87z M279.65,251.87c3.82,0,6.93,3,6.93,6.69
		c0,3.7-3.1,6.69-6.93,6.69c-3.82,0-6.93-3-6.93-6.69C272.73,254.87,275.83,251.87,279.65,251.87z M263.09,251.87
		c3.82,0,6.93,3,6.93,6.69c0,3.7-3.1,6.69-6.93,6.69s-6.93-3-6.93-6.69C256.16,254.87,259.26,251.87,263.09,251.87z M537.38,461.37
		H255.85V277.79h281.54V461.37z M537.42,267.15H307.69V249.4h229.72V267.15z"/>
</g>
<g id="XMLID_4_">
	<g>
		<path class="st0" d="M435.54,409.79c0.03,0.61,0.06,1.22,0.06,1.84c0,2.07-0.21,4.14-0.63,6.17l-3.67,0.89l-0.19,0.67
			c-0.08,0.31-0.19,0.6-0.31,0.9c-0.14,0.42-0.26,0.86-0.43,1.28l-0.29,0.74l2.54,2.49c-1.22,2.54-2.81,4.92-4.71,7.08l-3.59-1.04
			l-0.5,0.47c-0.35,0.33-0.72,0.67-1.08,0.99l-0.58,0.49l0.96,3.45c-2.41,1.75-5.03,3.14-7.83,4.12l-2.53-2.66l-0.68,0.18
			c-0.29,0.07-0.61,0.14-0.97,0.22l-0.71,0.17l-0.9,3.52c-2.91,0.4-5.99,0.39-8.97-0.06l-0.85-3.52l-0.7-0.18
			c-0.33-0.08-0.67-0.17-0.99-0.25l-0.67-0.19l-2.6,2.64c-2.78-1.02-5.38-2.43-7.76-4.23l1.02-3.43l-0.57-0.5
			c-0.38-0.33-0.74-0.67-1.08-1.02l-0.5-0.47l-3.6,1.02c-1.88-2.17-3.43-4.56-4.63-7.15l1.25-1.18l1.33-1.28l-0.03-0.1l-0.25-0.64
			c-0.06-0.17-0.1-0.33-0.15-0.5c-0.21-0.56-0.4-1.13-0.57-1.71l-0.18-0.65l-3.66-0.95c-0.36-1.88-0.54-3.81-0.54-5.77
			c0-0.79,0.01-1.53,0.07-2.24l3.48-0.85l0.13-0.79c0.15-1.1,0.39-2.18,0.68-3.24l0.18-0.67l-2.7-2.66c0.86-2.36,2.02-4.6,3.43-6.67
			l3.48,1.02l0.5-0.63c0.85-1.08,1.79-2.11,2.82-3.06l0.53-0.49l-1-3.62c1.86-1.47,3.91-2.73,6.09-3.74l2.52,2.64l0.74-0.26
			c1.46-0.54,2.98-0.96,4.51-1.25l0.75-0.14l0.25-0.97l0.67-2.61c1.63-0.17,3.21-0.17,4.8-0.08c0.74,0.03,1.46,0.04,2.2,0.14
			l0.11,0.43l0.76,3.17l0.74,0.14c1.54,0.32,3.06,0.75,4.51,1.32l0.72,0.28l2.54-2.6c2.16,1.03,4.19,2.31,6.05,3.81l-1.06,3.59
			l0.53,0.5c0.18,0.18,0.36,0.38,0.54,0.57c0.29,0.29,0.58,0.57,0.85,0.88c0.28,0.31,0.54,0.63,0.81,0.95
			c0.19,0.24,0.4,0.46,0.58,0.7l0.49,0.64l3.48-0.96c1.4,2.1,2.52,4.37,3.35,6.74l-2.73,2.6l0.18,0.67
			c0.26,1.06,0.47,2.14,0.63,3.24l0.1,0.79L435.54,409.79z M412.61,411.63c0-4.1-3.32-7.43-7.43-7.43s-7.43,3.32-7.43,7.43
			s3.32,7.43,7.43,7.43S412.61,415.73,412.61,411.63z"/>
		<path class="st0" d="M432.03,387.74c0,6.22,5.05,11.28,11.26,11.28c6.22,0,11.28-5.06,11.28-11.28c0-6.23-5.06-11.29-11.28-11.29
			C437.08,376.45,432.03,381.51,432.03,387.74z M436.39,401.57c-0.99-3.11-2.46-6.08-4.37-8.77l-0.49-0.7l-3.57,1
			c-0.21-0.26-0.44-0.5-0.67-0.75c-0.26-0.31-0.54-0.61-0.82-0.9c-0.18-0.18-0.33-0.39-0.51-0.57l0.6-2.03l0.49-1.65l-0.58-0.5
			c-2.41-2.04-5.08-3.74-7.95-5.02l-0.75-0.33l-2.63,2.67c-1.1-0.39-2.24-0.72-3.41-0.99l-0.89-3.7l-0.79-0.11
			c-0.17-0.03-0.32-0.04-0.49-0.06c0.28-1.08,0.6-2.16,0.97-3.21l0.53-1.47l-1.15-1.07l-6.83-6.34c0.39-0.78,0.81-1.54,1.25-2.29
			l9.04,2.39l1.5,0.4l0.97-1.24c1.47-1.89,3.14-3.63,4.96-5.17l1.2-1.02l-0.46-1.5l-2.74-8.93c0.72-0.47,1.47-0.92,2.22-1.35
			l5.52,5.48l1.11,1.1l0.24,0.24l0.88,0.86l0.96-0.39l0.49-0.19c0.49-0.19,1-0.35,1.49-0.51c0.7-0.25,1.36-0.5,2.07-0.7
			c1.1-0.32,2.21-0.58,3.34-0.78l1.54-0.28l0.35-1.53l2.09-9.09c0.75-0.04,1.49-0.06,2.21-0.06c0.14,0,0.26,0,0.4,0l2.45,9.01
			l0.4,1.52l1.56,0.21c2.38,0.33,4.73,0.9,6.97,1.71l1.47,0.53l1.07-1.14l6.35-6.84c0.78,0.4,1.54,0.82,2.28,1.27l-2.38,9.02
			l-0.4,1.52l1.24,0.96c1.88,1.47,3.62,3.14,5.17,4.98l1.02,1.2l1.49-0.46l8.93-2.75c0.47,0.74,0.93,1.49,1.36,2.24l-6.58,6.62
			l-1.11,1.11l0.6,1.46c0.9,2.22,1.57,4.53,1.99,6.88l0.28,1.56l1.53,0.35l9.09,2.09c0.04,0.74,0.06,1.47,0.06,2.21
			c0,0.13,0,0.26,0,0.39l-9.01,2.45l-1.52,0.42l-0.21,1.56c-0.33,2.38-0.9,4.71-1.71,6.97l-0.54,1.47l1.15,1.07l6.84,6.35
			c-0.4,0.76-0.82,1.53-1.27,2.28l-9.02-2.39l-1.52-0.39l-0.97,1.22c-1.46,1.89-3.14,3.63-4.96,5.17l-1.2,1.02l0.46,1.5l2.74,8.93
			c-0.72,0.47-1.47,0.92-2.22,1.35l-6.62-6.58l-1.11-1.1l-1.46,0.58c-2.22,0.9-4.55,1.57-6.9,2l-1.54,0.28l-0.35,1.53l-2.09,9.08
			c-0.74,0.04-1.49,0.06-2.21,0.06c-0.14,0-0.26,0-0.4,0l-2.45-9l-0.4-1.52l-1.56-0.22c-1.84-0.25-3.64-0.7-5.41-1.24
			c0.04-0.1,0.08-0.21,0.11-0.31l3.77-0.92l0.17-0.71c0.56-2.43,0.85-4.92,0.85-7.43c0-0.96-0.06-1.92-0.13-2.88l-0.07-0.83
			l-3.56-0.92c-0.11-0.68-0.25-1.36-0.4-2.03l2.81-2.68L436.39,401.57z"/>
		<path class="st1" d="M375.13,423.46c-0.75,0.03-1.5,0.06-2.25,0.06c-3.85,0-7.62-0.35-11.29-1.02l-1.74-7.16
			c-0.68-0.17-1.35-0.33-2.03-0.51l-5.24,5.35c-6.92-2.35-13.31-5.85-18.91-10.3l2.06-6.99c-0.78-0.68-1.53-1.38-2.25-2.09
			l-7.34,2.04c-4.69-5.14-8.52-11.05-11.3-17.53l5.24-5.01c-0.56-1.5-1.07-3.05-1.5-4.6l-7.44-1.92c-0.95-4.34-1.45-8.84-1.45-13.46
			c0-2.16,0.11-4.28,0.32-6.38l7.06-1.72c0.35-2.29,0.82-4.55,1.42-6.76l-5.48-5.38c2.04-6.05,4.98-11.68,8.65-16.76l7.04,2.06
			c1.81-2.28,3.8-4.41,5.92-6.38l-2.04-7.34c4.63-3.84,9.83-7.04,15.43-9.44l5.13,5.37c3.02-1.13,6.16-2,9.41-2.6l1.86-7.29
			c2.77-0.36,5.59-0.56,8.47-0.56c3.17,0,6.3,0.24,9.34,0.68l1.78,7.3c3.23,0.65,6.37,1.57,9.37,2.74l5.19-5.28
			c5.58,2.49,10.72,5.76,15.31,9.66l-2.13,7.29c2.1,2,4.05,4.16,5.83,6.47l7.04-1.96c3.6,5.12,6.45,10.8,8.43,16.89l-5.53,5.28
			c0.56,2.13,0.97,4.3,1.28,6.51l-1.43-1.43l-1.46-1.43l-4.44-4.42c-1.89,0.99-3.71,2.09-5.45,3.3l3.27,10.61
			c-1.95,1.65-3.74,3.52-5.31,5.53l-10.73-2.84c-1.14,1.78-2.17,3.63-3.07,5.56l8.13,7.56c-0.44,1.22-0.82,2.49-1.13,3.77
			c-2.1-0.13-4.2-0.07-6.35,0.22l-0.79,0.1l-0.96,3.7c-1.15,0.25-2.29,0.56-3.41,0.95l-2.61-2.73l-0.75,0.32
			c-2.92,1.27-5.6,2.91-8.01,4.91l-0.58,0.49l1.03,3.73c-0.72,0.7-1.4,1.43-2.04,2.2l-3.57-1.04l-0.49,0.68
			c-1.92,2.64-3.43,5.58-4.49,8.69l-0.24,0.71l2.78,2.73c-0.17,0.67-0.31,1.36-0.43,2.04l-3.57,0.88l-0.08,0.82
			c-0.11,1.04-0.17,2.13-0.17,3.32c0,2.38,0.25,4.73,0.75,6.99l0.15,0.71l3.77,0.97c0.07,0.22,0.14,0.44,0.21,0.67
			c0.04,0.11,0.07,0.22,0.11,0.33l-0.93,0.88L375.13,423.46z M385.35,360.32c0-6.88-5.59-12.47-12.47-12.47
			c-6.9,0-12.47,5.59-12.47,12.47c0,6.9,5.58,12.47,12.47,12.47C379.76,372.79,385.35,367.21,385.35,360.32z"/>
	</g>
	<g>
	</g>
</g>
<g id="XMLID_5_">
	<g>
		<path class="st0" d="M439.04,408.72c0.08,0.97,0.13,1.93,0.13,2.92c0,2.57-0.31,5.08-0.88,7.49l-4,0.95
			c-0.25,0.82-0.52,1.61-0.84,2.4l2.77,2.65c-1.54,3.38-3.66,6.44-6.21,9.11l-3.9-1.12c-0.4,0.37-0.81,0.73-1.23,1.08l1.04,3.67
			c-3.05,2.29-6.5,4.09-10.24,5.27l-2.78-2.83c-0.36,0.09-0.73,0.17-1.09,0.25l-0.98,3.74c-1.84,0.3-3.72,0.46-5.64,0.46
			c-2.07,0-4.1-0.19-6.07-0.53l-0.94-3.75c-0.36-0.09-0.73-0.18-1.08-0.28l-2.83,2.81c-3.72-1.23-7.14-3.07-10.16-5.4l1.1-3.67
			c-0.42-0.36-0.83-0.72-1.22-1.1l-3.95,1.08c-2.51-2.7-4.58-5.8-6.08-9.18l2.82-2.63c-0.31-0.79-0.57-1.59-0.81-2.41l-4.01-1.01
			c-0.5-2.27-0.77-4.63-0.77-7.05c0-1.14,0.05-2.25,0.16-3.36l3.8-0.9c0.18-1.21,0.44-2.39,0.77-3.54l-2.95-2.83
			c1.09-3.17,2.68-6.13,4.65-8.78l3.79,1.09c0.97-1.2,2.03-2.31,3.18-3.35l-1.09-3.84c2.49-2.01,5.28-3.69,8.3-4.95l2.76,2.81
			c1.63-0.59,3.31-1.05,5.06-1.36l1-3.81c1.49-0.19,3.02-0.29,4.56-0.29c1.71,0,3.38,0.12,5.03,0.36l0.95,3.82
			c1.74,0.34,3.42,0.82,5.04,1.43l2.79-2.77c3,1.3,5.77,3.02,8.24,5.07l-1.14,3.81c1.12,1.05,2.18,2.18,3.13,3.39l3.78-1.04
			c1.94,2.69,3.48,5.68,4.54,8.86l-2.97,2.77c0.31,1.16,0.54,2.33,0.71,3.54L439.04,408.72z M411.9,411.64c0-3.62-3-6.54-6.7-6.54
			c-3.71,0-6.72,2.93-6.72,6.54c0,3.61,3,6.53,6.72,6.53C408.89,418.17,411.9,415.24,411.9,411.64z"/>
		<path class="st2" d="M405.19,405.09c3.7,0,6.7,2.93,6.7,6.54c0,3.61-3,6.53-6.7,6.53c-3.71,0-6.72-2.93-6.72-6.53
			C398.48,408.02,401.48,405.09,405.19,405.09z"/>
	</g>
	<g>
		<path class="st3" d="M438.3,419.13c0.57-2.41,0.88-4.92,0.88-7.49c0-0.99-0.05-1.95-0.13-2.92l-3.77-0.95
			c-0.16-1.21-0.4-2.38-0.71-3.54l2.97-2.77c-1.06-3.19-2.6-6.18-4.54-8.86l-3.78,1.04c-0.95-1.21-2-2.34-3.13-3.39l1.14-3.81
			c-2.46-2.05-5.23-3.76-8.24-5.07l-2.79,2.77c-1.61-0.62-3.3-1.1-5.04-1.43l-0.95-3.82c-1.65-0.24-3.32-0.36-5.03-0.36
			c-1.54,0-3.07,0.1-4.56,0.29l-1,3.81c-1.75,0.32-3.43,0.78-5.06,1.36l-2.76-2.81c-3.02,1.26-5.81,2.94-8.3,4.95l1.09,3.84
			c-1.14,1.04-2.21,2.15-3.18,3.35l-3.79-1.09c-1.97,2.66-3.56,5.62-4.65,8.78l2.95,2.83c-0.33,1.15-0.58,2.33-0.77,3.54l-3.8,0.9
			c-0.11,1.11-0.16,2.22-0.16,3.36c0,2.42,0.27,4.78,0.77,7.05l4.01,1.01c0.24,0.82,0.5,1.62,0.81,2.41l-2.82,2.63
			c1.5,3.39,3.57,6.48,6.08,9.18l3.95-1.08c0.39,0.38,0.8,0.74,1.22,1.1l-1.1,3.67c3.02,2.33,6.44,4.17,10.16,5.4l2.83-2.81
			c0.36,0.1,0.73,0.19,1.08,0.28l0.94,3.75c1.97,0.34,4,0.53,6.07,0.53c1.92,0,3.8-0.16,5.64-0.46l0.98-3.74
			c0.37-0.08,0.74-0.16,1.09-0.25l2.78,2.83c3.74-1.18,7.2-2.98,10.24-5.27l-1.04-3.67c0.42-0.35,0.83-0.71,1.23-1.08l3.9,1.12
			c2.56-2.67,4.67-5.74,6.21-9.11l-2.77-2.65c0.32-0.79,0.59-1.58,0.84-2.4L438.3,419.13z"/>
		<path class="st4" d="M405.19,418.17c-3.71,0-6.72-2.93-6.72-6.53c0-3.62,3-6.54,6.72-6.54c3.7,0,6.7,2.93,6.7,6.54
			C411.9,415.24,408.89,418.17,405.19,418.17z"/>
	</g>
</g>
<g>
	<g>
		<defs>
			<rect id="SVGID_1_" width="768" height="768"/>
		</defs>
		<clipPath id="SVGID_2_">
			<use xlink:href="#SVGID_1_"  style="overflow:visible;"/>
		</clipPath>
		<g class="st5">
			<defs>
				<rect id="SVGID_3_" width="768" height="768"/>
			</defs>
			<clipPath id="SVGID_4_">
				<use xlink:href="#SVGID_3_"  style="overflow:visible;"/>
			</clipPath>
			<path class="st6" d="M239,475.34h314.26V235.23H239V475.34z M295.49,251.87c3.82,0,6.93,3,6.93,6.69c0,3.7-3.1,6.69-6.93,6.69
				c-3.83,0-6.93-3-6.93-6.69C288.57,254.87,291.67,251.87,295.49,251.87 M279.65,251.87c3.83,0,6.93,3,6.93,6.69
				c0,3.7-3.1,6.69-6.93,6.69c-3.82,0-6.92-3-6.92-6.69C272.73,254.87,275.83,251.87,279.65,251.87 M263.09,251.87
				c3.83,0,6.93,3,6.93,6.69c0,3.7-3.1,6.69-6.93,6.69c-3.82,0-6.93-3-6.93-6.69C256.16,254.87,259.26,251.87,263.09,251.87
				 M537.39,461.37H255.85V277.79h281.54V461.37z M537.42,267.15H307.7V249.4h229.72V267.15z"/>
			<g class="st7">
				<defs>
					<rect id="SVGID_5_" x="309.68" y="297.13" width="178.85" height="144.91"/>
				</defs>
				<clipPath id="SVGID_6_">
					<use xlink:href="#SVGID_5_"  style="overflow:visible;"/>
				</clipPath>
				<g class="st8">
					<defs>
						<rect id="SVGID_7_" x="309.68" y="297.13" width="178.85" height="144.91"/>
					</defs>
					<clipPath id="SVGID_8_">
						<use xlink:href="#SVGID_7_"  style="overflow:visible;"/>
					</clipPath>
					<path class="st9" d="M435.54,409.79c0.03,0.61,0.05,1.22,0.05,1.83c0,2.07-0.21,4.15-0.63,6.17l-3.67,0.89l-0.2,0.67
						c-0.08,0.31-0.19,0.6-0.31,0.9c-0.14,0.42-0.26,0.86-0.43,1.28l-0.29,0.74l2.54,2.49c-1.22,2.54-2.81,4.92-4.71,7.08
						l-3.59-1.04l-0.5,0.47c-0.35,0.33-0.72,0.67-1.08,0.99l-0.58,0.49l0.96,3.45c-2.4,1.75-5.03,3.14-7.83,4.12l-2.53-2.66
						l-0.68,0.18c-0.29,0.07-0.61,0.14-0.97,0.22l-0.71,0.17l-0.9,3.52c-2.91,0.4-5.99,0.39-8.97-0.06l-0.85-3.52l-0.7-0.18
						c-0.33-0.08-0.67-0.17-0.99-0.25l-0.67-0.19l-2.6,2.64c-2.78-1.01-5.38-2.43-7.76-4.23l1.02-3.44l-0.57-0.5
						c-0.38-0.33-0.74-0.67-1.08-1.02l-0.5-0.47l-3.6,1.02c-1.88-2.17-3.43-4.56-4.63-7.15l1.25-1.18l1.34-1.28l-0.03-0.1
						l-0.25-0.64c-0.05-0.17-0.1-0.33-0.15-0.5c-0.21-0.56-0.4-1.13-0.57-1.71l-0.18-0.65l-3.66-0.95
						c-0.36-1.88-0.54-3.81-0.54-5.77c0-0.79,0.01-1.53,0.07-2.24l3.48-0.85l0.13-0.79c0.15-1.1,0.39-2.18,0.68-3.24l0.18-0.67
						l-2.7-2.65c0.86-2.36,2.02-4.6,3.43-6.67l3.48,1.01l0.5-0.63c0.85-1.08,1.79-2.11,2.82-3.06l0.53-0.49l-1-3.62
						c1.86-1.47,3.91-2.73,6.09-3.74l2.52,2.64l0.74-0.26c1.46-0.54,2.98-0.96,4.51-1.25l0.75-0.14l0.25-0.97l0.67-2.61
						c1.63-0.17,3.21-0.17,4.8-0.08c0.74,0.03,1.46,0.04,2.2,0.14l0.11,0.43l0.76,3.17l0.74,0.14c1.54,0.32,3.06,0.75,4.51,1.32
						l0.72,0.28l2.54-2.6c2.15,1.03,4.18,2.31,6.05,3.81l-1.06,3.59l0.53,0.5c0.18,0.18,0.36,0.38,0.54,0.57
						c0.29,0.29,0.58,0.57,0.85,0.88c0.28,0.31,0.54,0.63,0.81,0.95c0.19,0.24,0.4,0.46,0.58,0.7l0.49,0.64l3.48-0.96
						c1.4,2.1,2.52,4.37,3.35,6.74l-2.73,2.6l0.18,0.67c0.26,1.06,0.47,2.14,0.63,3.24l0.1,0.79L435.54,409.79z M412.61,411.63
						c0-4.1-3.32-7.42-7.43-7.42s-7.43,3.32-7.43,7.42c0,4.1,3.32,7.43,7.43,7.43S412.61,415.73,412.61,411.63"/>
					<path class="st9" d="M432.03,387.74c0,6.22,5.05,11.28,11.26,11.28s11.28-5.06,11.28-11.28c0-6.23-5.06-11.29-11.28-11.29
						S432.03,381.51,432.03,387.74 M436.39,401.57c-0.99-3.11-2.46-6.08-4.37-8.77l-0.49-0.7l-3.57,1c-0.21-0.26-0.44-0.5-0.67-0.75
						c-0.26-0.31-0.54-0.61-0.82-0.9c-0.18-0.18-0.33-0.39-0.52-0.57l0.6-2.03l0.49-1.65l-0.58-0.5c-2.4-2.04-5.08-3.74-7.95-5.02
						l-0.75-0.33l-2.63,2.67c-1.1-0.39-2.24-0.72-3.41-0.99l-0.89-3.7l-0.79-0.11c-0.17-0.03-0.32-0.04-0.49-0.06
						c0.28-1.08,0.6-2.15,0.97-3.21l0.53-1.47l-1.15-1.07l-6.83-6.34c0.39-0.78,0.81-1.54,1.25-2.29l9.04,2.39l1.5,0.4l0.97-1.24
						c1.47-1.89,3.14-3.63,4.96-5.17l1.2-1.02l-0.46-1.5l-2.74-8.93c0.72-0.47,1.47-0.92,2.23-1.35l5.52,5.48l1.11,1.1l0.24,0.24
						l0.88,0.86l0.96-0.39l0.49-0.19c0.49-0.2,1-0.35,1.49-0.51c0.69-0.25,1.36-0.5,2.07-0.7c1.1-0.32,2.21-0.58,3.34-0.78
						l1.54-0.28l0.35-1.53l2.09-9.09c0.75-0.04,1.49-0.06,2.21-0.06h0.4l2.45,9.01l0.4,1.52l1.56,0.21c2.38,0.33,4.73,0.9,6.96,1.71
						l1.48,0.53l1.07-1.14l6.36-6.84c0.78,0.4,1.54,0.82,2.28,1.26l-2.38,9.02l-0.4,1.52l1.24,0.96c1.88,1.47,3.61,3.14,5.17,4.98
						l1.02,1.2l1.49-0.46l8.93-2.75c0.47,0.74,0.93,1.49,1.36,2.24l-6.58,6.62l-1.11,1.11l0.6,1.46c0.9,2.23,1.57,4.53,1.99,6.88
						l0.28,1.56l1.53,0.35l9.09,2.09c0.04,0.74,0.06,1.47,0.06,2.21v0.39l-9.01,2.45l-1.52,0.42l-0.21,1.56
						c-0.33,2.38-0.9,4.71-1.71,6.97l-0.54,1.47l1.15,1.07l6.84,6.35c-0.4,0.76-0.82,1.53-1.26,2.28l-9.03-2.39l-1.51-0.39
						l-0.97,1.22c-1.46,1.89-3.14,3.63-4.96,5.17l-1.2,1.02l0.46,1.5l2.74,8.93c-0.72,0.47-1.47,0.92-2.23,1.35l-6.62-6.58
						l-1.11-1.1l-1.46,0.58c-2.22,0.9-4.55,1.57-6.9,2l-1.54,0.28l-0.35,1.53l-2.09,9.08c-0.74,0.04-1.49,0.06-2.21,0.06h-0.4
						l-2.45-9l-0.4-1.52l-1.56-0.22c-1.83-0.25-3.64-0.7-5.41-1.24c0.04-0.1,0.08-0.21,0.11-0.31l3.77-0.92l0.17-0.71
						c0.56-2.43,0.85-4.92,0.85-7.43c0-0.96-0.06-1.92-0.13-2.88l-0.07-0.83l-3.56-0.92c-0.11-0.68-0.25-1.36-0.4-2.03l2.81-2.68
						L436.39,401.57z"/>
					<path class="st10" d="M375.13,423.46c-0.75,0.03-1.5,0.06-2.25,0.06c-3.85,0-7.62-0.35-11.29-1.02l-1.74-7.16
						c-0.68-0.17-1.35-0.33-2.03-0.51l-5.24,5.35c-6.92-2.35-13.31-5.85-18.91-10.3l2.06-6.99c-0.78-0.68-1.53-1.38-2.25-2.09
						l-7.34,2.04c-4.69-5.14-8.52-11.05-11.3-17.53l5.24-5.01c-0.56-1.5-1.07-3.05-1.5-4.6l-7.44-1.92
						c-0.95-4.34-1.45-8.84-1.45-13.46c0-2.15,0.11-4.28,0.32-6.38l7.06-1.73c0.35-2.29,0.82-4.55,1.42-6.76l-5.48-5.38
						c2.04-6.05,4.98-11.68,8.65-16.76l7.04,2.06c1.81-2.28,3.8-4.41,5.92-6.38l-2.04-7.34c4.63-3.84,9.83-7.04,15.43-9.44
						l5.13,5.37c3.02-1.13,6.16-2,9.41-2.6l1.86-7.29c2.77-0.36,5.59-0.56,8.47-0.56c3.17,0,6.3,0.24,9.34,0.68l1.78,7.3
						c3.23,0.65,6.37,1.57,9.37,2.74l5.19-5.29c5.58,2.49,10.72,5.76,15.31,9.67l-2.13,7.29c2.1,2,4.05,4.16,5.83,6.47l7.04-1.96
						c3.6,5.12,6.45,10.81,8.43,16.9l-5.54,5.28c0.56,2.13,0.97,4.3,1.28,6.51l-1.43-1.43l-1.46-1.43l-4.44-4.42
						c-1.89,0.99-3.71,2.09-5.45,3.3l3.27,10.61c-1.95,1.65-3.74,3.52-5.31,5.53l-10.74-2.84c-1.14,1.78-2.17,3.63-3.07,5.56
						l8.14,7.57c-0.45,1.22-0.82,2.49-1.13,3.77c-2.1-0.13-4.2-0.07-6.36,0.22l-0.79,0.1l-0.96,3.7c-1.15,0.25-2.29,0.56-3.41,0.94
						l-2.61-2.72l-0.75,0.32c-2.92,1.27-5.6,2.91-8.01,4.91l-0.58,0.49l1.03,3.73c-0.72,0.7-1.4,1.43-2.04,2.2l-3.57-1.04
						l-0.49,0.68c-1.92,2.64-3.43,5.58-4.49,8.69l-0.24,0.71l2.78,2.73c-0.17,0.67-0.31,1.36-0.43,2.04l-3.57,0.88l-0.08,0.82
						c-0.11,1.04-0.17,2.13-0.17,3.32c0,2.38,0.25,4.73,0.75,6.99l0.15,0.71l3.77,0.97c0.07,0.22,0.14,0.45,0.21,0.67
						c0.04,0.11,0.07,0.22,0.11,0.33l-0.93,0.88L375.13,423.46z M385.35,360.32c0-6.88-5.59-12.47-12.47-12.47
						c-6.9,0-12.47,5.59-12.47,12.47c0,6.9,5.58,12.47,12.47,12.47C379.76,372.79,385.35,367.21,385.35,360.32"/>
				</g>
			</g>
			<g class="st7">
				<defs>
					<rect id="SVGID_9_" x="371.21" y="378.52" width="67.97" height="66.23"/>
				</defs>
				<clipPath id="SVGID_10_">
					<use xlink:href="#SVGID_9_"  style="overflow:visible;"/>
				</clipPath>
				<g class="st11">
					<defs>
						<rect id="SVGID_11_" x="371.21" y="378.52" width="67.97" height="66.23"/>
					</defs>
					<clipPath id="SVGID_12_">
						<use xlink:href="#SVGID_11_"  style="overflow:visible;"/>
					</clipPath>
					<path class="st12" d="M439.04,408.72c0.08,0.97,0.13,1.93,0.13,2.92c0,2.57-0.31,5.08-0.88,7.49l-4,0.95
						c-0.24,0.82-0.52,1.61-0.84,2.4l2.77,2.65c-1.54,3.38-3.66,6.44-6.21,9.11l-3.9-1.12c-0.4,0.37-0.81,0.73-1.23,1.08l1.04,3.66
						c-3.05,2.29-6.5,4.09-10.24,5.27l-2.78-2.83c-0.36,0.09-0.73,0.17-1.09,0.25l-0.98,3.75c-1.84,0.3-3.72,0.46-5.64,0.46
						c-2.08,0-4.1-0.19-6.07-0.53l-0.94-3.76c-0.36-0.09-0.73-0.18-1.08-0.28l-2.83,2.81c-3.72-1.23-7.14-3.07-10.16-5.4l1.1-3.66
						c-0.42-0.36-0.83-0.72-1.21-1.1l-3.95,1.08c-2.51-2.7-4.58-5.8-6.08-9.18l2.82-2.63c-0.31-0.79-0.57-1.59-0.81-2.41l-4.01-1.01
						c-0.5-2.27-0.77-4.63-0.77-7.05c0-1.13,0.05-2.25,0.16-3.36l3.8-0.9c0.18-1.2,0.44-2.39,0.77-3.54l-2.95-2.83
						c1.09-3.17,2.68-6.13,4.65-8.78l3.79,1.08c0.97-1.2,2.03-2.31,3.18-3.35l-1.09-3.85c2.49-2.01,5.28-3.68,8.3-4.95l2.76,2.81
						c1.63-0.59,3.31-1.05,5.06-1.37l1-3.81c1.49-0.19,3.01-0.29,4.56-0.29c1.71,0,3.38,0.12,5.03,0.36l0.95,3.83
						c1.74,0.34,3.42,0.82,5.04,1.43l2.79-2.77c3,1.3,5.78,3.02,8.24,5.07l-1.14,3.81c1.12,1.05,2.18,2.18,3.13,3.39l3.78-1.04
						c1.94,2.69,3.48,5.68,4.54,8.86l-2.98,2.77c0.31,1.15,0.54,2.33,0.71,3.54L439.04,408.72z M411.9,411.64
						c0-3.61-3.01-6.54-6.7-6.54c-3.71,0-6.72,2.93-6.72,6.54c0,3.61,3.01,6.53,6.72,6.53C408.89,418.17,411.9,415.24,411.9,411.64"
						/>
					<path class="st13" d="M405.19,405.09c3.7,0,6.7,2.93,6.7,6.54c0,3.6-3.01,6.53-6.7,6.53c-3.71,0-6.72-2.93-6.72-6.53
						C398.48,408.02,401.48,405.09,405.19,405.09"/>
				</g>
			</g>
			<path class="st14" d="M438.3,419.13c0.57-2.41,0.88-4.92,0.88-7.49c0-0.99-0.05-1.95-0.13-2.92l-3.77-0.95
				c-0.16-1.21-0.4-2.38-0.7-3.54l2.97-2.77c-1.06-3.19-2.6-6.17-4.54-8.86l-3.78,1.04c-0.95-1.2-2-2.34-3.13-3.39l1.14-3.81
				c-2.46-2.05-5.23-3.76-8.24-5.07l-2.79,2.77c-1.61-0.62-3.3-1.1-5.04-1.43l-0.95-3.83c-1.65-0.24-3.32-0.36-5.03-0.36
				c-1.54,0-3.07,0.1-4.56,0.29l-1,3.82c-1.75,0.32-3.43,0.78-5.06,1.36l-2.76-2.81c-3.02,1.26-5.81,2.94-8.3,4.95l1.09,3.85
				c-1.14,1.04-2.21,2.15-3.18,3.35l-3.79-1.09c-1.97,2.66-3.56,5.62-4.65,8.79l2.95,2.83c-0.33,1.14-0.58,2.33-0.77,3.54l-3.8,0.9
				c-0.11,1.11-0.16,2.22-0.16,3.36c0,2.42,0.27,4.78,0.77,7.05l4.01,1.01c0.23,0.82,0.5,1.62,0.81,2.41l-2.82,2.63
				c1.5,3.39,3.57,6.48,6.08,9.18l3.95-1.07c0.39,0.38,0.8,0.74,1.22,1.1l-1.1,3.67c3.01,2.33,6.44,4.17,10.16,5.4l2.83-2.81
				c0.36,0.1,0.73,0.19,1.08,0.28l0.94,3.76c1.97,0.34,4,0.53,6.07,0.53c1.92,0,3.8-0.16,5.64-0.46l0.98-3.74
				c0.37-0.08,0.74-0.16,1.09-0.25l2.78,2.83c3.74-1.18,7.2-2.98,10.24-5.27l-1.04-3.67c0.42-0.35,0.83-0.71,1.23-1.08l3.9,1.12
				c2.55-2.67,4.67-5.74,6.21-9.11l-2.77-2.65c0.32-0.79,0.59-1.58,0.84-2.4L438.3,419.13z"/>
			<path class="st15" d="M405.19,418.17c-3.71,0-6.72-2.93-6.72-6.53c0-3.61,3-6.54,6.72-6.54c3.7,0,6.7,2.93,6.7,6.54
				C411.9,415.24,408.89,418.17,405.19,418.17z"/>
		</g>
	</g>
</g>
</svg>
