<svg xmlns="http://www.w3.org/2000/svg" viewBox="0 0 600 600"><defs><style>.cls-1{fill:#fff;}.cls-2{fill:#12b1f7;}.cls-3,.cls-4{fill:#42d4f7;}.cls-3,.cls-5{stroke:#fff;stroke-miterlimit:10;}.cls-3{stroke-width:2.54px;}.cls-5{fill:none;stroke-linecap:round;stroke-width:2.39px;}</style></defs><title>Website subscription</title><g id="Website_Subscription_2" data-name="Website Subscription 2"><circle class="cls-1" cx="302.24" cy="302.55" r="150"/><rect class="cls-2" x="196.04" y="220.21" width="208.65" height="180.16" rx="10.17"/><rect class="cls-1" x="203.55" y="237.64" width="193.62" height="154.41" rx="9.07"/><rect class="cls-2" x="200.02" y="224.33" width="200.62" height="36.5"/><rect class="cls-3" x="225.47" y="199.63" width="17.46" height="33.38" rx="5.08"/><rect class="cls-3" x="357.8" y="199.63" width="17.46" height="33.38" rx="5.08"/><rect class="cls-2" x="290.85" y="284.9" width="19.03" height="19.03" rx="2.39"/><rect class="cls-2" x="257.77" y="284.9" width="19.03" height="19.03" rx="2.39"/><rect class="cls-2" x="323.93" y="284.9" width="19.03" height="19.03" rx="2.39"/><rect class="cls-2" x="357.02" y="284.9" width="19.03" height="19.03" rx="2.39"/><rect class="cls-2" x="224.68" y="317.32" width="19.03" height="19.03" rx="2.39"/><rect class="cls-2" x="257.77" y="317.32" width="19.03" height="19.03" rx="2.39"/><rect class="cls-2" x="290.85" y="317.32" width="19.03" height="19.03" rx="2.39"/><rect class="cls-4" x="323.93" y="317.32" width="19.03" height="19.03" rx="2.39"/><rect class="cls-2" x="357.02" y="317.32" width="19.03" height="19.03" rx="2.39"/><rect class="cls-2" x="224.68" y="349.73" width="19.03" height="19.03" rx="2.39"/><rect class="cls-2" x="257.77" y="349.73" width="19.03" height="19.03" rx="2.39"/><rect class="cls-2" x="290.85" y="349.73" width="19.03" height="19.03" rx="2.39"/><rect class="cls-2" x="323.93" y="349.73" width="19.03" height="19.03" rx="2.39"/><rect class="cls-2" x="357.02" y="349.73" width="19.03" height="19.03" rx="2.39"/><polyline class="cls-5" points="341.22 322.14 331.86 332.74 326.26 328.5"/></g></svg>