<svg xmlns="http://www.w3.org/2000/svg" viewBox="0 0 600 600"><defs><style>.cls-1{fill:#fff;}.cls-2{fill:#42d4f7;}.cls-3{fill:#12b1f7;}</style></defs><title>Website Design</title><g id="Website_Design" data-name="Website Design"><circle class="cls-1" cx="300" cy="300" r="150"/><path class="cls-2" d="M212.93,214.21c2.28-.44,25.77,1,33,8.14,3.87,3.87,5.68,7.44,6.12,10.49a9.06,9.06,0,0,1-3,8.35,11.38,11.38,0,0,1-8.56,2.73c-9.58-.75-19.63-11.49-17.52-18.5C224.75,219.6,211.16,214.55,212.93,214.21Z"/><path class="cls-2" d="M326.88,303.42,368,344.54,388.29,374l-1.69,2.26a4.74,4.74,0,0,1-1,1L383.34,379l-29.48-20.3-41.12-41.11,7.07-7.07Z"/><polygon class="cls-2" points="298.14 272.9 281.17 289.87 263.76 272.46 264.85 271.37 249.21 252.96 261.23 240.94 279.64 256.58 280.73 255.49 298.14 272.9"/><polygon class="cls-3" points="386.14 214.68 378.95 230.01 371.75 245.34 363.61 237.21 355.48 229.07 370.81 221.87 386.14 214.68"/><rect class="cls-3" x="217.27" y="288.55" width="166" height="24" transform="translate(-124.57 300.35) rotate(-45)"/><path class="cls-3" d="M245.81,372.19l-9.19,9.19a4,4,0,0,1-5.66,0L219.55,370a4,4,0,0,1,0-5.66l9.19-9.19Z"/></g></svg>