<svg xmlns="http://www.w3.org/2000/svg" viewBox="0 0 600 600"><defs><style>.cls-1{fill:#fff;}.cls-2{fill:#12b1f7;}.cls-3{fill:#42d4f7;}.cls-4{fill:none;stroke:#fff;stroke-miterlimit:10;stroke-width:3px;}</style></defs><title>Website Updates</title><g id="Website_Updates" data-name="Website Updates"><circle class="cls-1" cx="303.26" cy="300" r="150"/><path class="cls-2" d="M190.26,213.66V386.34h226V213.66Zm40.63,12a4.81,4.81,0,1,1-5,4.81A4.9,4.9,0,0,1,230.89,225.63Zm-11.4,0a4.81,4.81,0,1,1-5,4.81A4.9,4.9,0,0,1,219.49,225.63Zm-11.91,0a4.81,4.81,0,1,1-5,4.81A4.9,4.9,0,0,1,207.58,225.63ZM404.84,376.29H202.37v-132H404.84Zm0-139.67H239.66V223.85H404.87Z"/><path class="cls-2" d="M369.71,323.34v.28l-6.48,1.76-1.09.3L362,326.8a25.29,25.29,0,0,1-1.23,5l-.39,1.06.83.77,4.92,4.57c-.29.55-.59,1.1-.91,1.64l-6.49-1.72-1.09-.28-.7.88a24.63,24.63,0,0,1-3.57,3.72l-.86.73.33,1.08,2,6.42c-.52.34-1.06.66-1.6,1l-4.76-4.73-.8-.79-1.05.42a25.35,25.35,0,0,1-5,1.44l-1.11.2-.25,1.1-1.5,6.53c-.53,0-1.07,0-1.59,0h-.29l-1.76-6.47-.29-1.09-1.12-.16a24.63,24.63,0,0,1-3.89-.89,2,2,0,0,0,.08-.22l2.71-.66.12-.51a24,24,0,0,0,.61-5.34c0-.69,0-1.38-.09-2.07l-.05-.6-2.56-.66c-.08-.49-.18-1-.29-1.46l2-1.93-.17-.51a23,23,0,0,0-3.14-6.31l-.35-.5-2.57.72c-.15-.19-.32-.36-.48-.54s-.39-.44-.59-.65-.24-.28-.37-.41l.43-1.46.35-1.19-.42-.36a23.71,23.71,0,0,0-5.72-3.61l-.54-.24-1.89,1.92a21.63,21.63,0,0,0-2.45-.71l-.64-2.66-.57-.08-.35,0c.2-.78.43-1.55.7-2.31l.38-1.06-.83-.77-4.91-4.56q.42-.84.9-1.65l6.5,1.72,1.08.29.7-.89a25.13,25.13,0,0,1,3.57-3.72l.86-.73-.33-1.08-2-6.42c.52-.34,1.06-.66,1.6-1l4,3.94.8.79.17.17.63.62.69-.28.35-.14c.35-.14.72-.25,1.07-.37.5-.18,1-.36,1.49-.5a22,22,0,0,1,2.4-.56l1.11-.2.25-1.1,1.5-6.54c.54,0,1.07,0,1.59,0h.29l1.76,6.48.29,1.09,1.12.15a25.12,25.12,0,0,1,5,1.23l1.06.38.77-.82,4.57-4.92c.56.29,1.11.59,1.64.91L352,301.8l-.29,1.09.89.69a25.68,25.68,0,0,1,3.72,3.58l.73.86,1.07-.33,6.42-2c.34.53.67,1.07,1,1.61l-4.73,4.76-.8.8.43,1.05a24.56,24.56,0,0,1,1.43,4.95L362,320l1.1.25,6.54,1.5C369.7,322.28,369.71,322.81,369.71,323.34Zm-24.42,0a8.11,8.11,0,1,0-8.11,8.11A8.12,8.12,0,0,0,345.29,323.34Z"/><path class="cls-2" d="M331.6,339.2c0,.44,0,.88,0,1.32a22.08,22.08,0,0,1-.45,4.44l-2.64.64-.14.48c-.06.22-.14.43-.22.65s-.19.62-.31.92l-.21.53L329.5,350a22.25,22.25,0,0,1-3.39,5.09l-2.58-.75-.36.34c-.25.24-.52.48-.78.71l-.42.35.69,2.48a21.66,21.66,0,0,1-5.63,3l-1.82-1.91-.49.13-.7.16-.51.12-.65,2.53a22.86,22.86,0,0,1-6.45,0l-.61-2.53-.5-.13-.71-.18-.48-.14-1.87,1.9a21.47,21.47,0,0,1-5.58-3l.73-2.47-.41-.36c-.27-.24-.53-.48-.78-.73l-.36-.34-2.59.73a21.88,21.88,0,0,1-3.33-5.14l.9-.85,1-.92,0-.07-.18-.46c0-.12-.07-.24-.11-.36-.15-.4-.29-.81-.41-1.23l-.13-.47-2.63-.68a22,22,0,0,1-.39-4.15c0-.57,0-1.1,0-1.61l2.5-.61.09-.57a18.18,18.18,0,0,1,.49-2.33l.13-.48L289.23,333a21.59,21.59,0,0,1,2.47-4.8l2.5.73.36-.45a18.32,18.32,0,0,1,2-2.2l.38-.35-.72-2.6a22,22,0,0,1,4.38-2.69l1.81,1.9.53-.19a20.21,20.21,0,0,1,3.24-.9l.54-.1.18-.7.48-1.88a22.15,22.15,0,0,1,3.45-.06c.53,0,1.05,0,1.58.1l.08.31.55,2.28.53.1a19.78,19.78,0,0,1,3.24.95l.52.2,1.83-1.87a22.12,22.12,0,0,1,4.35,2.74l-.76,2.58.38.36.39.41c.21.21.42.41.61.63s.39.45.58.68.29.33.42.5l.35.46,2.5-.69a21.52,21.52,0,0,1,2.41,4.85l-2,1.87.13.48A22.3,22.3,0,0,1,329,338l.07.57Zm-16.49,1.32a5.34,5.34,0,1,0-5.34,5.34A5.34,5.34,0,0,0,315.11,340.52Z"/><path class="cls-3" d="M329.8,289.67l-4,3.8a40.33,40.33,0,0,1,.92,4.68l-1-1-1-1-3.19-3.18a36.12,36.12,0,0,0-3.92,2.37l2.35,7.63a27.13,27.13,0,0,0-3.82,4l-7.72-2a34.5,34.5,0,0,0-2.21,4l5.85,5.44a24.88,24.88,0,0,0-.81,2.71,23.41,23.41,0,0,0-4.57.16l-.57.07-.69,2.66a20.66,20.66,0,0,0-2.45.68l-1.88-2-.54.23a23.7,23.7,0,0,0-5.76,3.53l-.42.35.74,2.68a19.92,19.92,0,0,0-1.47,1.58l-2.57-.75-.35.49a23.47,23.47,0,0,0-3.23,6.25l-.17.51,2,2c-.12.48-.22,1-.31,1.47l-2.57.63-.06.59a22.34,22.34,0,0,0-.12,2.39,23.35,23.35,0,0,0,.54,5l.11.51,2.71.7.15.48c0,.08.05.16.08.24l-.67.63-1,.92c-.54,0-1.08,0-1.62,0a45.33,45.33,0,0,1-8.12-.73l-1.25-5.15-1.46-.37-3.77,3.85a45.24,45.24,0,0,1-13.6-7.41l1.48-5q-.84-.74-1.62-1.5l-5.28,1.47a45.2,45.2,0,0,1-8.13-12.61l3.77-3.6c-.4-1.08-.77-2.19-1.08-3.31l-5.35-1.38a45.43,45.43,0,0,1-1-9.68c0-1.55.08-3.08.23-4.59l5.08-1.24a43.65,43.65,0,0,1,1-4.86l-3.94-3.87A45.3,45.3,0,0,1,249.7,277l5.06,1.48A41.14,41.14,0,0,1,259,273.9l-1.47-5.28a45.6,45.6,0,0,1,11.1-6.79l3.69,3.86a40,40,0,0,1,6.77-1.87l1.34-5.24a46.44,46.44,0,0,1,12.81.09l1.28,5.25a41.16,41.16,0,0,1,6.74,2l3.73-3.8a45.75,45.75,0,0,1,11,7l-1.53,5.24a41.11,41.11,0,0,1,4.19,4.65l5.06-1.41A45.46,45.46,0,0,1,329.8,289.67Zm-34.29,13.95a9,9,0,1,0-9,9A9,9,0,0,0,295.51,303.62Z"/><path class="cls-2" d="M334.12,338.43c.06.69.09,1.39.09,2.09a23.32,23.32,0,0,1-.63,5.39l-2.87.68c-.18.59-.38,1.17-.61,1.73l2,1.91a24,24,0,0,1-4.46,6.55l-2.82-.8c-.29.26-.58.52-.88.76l.75,2.65a24.76,24.76,0,0,1-7.37,3.79l-2-2c-.25.07-.52.12-.78.18l-.71,2.69a24.63,24.63,0,0,1-4.06.33,25.07,25.07,0,0,1-4.36-.38l-.67-2.7c-.27-.06-.53-.12-.79-.2l-2,2a24.44,24.44,0,0,1-7.31-3.88l.79-2.63c-.3-.26-.58-.52-.87-.79l-2.84.77a23.82,23.82,0,0,1-4.37-6.61l2-1.88c-.22-.57-.41-1.15-.58-1.74l-2.88-.72a22.93,22.93,0,0,1-.56-5.08c0-.81.05-1.61.13-2.41l2.73-.64a19.58,19.58,0,0,1,.55-2.55l-2.13-2a23.73,23.73,0,0,1,3.35-6.31l2.72.78A21.75,21.75,0,0,1,295,325l-.79-2.77a24.77,24.77,0,0,1,6-3.56l2,2a22.93,22.93,0,0,1,3.64-1l.72-2.74a24.41,24.41,0,0,1,6.89.05l.68,2.75a21.64,21.64,0,0,1,3.63,1l2-2a24.73,24.73,0,0,1,5.93,3.64l-.82,2.75a21.5,21.5,0,0,1,2.24,2.43l2.73-.74a23.68,23.68,0,0,1,3.26,6.37l-2.14,2a21.14,21.14,0,0,1,.51,2.54Zm-19.52,2.09a4.83,4.83,0,1,0-4.83,4.71A4.77,4.77,0,0,0,314.6,340.52Z"/><path class="cls-1" d="M309.77,335.82a4.71,4.71,0,1,1-4.82,4.7A4.77,4.77,0,0,1,309.77,335.82Z"/><path class="cls-4" d="M333.58,345.91a23.32,23.32,0,0,0,.63-5.39c0-.7,0-1.4-.09-2.09l-2.71-.68a21.14,21.14,0,0,0-.51-2.54l2.14-2a23.68,23.68,0,0,0-3.26-6.37l-2.73.74a21.5,21.5,0,0,0-2.24-2.43l.82-2.75a24.73,24.73,0,0,0-5.93-3.64l-2,2a21.64,21.64,0,0,0-3.63-1l-.68-2.75a24.41,24.41,0,0,0-6.89-.05l-.72,2.74a22.93,22.93,0,0,0-3.64,1l-2-2a24.77,24.77,0,0,0-6,3.56L295,325a21.75,21.75,0,0,0-2.29,2.41l-2.72-.78a23.73,23.73,0,0,0-3.35,6.31l2.13,2a19.58,19.58,0,0,0-.55,2.55l-2.73.64c-.08.8-.13,1.6-.13,2.41a22.93,22.93,0,0,0,.56,5.08l2.88.72c.17.59.36,1.17.58,1.74l-2,1.88a23.82,23.82,0,0,0,4.37,6.61l2.84-.77c.29.27.57.53.87.79l-.79,2.63a24.44,24.44,0,0,0,7.31,3.88l2-2c.26.08.52.14.79.2l.67,2.7a25.07,25.07,0,0,0,4.36.38,24.63,24.63,0,0,0,4.06-.33l.71-2.69c.26-.06.53-.11.78-.18l2,2a24.76,24.76,0,0,0,7.37-3.79l-.75-2.65c.3-.24.59-.5.88-.76l2.82.8a24,24,0,0,0,4.46-6.55l-2-1.91c.23-.56.43-1.14.61-1.73Z"/><path class="cls-4" d="M309.77,345.23a4.71,4.71,0,1,1,4.83-4.71A4.77,4.77,0,0,1,309.77,345.23Z"/></g></svg>