<svg xmlns="http://www.w3.org/2000/svg" viewBox="0 0 600 600"><defs><style>.cls-1{fill:#fff;}.cls-2{fill:#12b1f7;}.cls-3{fill:#42d4f7;}</style></defs><title>Website Development</title><g id="Website_Development" data-name="Website Development"><circle class="cls-1" cx="300.86" cy="300.25" r="150"/><rect class="cls-2" x="326.98" y="309.9" width="58.57" height="2.98"/><rect class="cls-2" x="326.98" y="288.08" width="58.57" height="2.98"/><polygon class="cls-3" points="294.92 316.34 229.28 316.34 262.1 256.84 294.92 316.34"/><polygon class="cls-3" points="245.75 316.34 215.3 316.34 230.53 289.65 245.75 316.34"/><polygon class="cls-3" points="311.49 316.34 284.86 316.34 298.17 284.66 311.49 316.34"/><rect class="cls-2" x="211.43" y="331.72" width="174.13" height="2.98"/><rect class="cls-2" x="211.43" y="353.53" width="174.13" height="2.98"/><rect class="cls-2" x="326.98" y="266.26" width="58.57" height="2.98"/><path class="cls-2" d="M187.86,213.91V386.59h226V213.91Zm40.63,12a4.81,4.81,0,1,1-5,4.81A4.9,4.9,0,0,1,228.49,225.88Zm-11.4,0a4.81,4.81,0,1,1-5,4.81A4.9,4.9,0,0,1,217.09,225.88Zm-11.91,0a4.81,4.81,0,1,1-5,4.81A4.9,4.9,0,0,1,205.18,225.88ZM402.44,376.54H200v-132H402.44Zm0-139.67H237.26V224.1H402.47Z"/></g></svg>